<svg
  viewBox="0 0 507 585"
  version="1.1"
  xmlns="http://www.w3.org/2000/svg"
  xmlns:xlink="http://www.w3.org/1999/xlink"
  preserveAspectRatio="xMidYMid meet"
>
    <!-- Generator: Sketch 58 (84663) - https://sketch.com -->
    <title>jurors-not-approved copy 3</title>
    <desc>Created with Sketch.</desc>
    <defs>
        <polygon
      id="path-1"
      points="292.299932 35.2120383 514.944578 163.755985 514.944578 420.843878 292.299932 549.387825 69.655285 420.843878 69.655285 163.755985"
    />
    </defs>
    <g id="Logos,-Icons,-Illustrations" stroke="none" stroke-width="1" fill="none" fill-rule="evenodd">
        <g id="jurors-not-approved-copy-3" transform="translate(-39.000000, 0.000000)">
            <polygon
        id="Polygon"
        fill="#CDDEFF"
        points="292.5 0 545.812431 146.25 545.812431 438.75 292.5 585 39.1875694 438.75 39.1875694 146.25"
      />
            <mask id="mask-2" fill="white">
                <use xlink:href="#path-1" />
            </mask>
            <use id="Mask" fill="#0043C5" xlink:href="#path-1" />
            <polygon
        id="Polygon"
        fill="#00308D"
        mask="url(#mask-2)"
        points="292.5 98.4336525 460.566387 195.466826 460.566387 422.692414 292.5 486.566347 124.433613 422.692414 124.433613 195.466826"
      />
            <g id="Group" mask="url(#mask-2)">
                <g transform="translate(187.000000, -143.000000)">
                    <polygon
            id="Rectangle"
            fill="#FFFFFF"
            points="-2.30215846e-12 1.70530257e-13 212.872777 1.70530257e-13 212.872777 356.121751 106.8836 296.101231 -2.30215846e-12 356.121751"
          />
                    <polygon
            id="Rectangle"
            fill="#00308D"
            points="12.516729 48.8166895 15.7692466 48.8166895 15.7692466 347.293831 12.516729 349.113007"
          />
                    <polygon
            id="Rectangle"
            fill="#00308D"
            points="197.503667 48.8166895 200.756185 48.8166895 200.756185 349.239418 197.503667 347.398065"
          />
                    <g
            id="plus-solid"
            stroke-width="1"
            fill="none"
            transform="translate(106.500000, 249.500000) rotate(-315.000000) translate(-106.500000, -249.500000) translate(77.000000, 220.000000)"
          >
                        <path
              d="M54.7369796,23.178069 L35.8540857,23.178069 L35.8540857,4.29517507 C35.8540857,1.97808662 33.9749755,0.0989764161 31.657887,0.0989764161 L27.4616884,0.0989764161 C25.1445999,0.0989764161 23.2654897,1.97808662 23.2654897,4.29517507 L23.2654897,23.178069 L4.3825958,23.178069 C2.06550735,23.178069 0.186397144,25.0571792 0.186397144,27.3742676 L0.186397144,31.5704663 C0.186397144,33.8875547 2.06550735,35.766665 4.3825958,35.766665 L23.2654897,35.766665 L23.2654897,54.6495589 C23.2654897,56.9666473 25.1445999,58.8457575 27.4616884,58.8457575 L31.657887,58.8457575 C33.9749755,58.8457575 35.8540857,56.9666473 35.8540857,54.6495589 L35.8540857,35.766665 L54.7369796,35.766665 C57.0540681,35.766665 58.9331783,33.8875547 58.9331783,31.5704663 L58.9331783,27.3742676 C58.9331783,25.0571792 57.0540681,23.178069 54.7369796,23.178069 Z"
              id="Path"
              fill="#F60C36"
              fill-rule="nonzero"
            />
                    </g>
                </g>
            </g>
            <g id="GAVEL" mask="url(#mask-2)" fill="#FFFFFF">
                <g transform="translate(196.000000, 197.000000)">
                    <path
            d="M177.522572,160 L177.522572,168 L191.522572,168 L191.522572,178 L102.522572,178 L102.522572,168 L117.522572,168 L117.522572,160 L177.522572,160 Z"
            id="Combined-Shape"
          />
                    <path
            d="M180.690383,67.1276354 L165.589284,69.2762727 L122.442959,26.3046652 L124.600314,11.2645836 L115.971277,2.67003419 C112.396789,-0.890011396 106.60164,-0.890011396 103.027532,2.67003419 L55.5668801,49.9389164 C51.9923914,53.498962 51.9923914,59.2706949 55.5668801,62.8303607 L64.1959163,71.4245302 L79.2970156,69.2758929 L94.3981149,84.3159745 L63.4926882,115.096524 C18.1681994,143.106289 -2.88999972,162.647229 0.318090806,173.719343 L17.5765445,190.908062 C29.8746467,192.573957 49.4947367,171.600719 76.4368145,127.988348 L107.342241,97.2077986 L122.44334,112.24788 L120.285986,127.287962 L128.915022,135.882131 C132.489511,139.442177 138.28466,139.442177 141.858767,135.882131 L189.319419,88.6132492 C192.893527,85.0535835 192.893527,79.2818505 189.319419,75.7218049 L180.690383,67.1276354 Z"
            id="Path"
          />
                </g>
            </g>
            <g id="PAPER" mask="url(#mask-2)">
                <g transform="translate(124.442544, 405.000000)">
                    <rect id="Rectangle" fill="#FFFFFF" x="0" y="0" width="337.315321" height="190" />
                    <path
            d="M293.067328,191.199636 C295.847854,191.199636 298.101915,193.453697 298.101915,196.234223 C298.101915,199.014748 295.847854,201.26881 293.067328,201.26881 L44.2479933,201.26881 C41.4674677,201.26881 39.2134063,199.014748 39.2134063,196.234223 C39.2134063,193.453697 41.4674677,191.199636 44.2479933,191.199636 L293.067328,191.199636 Z M293.067328,158.561624 C295.847854,158.561624 298.101915,160.815685 298.101915,163.596211 C298.101915,166.376736 295.847854,168.630798 293.067328,168.630798 L44.2479933,168.630798 C41.4674677,168.630798 39.2134063,166.376736 39.2134063,163.596211 C39.2134063,160.815685 41.4674677,158.561624 44.2479933,158.561624 L293.067328,158.561624 Z M293.067328,125.923612 C295.847854,125.923612 298.101915,128.177673 298.101915,130.958199 C298.101915,133.738724 295.847854,135.992786 293.067328,135.992786 L44.2479933,135.992786 C41.4674677,135.992786 39.2134063,133.738724 39.2134063,130.958199 C39.2134063,128.177673 41.4674677,125.923612 44.2479933,125.923612 L293.067328,125.923612 Z M293.067328,93.2855999 C295.847854,93.2855999 298.101915,95.5396613 298.101915,98.3201869 C298.101915,101.100712 295.847854,103.354774 293.067328,103.354774 L44.2479933,103.354774 C41.4674677,103.354774 39.2134063,101.100712 39.2134063,98.3201869 C39.2134063,95.5396613 41.4674677,93.2855999 44.2479933,93.2855999 L293.067328,93.2855999 Z M293.067328,60.6475879 C295.847854,60.6475879 298.101915,62.9016493 298.101915,65.6821749 C298.101915,68.4627005 295.847854,70.7167618 293.067328,70.7167618 L44.2479933,70.7167618 C41.4674677,70.7167618 39.2134063,68.4627005 39.2134063,65.6821749 C39.2134063,62.9016493 41.4674677,60.6475879 44.2479933,60.6475879 L293.067328,60.6475879 Z M293.067328,28.0095759 C295.847854,28.0095759 298.101915,30.2636373 298.101915,33.0441629 C298.101915,35.8246885 295.847854,38.0787498 293.067328,38.0787498 L44.2479933,38.0787498 C41.4674677,38.0787498 39.2134063,35.8246885 39.2134063,33.0441629 C39.2134063,30.2636373 41.4674677,28.0095759 44.2479933,28.0095759 L293.067328,28.0095759 Z"
            id="Combined-Shape"
            fill="#00308D"
          />
                </g>
            </g>
        </g>
    </g>
</svg>
