<svg viewBox="0 0 117 135" fill="none" xmlns="http://www.w3.org/2000/svg" preserveAspectRatio="xMidYMid meet">
<path
    fill-rule="evenodd"
    clip-rule="evenodd"
    d="M58.4137 0L116.827 33.75V101.25L58.4137 135L0 101.25V33.75L58.4137 0Z"
    fill="#CDDEFF"
  />
<mask id="mask0" mask-type="alpha" maskUnits="userSpaceOnUse" x="7" y="8" width="103" height="119">
<path d="M58.3671 8.125L109.709 37.789V97.117L58.3671 126.781L7.02539 97.117V37.789L58.3671 8.125Z" fill="white" />
</mask>
<g mask="url(#mask0)">
<path
      d="M58.3671 8.125L109.709 37.789V97.117L58.3671 126.781L7.02539 97.117V37.789L58.3671 8.125Z"
      fill="url(#paint0_linear)"
    />
<path d="M107.963 101.02H13.293V131.676H107.963V101.02Z" fill="#9013FE" />
<path
      fill-rule="evenodd"
      clip-rule="evenodd"
      d="M42.5277 6.1875L32.3008 63.8995H84.3418L74.1099 6.1875H42.5277Z"
      fill="white"
      fill-opacity="0.178568"
    />
</g>
<mask id="mask1" mask-type="alpha" maskUnits="userSpaceOnUse" x="7" y="8" width="103" height="119">
<path d="M58.3671 8.125L109.709 37.789V97.117L58.3671 126.781L7.02539 97.117V37.789L58.3671 8.125Z" fill="white" />
</mask>
<g mask="url(#mask1)">
<path d="M58.3671 8.125L109.709 37.789V97.117L58.3671 126.781L7.02539 97.117V37.789L58.3671 8.125Z" fill="#0043C5" />
<path d="M97.0748 31.3945H19.8438V123.918H97.0748V31.3945Z" fill="url(#paint1_linear)" />
<path
      d="M86.9693 45.3555H30.0423C29.4041 45.3555 28.8867 45.8732 28.8867 46.5119C28.8867 47.1506 29.4041 47.6684 30.0423 47.6684H86.9693C87.6075 47.6684 88.1249 47.1506 88.1249 46.5119C88.1249 45.8732 87.6075 45.3555 86.9693 45.3555Z"
      fill="#00308D"
    />
<path
      d="M86.9693 37.8594H30.0423C29.4041 37.8594 28.8867 38.3771 28.8867 39.0158C28.8867 39.6545 29.4041 40.1723 30.0423 40.1723H86.9693C87.6075 40.1723 88.1249 39.6545 88.1249 39.0158C88.1249 38.3771 87.6075 37.8594 86.9693 37.8594Z"
      fill="#00308D"
    />
<path
      d="M86.9693 52.8535H30.0423C29.4041 52.8535 28.8867 53.3713 28.8867 54.01C28.8867 54.6487 29.4041 55.1664 30.0423 55.1664H86.9693C87.6075 55.1664 88.1249 54.6487 88.1249 54.01C88.1249 53.3713 87.6075 52.8535 86.9693 52.8535Z"
      fill="#00308D"
    />
<path
      d="M86.9693 60.3496H30.0423C29.4041 60.3496 28.8867 60.8674 28.8867 61.5061C28.8867 62.1448 29.4041 62.6625 30.0423 62.6625H86.9693C87.6075 62.6625 88.1249 62.1448 88.1249 61.5061C88.1249 60.8674 87.6075 60.3496 86.9693 60.3496Z"
      fill="#00308D"
    />
<path
      d="M86.9693 67.8477H30.0423C29.4041 67.8477 28.8867 68.3654 28.8867 69.0041C28.8867 69.6428 29.4041 70.1606 30.0423 70.1606H86.9693C87.6075 70.1606 88.1249 69.6428 88.1249 69.0041C88.1249 68.3654 87.6075 67.8477 86.9693 67.8477Z"
      fill="#00308D"
    />
<path
      d="M86.9693 75.3438H30.0423C29.4041 75.3438 28.8867 75.8615 28.8867 76.5002C28.8867 77.1389 29.4041 77.6567 30.0423 77.6567H86.9693C87.6075 77.6567 88.1249 77.1389 88.1249 76.5002C88.1249 75.8615 87.6075 75.3438 86.9693 75.3438Z"
      fill="#00308D"
    />
<path d="M103.165 50.6934H13.6621V157.899H103.165V50.6934Z" fill="white" />
<path
      d="M91.4926 66.8535H25.5186C24.7797 66.8535 24.1807 67.453 24.1807 68.1924C24.1807 68.9319 24.7797 69.5313 25.5186 69.5313H91.4926C92.2315 69.5313 92.8305 68.9319 92.8305 68.1924C92.8305 67.453 92.2315 66.8535 91.4926 66.8535Z"
      fill="#00308D"
    />
<path
      d="M91.4926 58.1738H25.5186C24.7797 58.1738 24.1807 58.7733 24.1807 59.5127C24.1807 60.2522 24.7797 60.8517 25.5186 60.8517H91.4926C92.2315 60.8517 92.8305 60.2522 92.8305 59.5127C92.8305 58.7733 92.2315 58.1738 91.4926 58.1738Z"
      fill="#00308D"
    />
<path
      d="M91.4926 75.5332H25.5186C24.7797 75.5332 24.1807 76.1327 24.1807 76.8721C24.1807 77.6116 24.7797 78.2111 25.5186 78.2111H91.4926C92.2315 78.2111 92.8305 77.6116 92.8305 76.8721C92.8305 76.1327 92.2315 75.5332 91.4926 75.5332Z"
      fill="#00308D"
    />
<path
      d="M91.4926 84.2129H25.5186C24.7797 84.2129 24.1807 84.8123 24.1807 85.5518C24.1807 86.2913 24.7797 86.8907 25.5186 86.8907H91.4926C92.2315 86.8907 92.8305 86.2913 92.8305 85.5518C92.8305 84.8123 92.2315 84.2129 91.4926 84.2129Z"
      fill="#00308D"
    />
<path
      d="M91.4926 92.8926H25.5186C24.7797 92.8926 24.1807 93.492 24.1807 94.2315C24.1807 94.971 24.7797 95.5704 25.5186 95.5704H91.4926C92.2315 95.5704 92.8305 94.971 92.8305 94.2315C92.8305 93.492 92.2315 92.8926 91.4926 92.8926Z"
      fill="#00308D"
    />
<path
      d="M91.4926 101.572H25.5186C24.7797 101.572 24.1807 102.172 24.1807 102.911C24.1807 103.651 24.7797 104.25 25.5186 104.25H91.4926C92.2315 104.25 92.8305 103.651 92.8305 102.911C92.8305 102.172 92.2315 101.572 91.4926 101.572Z"
      fill="#00308D"
    />
</g>
<path
    d="M52.6011 85.5504L73.7763 64.3597C75.2393 62.8957 77.6113 62.8957 79.0743 64.3598L82.4148 67.7028C83.8777 69.1668 83.8777 71.5405 82.4148 73.0046L55.25 100.189C53.787 101.653 51.415 101.653 49.9521 100.189L34.5982 84.8241C33.1352 83.3601 33.1352 80.9864 34.5982 79.5222L37.9386 76.1792C39.4016 74.715 41.7737 74.715 43.2366 76.1792L52.6011 85.5504ZM51.9095 98.2305C52.2915 98.6128 52.9107 98.6128 53.2927 98.2306L80.4573 71.0459C80.8393 70.6636 80.8393 70.0438 80.4574 69.6616L77.1169 66.3185C76.735 65.9363 76.1156 65.9363 75.7337 66.3186L52.6011 89.4681L51.6224 88.4887L41.2792 78.1379C40.8973 77.7557 40.278 77.7557 39.8961 78.138L36.5556 81.481C36.1736 81.8633 36.1736 82.4831 36.5556 82.8653L51.9095 98.2305Z"
    fill="white"
  />
<path
    d="M50.9305 99.2096L35.5766 83.8443C34.6542 82.9212 34.6542 81.4245 35.5766 80.5013L38.9171 77.1582C39.8395 76.235 41.3352 76.235 42.2577 77.1582L52.6008 87.5089L74.7547 65.3388C75.6771 64.4157 77.1729 64.4157 78.0953 65.3388L81.4358 68.6819C82.3582 69.605 82.3582 71.1017 81.4358 72.0249L54.2711 99.2097C53.3486 100.133 51.853 100.133 50.9305 99.2096Z"
    fill="#00308D"
  />
<defs>
<linearGradient id="paint0_linear" x1="58.3671" y1="8.125" x2="58.3671" y2="126.781" gradientUnits="userSpaceOnUse">
<stop stop-color="#8400DB" />
<stop offset="1" stop-color="#4D00B4" />
</linearGradient>
<linearGradient id="paint1_linear" x1="58.4593" y1="123.918" x2="58.4593" y2="31.3945" gradientUnits="userSpaceOnUse">
<stop stop-color="#3DBEFF" />
<stop offset="1" stop-color="#00AAFF" />
</linearGradient>
</defs>
</svg>
