<svg viewBox="0 0 117 135" fill="none" xmlns="http://www.w3.org/2000/svg" preserveAspectRatio="xMidYMid meet">
<path
    fill-rule="evenodd"
    clip-rule="evenodd"
    d="M58.4567 0L116.913 33.75V101.25L58.4567 135L0 101.25V33.75L58.4567 0Z"
    fill="#CDDEFF"
  />
<mask id="mask0" mask-type="alpha" maskUnits="userSpaceOnUse" x="7" y="8" width="103" height="119">
<path
      d="M58.4105 8.12695L109.79 37.7909V97.1189L58.4105 126.783L7.03101 97.1189V37.7909L58.4105 8.12695Z"
      fill="white"
    />
</mask>
<g mask="url(#mask0)">
<path
      d="M58.4105 8.12695L109.79 37.7909V97.1189L58.4105 126.783L7.03101 97.1189V37.7909L58.4105 8.12695Z"
      fill="url(#paint0_linear)"
    />
<path d="M108.043 101.02H13.3029V131.676H108.043V101.02Z" fill="#9013FE" />
<path
      fill-rule="evenodd"
      clip-rule="evenodd"
      d="M42.5592 6.1875L32.3247 63.8995H84.404L74.1646 6.1875H42.5592Z"
      fill="white"
      fill-opacity="0.178568"
    />
</g>
<mask id="mask1" mask-type="alpha" maskUnits="userSpaceOnUse" x="7" y="8" width="103" height="119">
<path
      d="M58.4105 8.12695L109.79 37.7909V97.1189L58.4105 126.783L7.03101 97.1189V37.7909L58.4105 8.12695Z"
      fill="white"
    />
</mask>
<g mask="url(#mask1)">
<path
      d="M58.4105 8.12695L109.79 37.7909V97.1189L58.4105 126.783L7.03101 97.1189V37.7909L58.4105 8.12695Z"
      fill="#0043C5"
    />
<path d="M97.1468 31.3945H19.8589V123.918H97.1468V31.3945Z" fill="url(#paint1_linear)" />
<path
      d="M87.0336 45.3555H30.0647C29.426 45.3555 28.9082 45.8732 28.9082 46.5119C28.9082 47.1506 29.426 47.6684 30.0647 47.6684H87.0336C87.6722 47.6684 88.19 47.1506 88.19 46.5119C88.19 45.8732 87.6722 45.3555 87.0336 45.3555Z"
      fill="#00308D"
    />
<path
      d="M87.0336 37.8594H30.0647C29.426 37.8594 28.9082 38.3771 28.9082 39.0158C28.9082 39.6545 29.426 40.1723 30.0647 40.1723H87.0336C87.6722 40.1723 88.19 39.6545 88.19 39.0158C88.19 38.3771 87.6722 37.8594 87.0336 37.8594Z"
      fill="#00308D"
    />
<path
      d="M87.0336 52.8535H30.0647C29.426 52.8535 28.9082 53.3713 28.9082 54.01C28.9082 54.6487 29.426 55.1664 30.0647 55.1664H87.0336C87.6722 55.1664 88.19 54.6487 88.19 54.01C88.19 53.3713 87.6722 52.8535 87.0336 52.8535Z"
      fill="#00308D"
    />
<path
      d="M87.0336 60.3496H30.0647C29.426 60.3496 28.9082 60.8674 28.9082 61.5061C28.9082 62.1448 29.426 62.6625 30.0647 62.6625H87.0336C87.6722 62.6625 88.19 62.1448 88.19 61.5061C88.19 60.8674 87.6722 60.3496 87.0336 60.3496Z"
      fill="#00308D"
    />
<path
      d="M87.0336 67.8477H30.0647C29.426 67.8477 28.9082 68.3654 28.9082 69.0041C28.9082 69.6428 29.426 70.1606 30.0647 70.1606H87.0336C87.6722 70.1606 88.19 69.6428 88.19 69.0041C88.19 68.3654 87.6722 67.8477 87.0336 67.8477Z"
      fill="#00308D"
    />
<path
      d="M87.0336 75.3438H30.0647C29.426 75.3438 28.9082 75.8615 28.9082 76.5002C28.9082 77.1389 29.426 77.6567 30.0647 77.6567H87.0336C87.6722 77.6567 88.19 77.1389 88.19 76.5002C88.19 75.8615 87.6722 75.3438 87.0336 75.3438Z"
      fill="#00308D"
    />
<path d="M103.241 50.6953H13.6721V157.901H103.241V50.6953Z" fill="white" />
<path
      d="M50.8392 58.1738H25.5373C24.7981 58.1738 24.1989 58.7731 24.1989 59.5123V59.5132C24.1989 60.2524 24.7981 60.8517 25.5373 60.8517H50.8392C51.5784 60.8517 52.1776 60.2524 52.1776 59.5132V59.5123C52.1776 58.7731 51.5784 58.1738 50.8392 58.1738Z"
      fill="#00308D"
    />
<path
      d="M59.7961 58.1738H56.1016C55.3624 58.1738 54.7632 58.7731 54.7632 59.5123V59.5132C54.7632 60.2524 55.3624 60.8517 56.1016 60.8517H59.7961C60.5353 60.8517 61.1346 60.2524 61.1346 59.5132V59.5123C61.1346 58.7731 60.5353 58.1738 59.7961 58.1738Z"
      fill="#00308D"
    />
</g>
<path
    d="M72.5326 96.1479L64.0882 87.7034L72.5326 79.2589C73.5688 78.2227 73.5688 76.542 72.5326 75.5058L70.6561 73.6292C69.6199 72.593 67.9392 72.593 66.903 73.6292L58.4585 82.0737L50.014 73.6292C48.9778 72.593 47.2971 72.593 46.2609 73.6292L44.3844 75.5058C43.3481 76.542 43.3481 78.2227 44.3844 79.2589L52.8288 87.7034L44.3844 96.1479C43.3481 97.1841 43.3481 98.8648 44.3844 99.901L46.2609 101.778C47.2971 102.814 48.9778 102.814 50.014 101.778L58.4585 93.333L66.903 101.778C67.9392 102.814 69.6199 102.814 70.6561 101.778L72.5326 99.901C73.5688 98.8648 73.5688 97.1841 72.5326 96.1479Z"
    fill="#003192"
  />
<path
    d="M47.3083 20.9277V18.5059H69.6471V20.9341L60.1532 34.664L69.6471 48.3938V50.7729H47.3083V48.4002L56.5853 34.664L47.3083 20.9277ZM48.3721 20.6021L57.8689 34.664L48.3721 48.7258V49.7091H68.5833V48.7258L58.8599 34.664L68.5833 20.6021V19.5696H48.3721V20.6021Z"
    fill="white"
  />
<path
    fill-rule="evenodd"
    clip-rule="evenodd"
    d="M49.7904 22.5469H67.165L58.8062 34.6736L67.165 46.8003H49.7904L57.9544 34.6736L49.7904 22.5469Z"
    fill="#00308D"
  />
<path
    fill-rule="evenodd"
    clip-rule="evenodd"
    d="M58.3644 35.4336L62.9942 42.0147L66.2431 46.7297H50.7124L54.0015 41.8424L58.3644 35.4336Z"
    fill="white"
  />
<defs>
<linearGradient id="paint0_linear" x1="58.4105" y1="8.12695" x2="58.4105" y2="126.783" gradientUnits="userSpaceOnUse">
<stop stop-color="#8400DB" />
<stop offset="1" stop-color="#4D00B4" />
</linearGradient>
<linearGradient id="paint1_linear" x1="58.5029" y1="123.918" x2="58.5029" y2="31.3945" gradientUnits="userSpaceOnUse">
<stop stop-color="#3DBEFF" />
<stop offset="1" stop-color="#00AAFF" />
</linearGradient>
</defs>
</svg>
