<svg viewBox="0 0 117 135" fill="none" xmlns="http://www.w3.org/2000/svg" preserveAspectRatio="xMidYMid meet">
<path
    fill-rule="evenodd"
    clip-rule="evenodd"
    d="M58.4553 0L116.911 33.75V101.25L58.4553 135L0 101.25V33.75L58.4553 0Z"
    fill="#CDDEFF"
  />
<mask id="mask0" mask-type="alpha" maskUnits="userSpaceOnUse" x="7" y="8" width="103" height="119">
<path d="M58.409 8.12598L109.787 37.79V97.1179L58.409 126.782L7.03076 97.1179V37.79L58.409 8.12598Z" fill="white" />
</mask>
<g mask="url(#mask0)">
<path
      d="M58.409 8.12598L109.787 37.79V97.1179L58.409 126.782L7.03076 97.1179V37.79L58.409 8.12598Z"
      fill="url(#paint0_linear)"
    />
<path d="M108.04 101.02H13.3022V131.676H108.04V101.02Z" fill="#9013FE" />
<path
      fill-rule="evenodd"
      clip-rule="evenodd"
      d="M42.558 6.18652L32.3237 63.8986H84.4018L74.1626 6.18652H42.558Z"
      fill="white"
      fill-opacity="0.178568"
    />
</g>
<mask id="mask1" mask-type="alpha" maskUnits="userSpaceOnUse" x="7" y="8" width="103" height="119">
<path d="M58.409 8.12598L109.787 37.79V97.1179L58.409 126.782L7.03076 97.1179V37.79L58.409 8.12598Z" fill="white" />
</mask>
<g mask="url(#mask1)">
<path d="M58.409 8.12598L109.787 37.79V97.1179L58.409 126.782L7.03076 97.1179V37.79L58.409 8.12598Z" fill="#0043C5" />
<path d="M97.1445 31.3955H19.8584V123.919H97.1445V31.3955Z" fill="url(#paint1_linear)" />
<path
      d="M87.0312 45.3564H30.0637C29.425 45.3564 28.9072 45.8742 28.9072 46.5129C28.9072 47.1516 29.425 47.6694 30.0637 47.6694H87.0312C87.6698 47.6694 88.1876 47.1516 88.1876 46.5129C88.1876 45.8742 87.6698 45.3564 87.0312 45.3564Z"
      fill="#00308D"
    />
<path
      d="M87.0312 37.8594H30.0637C29.425 37.8594 28.9072 38.3771 28.9072 39.0158C28.9072 39.6545 29.425 40.1723 30.0637 40.1723H87.0312C87.6698 40.1723 88.1876 39.6545 88.1876 39.0158C88.1876 38.3771 87.6698 37.8594 87.0312 37.8594Z"
      fill="#00308D"
    />
<path
      d="M87.0312 52.8535H30.0637C29.425 52.8535 28.9072 53.3713 28.9072 54.01C28.9072 54.6487 29.425 55.1664 30.0637 55.1664H87.0312C87.6698 55.1664 88.1876 54.6487 88.1876 54.01C88.1876 53.3713 87.6698 52.8535 87.0312 52.8535Z"
      fill="#00308D"
    />
<path
      d="M87.0312 60.3506H30.0637C29.425 60.3506 28.9072 60.8684 28.9072 61.507C28.9072 62.1457 29.425 62.6635 30.0637 62.6635H87.0312C87.6698 62.6635 88.1876 62.1457 88.1876 61.507C88.1876 60.8684 87.6698 60.3506 87.0312 60.3506Z"
      fill="#00308D"
    />
<path
      d="M87.0312 67.8467H30.0637C29.425 67.8467 28.9072 68.3644 28.9072 69.0031C28.9072 69.6418 29.425 70.1596 30.0637 70.1596H87.0312C87.6698 70.1596 88.1876 69.6418 88.1876 69.0031C88.1876 68.3644 87.6698 67.8467 87.0312 67.8467Z"
      fill="#00308D"
    />
<path
      d="M87.0312 75.3438H30.0637C29.425 75.3438 28.9072 75.8615 28.9072 76.5002C28.9072 77.1389 29.425 77.6567 30.0637 77.6567H87.0312C87.6698 77.6567 88.1876 77.1389 88.1876 76.5002C88.1876 75.8615 87.6698 75.3438 87.0312 75.3438Z"
      fill="#00308D"
    />
<path d="M103.239 50.6943H13.6719V157.9H103.239V50.6943Z" fill="white" />
<path
      d="M50.8375 58.1738H25.5371C24.7977 58.1738 24.1982 58.7733 24.1982 59.5127C24.1982 60.2522 24.7977 60.8517 25.5371 60.8517H50.8375C51.5769 60.8517 52.1764 60.2522 52.1764 59.5127C52.1764 58.7733 51.5769 58.1738 50.8375 58.1738Z"
      fill="#00308D"
    />
<path
      d="M59.7941 58.1738H56.1006C55.3612 58.1738 54.7617 58.7733 54.7617 59.5127C54.7617 60.2522 55.3612 60.8517 56.1006 60.8517H59.7941C60.5335 60.8517 61.133 60.2522 61.133 59.5127C61.133 58.7733 60.5335 58.1738 59.7941 58.1738Z"
      fill="#00308D"
    />
</g>
<path
    fill-rule="evenodd"
    clip-rule="evenodd"
    d="M60.4756 90.4649C60.4007 91.1221 60.4705 91.7725 60.6847 92.4161C69.8242 93.1493 76.9095 98.3325 76.9226 104.621H39.9878H39.9878C40.0009 98.3325 47.0861 93.1493 56.2256 92.4161C56.4399 91.7725 56.5096 91.1221 56.4348 90.4649C53.1744 88.9257 50.777 83.967 50.777 80.4308C50.777 76.1964 54.2146 72.7637 58.4552 72.7637C62.6957 72.7637 66.1334 76.1964 66.1334 80.4308C66.1334 83.967 63.736 88.9257 60.4756 90.4649Z"
    fill="url(#paint2_linear)"
  />
<defs>
<linearGradient id="paint0_linear" x1="58.409" y1="8.12598" x2="58.409" y2="126.782" gradientUnits="userSpaceOnUse">
<stop stop-color="#8400DB" />
<stop offset="1" stop-color="#4D00B4" />
</linearGradient>
<linearGradient id="paint1_linear" x1="58.5014" y1="123.919" x2="58.5014" y2="31.3955" gradientUnits="userSpaceOnUse">
<stop stop-color="#3DBEFF" />
<stop offset="1" stop-color="#00AAFF" />
</linearGradient>
<linearGradient id="paint2_linear" x1="58.4552" y1="72.7637" x2="58.4552" y2="104.621" gradientUnits="userSpaceOnUse">
<stop stop-color="#0043C5" />
<stop offset="1" stop-color="#00308D" />
</linearGradient>
</defs>
</svg>
