<svg viewBox="0 0 117 135" fill="none" xmlns="http://www.w3.org/2000/svg" preserveAspectRatio="xMidYMid meet">
<path
    fill-rule="evenodd"
    clip-rule="evenodd"
    d="M58.4488 0L116.898 33.75V101.25L58.4488 135L0 101.25V33.75L58.4488 0Z"
    fill="#CDDEFF"
  />
<mask id="mask0" mask-type="alpha" maskUnits="userSpaceOnUse" x="7" y="8" width="103" height="119">
<path d="M58.4028 8.12598L109.775 37.79V97.1179L58.4028 126.782L7.03027 97.1179V37.79L58.4028 8.12598Z" fill="white" />
</mask>
<g mask="url(#mask0)">
<path
      d="M58.4028 8.12598L109.775 37.79V97.1179L58.4028 126.782L7.03027 97.1179V37.79L58.4028 8.12598Z"
      fill="url(#paint0_linear)"
    />
<path d="M108.028 101.02H13.3008V131.676H108.028V101.02Z" fill="#9013FE" />
<path
      fill-rule="evenodd"
      clip-rule="evenodd"
      d="M42.5534 6.18652L32.3203 63.8986H84.3926L74.1545 6.18652H42.5534Z"
      fill="white"
      fill-opacity="0.178568"
    />
</g>
<mask id="mask1" mask-type="alpha" maskUnits="userSpaceOnUse" x="7" y="8" width="103" height="119">
<path d="M58.4028 8.12598L109.775 37.79V97.1179L58.4028 126.782L7.03027 97.1179V37.79L58.4028 8.12598Z" fill="white" />
</mask>
<g mask="url(#mask1)">
<path
      d="M58.4028 8.12598L109.775 37.79V97.1179L58.4028 126.782L7.03027 97.1179V37.79L58.4028 8.12598Z"
      fill="#0043C5"
    />
<path d="M103.228 24.4697H13.6709V131.676H103.228V24.4697Z" fill="url(#paint1_linear)" />
</g>
<path
    d="M91.5477 40.6289H25.5341C24.7947 40.6289 24.1953 41.2284 24.1953 41.9678C24.1953 42.7073 24.7947 43.3068 25.5341 43.3068H91.5477C92.287 43.3068 92.8864 42.7073 92.8864 41.9678C92.8864 41.2284 92.287 40.6289 91.5477 40.6289Z"
    fill="#00308D"
  />
<path
    d="M91.5477 31.9492H25.5341C24.7947 31.9492 24.1953 32.5487 24.1953 33.2881C24.1953 34.0276 24.7947 34.6271 25.5341 34.6271H91.5477C92.287 34.6271 92.8864 34.0276 92.8864 33.2881C92.8864 32.5487 92.287 31.9492 91.5477 31.9492Z"
    fill="#00308D"
  />
<path
    d="M91.5477 49.3096H25.5341C24.7947 49.3096 24.1953 49.909 24.1953 50.6485C24.1953 51.388 24.7947 51.9874 25.5341 51.9874H91.5477C92.287 51.9874 92.8864 51.388 92.8864 50.6485C92.8864 49.909 92.287 49.3096 91.5477 49.3096Z"
    fill="#00308D"
  />
<path
    d="M91.5477 57.9893H25.5341C24.7947 57.9893 24.1953 58.5887 24.1953 59.3282C24.1953 60.0676 24.7947 60.6671 25.5341 60.6671H91.5477C92.287 60.6671 92.8864 60.0676 92.8864 59.3282C92.8864 58.5887 92.287 57.9893 91.5477 57.9893Z"
    fill="#00308D"
  />
<path
    d="M91.5477 66.6689H25.5341C24.7947 66.6689 24.1953 67.2684 24.1953 68.0079C24.1953 68.7473 24.7947 69.3468 25.5341 69.3468H91.5477C92.287 69.3468 92.8864 68.7473 92.8864 68.0079C92.8864 67.2684 92.287 66.6689 91.5477 66.6689Z"
    fill="#00308D"
  />
<path
    d="M91.5477 75.3486H25.5341C24.7947 75.3486 24.1953 75.9481 24.1953 76.6876C24.1953 77.427 24.7947 78.0265 25.5341 78.0265H91.5477C92.287 78.0265 92.8864 77.427 92.8864 76.6876C92.8864 75.9481 92.287 75.3486 91.5477 75.3486Z"
    fill="#00308D"
  />
<path
    d="M62.3553 69.975C69.6206 62.7088 69.6206 50.9279 62.3553 43.6617C55.0901 36.3954 43.3108 36.3954 36.0455 43.6617C28.7803 50.9279 28.7803 62.7088 36.0455 69.975C43.3108 77.2413 55.0901 77.2413 62.3553 69.975ZM61.0496 68.6692C54.5055 75.2142 43.8954 75.2142 37.3512 68.6692C30.8071 62.1241 30.8071 51.5126 37.3512 44.9676C43.8954 38.4225 54.5055 38.4225 61.0496 44.9676C67.5938 51.5126 67.5938 62.1241 61.0496 68.6692Z"
    fill="white"
  />
<path d="M62.4529 68.5714L61.0166 70.0078L89.0238 98.0188L90.4601 96.5823L62.4529 68.5714Z" fill="white" />
<path
    fill-rule="evenodd"
    clip-rule="evenodd"
    d="M67.4146 77.974L70.4177 74.9705L81.2341 84.4825L91.2436 95.7992L88.2404 98.8027L76.9253 88.7919L67.4146 77.974Z"
    fill="white"
  />
<path
    fill-rule="evenodd"
    clip-rule="evenodd"
    d="M60.1025 71.9668L64.4113 67.6574L64.5419 70.6609L63.1056 72.0974L60.1025 71.9668Z"
    fill="white"
  />
<path
    d="M53.1799 60.971H44.8833L43.1949 65.9304H39.6143L47.4014 44.6924H50.7491L58.4489 65.9304H54.8537L53.1799 60.971ZM45.8925 57.9892H52.1707L49.0971 48.94H49.0097L45.8925 57.9892Z"
    fill="white"
  />
<defs>
<linearGradient id="paint0_linear" x1="58.4028" y1="8.12598" x2="58.4028" y2="126.782" gradientUnits="userSpaceOnUse">
<stop stop-color="#8400DB" />
<stop offset="1" stop-color="#4D00B4" />
</linearGradient>
<linearGradient id="paint1_linear" x1="58.4494" y1="131.676" x2="58.4494" y2="24.4697" gradientUnits="userSpaceOnUse">
<stop stop-color="#3DBEFF" />
<stop offset="1" stop-color="#00AAFF" />
</linearGradient>
</defs>
</svg>
