<svg viewBox="0 0 117 135" fill="none" xmlns="http://www.w3.org/2000/svg" preserveAspectRatio="xMidYMid meet">
<path
    fill-rule="evenodd"
    clip-rule="evenodd"
    d="M58.4137 0L116.827 33.75V101.25L58.4137 135L0 101.25V33.75L58.4137 0Z"
    fill="#CDDEFF"
  />
<mask id="mask0" mask-type="alpha" maskUnits="userSpaceOnUse" x="7" y="8" width="103" height="119">
<path d="M58.3671 8.12598L109.709 37.79V97.1179L58.3671 126.782L7.02539 97.1179V37.79L58.3671 8.12598Z" fill="white" />
</mask>
<g mask="url(#mask0)">
<path
      d="M58.3671 8.12598L109.709 37.79V97.1179L58.3671 126.782L7.02539 97.1179V37.79L58.3671 8.12598Z"
      fill="url(#paint0_linear)"
    />
<path d="M107.963 101.02H13.293V131.676H107.963V101.02Z" fill="#9013FE" />
<path
      fill-rule="evenodd"
      clip-rule="evenodd"
      d="M42.5277 6.18652L32.3008 63.8986H84.3418L74.1099 6.18652H42.5277Z"
      fill="white"
      fill-opacity="0.178568"
    />
</g>
<mask id="mask1" mask-type="alpha" maskUnits="userSpaceOnUse" x="7" y="8" width="103" height="119">
<path d="M58.3671 8.12598L109.709 37.79V97.1179L58.3671 126.782L7.02539 97.1179V37.79L58.3671 8.12598Z" fill="white" />
</mask>
<g mask="url(#mask1)">
<path
      d="M58.3671 8.12598L109.709 37.79V97.1179L58.3671 126.782L7.02539 97.1179V37.79L58.3671 8.12598Z"
      fill="#0043C5"
    />
<path
      fill-rule="evenodd"
      clip-rule="evenodd"
      d="M58.4132 22.7148L97.1692 45.1071V89.8917L58.4132 112.284L19.6572 89.8917V45.1071L58.4132 22.7148Z"
      fill="#00308D"
    />
<path d="M97.2603 81.6279H19.4756V174.706H97.2603V81.6279Z" fill="white" />
<path
      d="M87.0561 95.623H29.6786C29.0374 95.623 28.5176 96.1432 28.5176 96.7849C28.5176 97.4265 29.0374 97.9467 29.6786 97.9467H87.0561C87.6973 97.9467 88.2171 97.4265 88.2171 96.7849C88.2171 96.1432 87.6973 95.623 87.0561 95.623Z"
      fill="#00308D"
    />
<path
      d="M87.0561 88.0918H29.6786C29.0374 88.0918 28.5176 88.612 28.5176 89.2536C28.5176 89.8953 29.0374 90.4154 29.6786 90.4154H87.0561C87.6973 90.4154 88.2171 89.8953 88.2171 89.2536C88.2171 88.612 87.6973 88.0918 87.0561 88.0918Z"
      fill="#00308D"
    />
<path
      d="M87.0561 103.155H29.6786C29.0374 103.155 28.5176 103.675 28.5176 104.317C28.5176 104.959 29.0374 105.479 29.6786 105.479H87.0561C87.6973 105.479 88.2171 104.959 88.2171 104.317C88.2171 103.675 87.6973 103.155 87.0561 103.155Z"
      fill="#00308D"
    />
<path
      d="M87.0561 110.688H29.6786C29.0374 110.688 28.5176 111.208 28.5176 111.849C28.5176 112.491 29.0374 113.011 29.6786 113.011H87.0561C87.6973 113.011 88.2171 112.491 88.2171 111.849C88.2171 111.208 87.6973 110.688 87.0561 110.688Z"
      fill="#00308D"
    />
<path
      d="M87.0561 118.219H29.6786C29.0374 118.219 28.5176 118.739 28.5176 119.381C28.5176 120.022 29.0374 120.542 29.6786 120.542H87.0561C87.6973 120.542 88.2171 120.022 88.2171 119.381C88.2171 118.739 87.6973 118.219 87.0561 118.219Z"
      fill="#00308D"
    />
<path
      d="M87.0561 125.751H29.6786C29.0374 125.751 28.5176 126.271 28.5176 126.913C28.5176 127.554 29.0374 128.075 29.6786 128.075H87.0561C87.6973 128.075 88.2171 127.554 88.2171 126.913C88.2171 126.271 87.6973 125.751 87.0561 125.751Z"
      fill="#00308D"
    />
<path
      fill-rule="evenodd"
      clip-rule="evenodd"
      d="M33.8701 7.01758H82.9585V89.1995L58.5174 75.3486L33.8701 89.1995V7.01758Z"
      fill="#24B5FF"
    />
<path
      fill-rule="evenodd"
      clip-rule="evenodd"
      d="M36.7559 18.2832H37.5059V87.1625L36.7559 87.5824V18.2832Z"
      fill="#00308D"
    />
<path
      fill-rule="evenodd"
      clip-rule="evenodd"
      d="M79.4141 18.2832H80.1641V87.6115L79.4141 87.1866V18.2832Z"
      fill="#00308D"
    />
</g>
<path
    d="M66.5232 50.7477L61.6577 45.8786L66.5232 41.0096C67.1202 40.4121 67.1202 39.443 66.5232 38.8455L65.442 37.7635C64.8449 37.1661 63.8766 37.1661 63.2795 37.7635L58.4141 42.6326L53.5486 37.7635C52.9516 37.1661 51.9832 37.1661 51.3862 37.7635L50.305 38.8455C49.7079 39.443 49.7079 40.4121 50.305 41.0096L55.1704 45.8786L50.305 50.7477C49.7079 51.3451 49.7079 52.3142 50.305 52.9117L51.3862 53.9937C51.9832 54.5912 52.9516 54.5912 53.5486 53.9937L58.4141 49.1246L63.2795 53.9937C63.8766 54.5912 64.8449 54.5912 65.442 53.9937L66.5232 52.9117C67.1202 52.3142 67.1202 51.3451 66.5232 50.7477Z"
    fill="white"
  />
<defs>
<linearGradient id="paint0_linear" x1="58.3671" y1="8.12598" x2="58.3671" y2="126.782" gradientUnits="userSpaceOnUse">
<stop stop-color="#8400DB" />
<stop offset="1" stop-color="#4D00B4" />
</linearGradient>
</defs>
</svg>
