<svg viewBox="0 0 150 163" fill="none" xmlns="http://www.w3.org/2000/svg" preserveAspectRatio="xMidYMid meet">
<path
    d="M74.726 162.883C115.996 162.883 149.452 129.51 149.452 88.3429C149.452 47.1755 115.996 13.8027 74.726 13.8027C33.456 13.8027 0 47.1755 0 88.3429C0 129.51 33.456 162.883 74.726 162.883Z"
    fill="#5FCAFF"
  />
<path
    d="M36.2832 118.959V116.379C36.2832 114.66 37.6804 113.266 39.404 113.266H70.9057V92.1133H76.8608V113.266H108.224C109.948 113.266 111.345 114.66 111.345 116.379V118.959H114.166V132.049H111.345V153.335C100.523 159.415 88.0306 162.884 74.7257 162.884C60.6669 162.884 47.5148 159.011 36.2832 152.276V132.049H33.0979V118.959H36.2832Z"
    fill="white"
  />
<path
    fill-rule="evenodd"
    clip-rule="evenodd"
    d="M98.8643 55.6241L106.296 97.5746L95.9492 99.3906C91.8072 108.248 84.9195 114.509 76.3344 116.016C67.7494 117.522 59.1254 113.983 52.1897 107.07L41.8233 108.89L34.3918 66.9413L30.618 67.6036L27.6036 50.5883L33.7098 49.5166C35.7626 35.6269 44.5542 26.4857 56.3606 23.1733L55.9041 16.1668C54.3218 15.5266 53.0943 14.1123 52.7751 12.3108C52.2824 9.52917 54.1417 6.87781 56.9281 6.38879C59.7146 5.89977 62.3729 7.75827 62.8656 10.5399C63.1824 12.3282 62.527 14.0627 61.2781 15.2033L63.2566 21.9419C75.5454 20.958 86.8923 26.5736 93.5591 39.0108L99.8249 37.9112L102.839 54.9265L98.8643 55.6241Z"
    fill="white"
  />
<path
    d="M109.854 126.915C116.375 126.384 119.821 123.72 119.821 118.973C119.821 117.94 119.601 116.879 119.179 115.673C118.877 114.814 118.695 114.391 117.842 112.495C116.391 109.271 115.881 107.558 116.03 105.511C116.226 102.825 117.801 100.182 121.24 97.3364L120.178 96.0605C116.415 99.1754 114.604 102.213 114.372 105.39C114.274 106.732 114.456 108.072 114.883 109.508C115.207 110.594 115.592 111.546 116.325 113.174C117.155 115.017 117.33 115.425 117.609 116.22C117.975 117.264 118.158 118.149 118.158 118.973C118.158 122.715 115.469 124.795 109.719 125.263L109.854 126.915Z"
    fill="black"
  />
<path d="M112.262 121.316H104.364V129.607H112.262V121.316Z" fill="#00AAFF" />
<path
    fill-rule="evenodd"
    clip-rule="evenodd"
    d="M132.828 81.9411C127.363 83.9592 124.118 89.7372 125.458 95.5225C126.798 101.308 132.257 105.084 138.057 104.51L138.39 105.951C131.311 107.579 124.246 103.172 122.609 96.1071C120.972 89.0419 125.384 81.9941 132.463 80.3654L132.828 81.9411Z"
    fill="white"
  />
<path
    fill-rule="evenodd"
    clip-rule="evenodd"
    d="M133.868 104.227C135.057 104.448 136.642 104.566 138.048 104.473L138.391 105.953C137.317 106.2 140.211 106.308 134.319 106.201L133.868 104.227ZM129.254 84.0488L128.751 81.8463C129.878 81.1841 131.125 80.6801 132.467 80.3711L132.832 81.9466C131.673 82.3748 130.613 82.9724 129.676 83.7035C129.533 83.8155 129.392 83.9307 129.254 84.0488Z"
    fill="black"
  />
<path
    d="M122.72 99.0672C124.509 98.6557 125.624 96.8749 125.21 95.0897C124.797 93.3046 123.011 92.191 121.223 92.6025C119.434 93.014 118.319 94.7948 118.732 96.58C119.146 98.3652 120.931 99.4787 122.72 99.0672Z"
    fill="white"
  />
<path
    d="M121.692 97.1098C122.363 96.9554 122.781 96.2876 122.626 95.6182C122.471 94.9487 121.801 94.5311 121.13 94.6854C120.459 94.8397 120.041 95.5076 120.196 96.177C120.351 96.8465 121.021 97.2641 121.692 97.1098Z"
    fill="black"
  />
<path
    fill-rule="evenodd"
    clip-rule="evenodd"
    d="M38.1308 153.341V118.491C38.1308 116.771 39.528 115.377 41.2516 115.377H106.094C107.817 115.377 109.214 116.771 109.214 118.491V154.481C98.8967 159.845 87.1666 162.877 74.7266 162.877C61.4312 162.877 48.9468 159.413 38.1307 153.341L38.1308 153.341Z"
    fill="#0043C5"
  />
<path
    d="M62.5006 137.856C55.4621 133.053 49.6828 132.088 45.2768 135.151C40.7731 138.281 36.1497 140.116 32.6893 139.457C29.2964 138.81 26.9271 135.432 27.8957 132.296C29.4255 127.345 32.5572 125.413 37.5707 126.319L37.8825 124.601C31.9922 123.537 28.0126 125.992 26.2236 131.782C24.9303 135.969 27.9953 140.34 32.3612 141.171C34.5996 141.597 37.1462 141.177 39.8975 140.085C42.0522 139.23 44.2433 137.996 46.277 136.583C49.9684 134.017 55.0089 134.859 61.5127 139.297L62.5006 137.856Z"
    fill="black"
  />
<path d="M38.1641 121.316H34.9772V129.607H38.1641V121.316Z" fill="#00AAFF" />
<path d="M54.0657 119.598H44.2277V129.408H54.0657V119.598Z" fill="white" />
<path d="M66.8133 119.598H56.9752V129.408H66.8133V119.598Z" fill="white" />
<path d="M79.0073 119.598H69.1692V129.408H79.0073V119.598Z" fill="white" />
<path d="M91.2006 119.598H81.3625V129.408H91.2006V119.598Z" fill="white" />
<path d="M103.395 119.598H93.5565V129.408H103.395V119.598Z" fill="white" />
<path d="M103.395 115.314H43.9504V117.802H103.395V115.314Z" fill="black" />
<path
    d="M48.7752 121.545H49.6814L52.2171 127.414H51.0199L50.4712 126.071H47.9188L47.3867 127.414H46.2145L48.7752 121.545ZM50.1054 125.176L49.1992 122.788L48.2763 125.176H50.1054Z"
    fill="black"
  />
<path
    d="M59.9227 121.545H62.2174C62.4391 121.545 62.658 121.571 62.8742 121.624C63.0903 121.676 63.2829 121.762 63.452 121.881C63.621 122 63.7582 122.153 63.8635 122.341C63.9688 122.529 64.0215 122.755 64.0215 123.021C64.0215 123.352 63.9273 123.626 63.7388 123.841C63.5504 124.057 63.3037 124.212 62.9989 124.306V124.322C63.3702 124.372 63.6751 124.516 63.9134 124.753C64.1517 124.991 64.2709 125.309 64.2709 125.707C64.2709 126.027 64.2072 126.297 64.0797 126.515C63.9522 126.733 63.7845 126.909 63.5767 127.041C63.3688 127.174 63.1305 127.269 62.8617 127.327C62.5929 127.385 62.3199 127.414 62.0428 127.414H59.9227V121.545ZM60.9703 123.932H61.9014C62.2506 123.932 62.5167 123.863 62.6996 123.725C62.8825 123.587 62.9739 123.391 62.9739 123.137C62.9739 122.871 62.8797 122.683 62.6913 122.573C62.5028 122.462 62.2091 122.407 61.81 122.407H60.9703V123.932ZM60.9703 126.536H61.9098C62.0428 126.536 62.1869 126.526 62.3421 126.507C62.4973 126.487 62.64 126.447 62.7702 126.386C62.9005 126.326 63.0086 126.237 63.0945 126.121C63.1804 126.005 63.2234 125.85 63.2234 125.657C63.2234 125.347 63.118 125.132 62.9074 125.01C62.6968 124.889 62.3781 124.828 61.9513 124.828H60.9703V126.536Z"
    fill="black"
  />
<path
    d="M75.884 122.926C75.7288 122.716 75.5265 122.562 75.2771 122.466C75.0277 122.369 74.7838 122.321 74.5455 122.321C74.2406 122.321 73.9635 122.376 73.7141 122.486C73.4647 122.597 73.2499 122.749 73.0697 122.942C72.8896 123.136 72.751 123.362 72.654 123.622C72.557 123.882 72.5086 124.164 72.5086 124.468C72.5086 124.788 72.5557 125.081 72.6499 125.346C72.7441 125.612 72.8785 125.84 73.0531 126.03C73.2277 126.221 73.4369 126.369 73.6808 126.474C73.9247 126.579 74.1991 126.631 74.5039 126.631C74.8198 126.631 75.0997 126.569 75.3436 126.445C75.5875 126.321 75.7843 126.156 75.9339 125.952L76.7736 126.54C76.5131 126.866 76.1944 127.119 75.8175 127.299C75.4406 127.478 75 127.568 74.4956 127.568C74.0356 127.568 73.6129 127.492 73.2277 127.34C72.8425 127.188 72.5113 126.976 72.2342 126.702C71.9571 126.428 71.7409 126.102 71.5857 125.724C71.4305 125.345 71.3529 124.926 71.3529 124.468C71.3529 123.998 71.4347 123.574 71.5982 123.195C71.7617 122.817 71.9862 122.495 72.2716 122.229C72.5571 121.964 72.8938 121.76 73.2818 121.616C73.6697 121.472 74.091 121.4 74.5455 121.4C74.7339 121.4 74.9307 121.418 75.1358 121.454C75.3409 121.49 75.5376 121.545 75.7261 121.62C75.9145 121.695 76.0919 121.787 76.2582 121.898C76.4244 122.008 76.5658 122.141 76.6822 122.296L75.884 122.926Z"
    fill="black"
  />
<path
    d="M83.8234 121.545H85.9101C86.2926 121.545 86.6778 121.595 87.0658 121.694C87.4538 121.794 87.8029 121.958 88.1133 122.187C88.4237 122.417 88.6759 122.718 88.8699 123.091C89.0639 123.464 89.1609 123.927 89.1609 124.48C89.1609 124.994 89.0639 125.436 88.8699 125.806C88.6759 126.176 88.4237 126.48 88.1133 126.718C87.8029 126.956 87.4538 127.131 87.0658 127.244C86.6778 127.358 86.2926 127.414 85.9101 127.414H83.8234V121.545ZM85.7439 126.502C86.0155 126.502 86.287 126.471 86.5586 126.407C86.8302 126.344 87.0755 126.236 87.2944 126.084C87.5133 125.932 87.6921 125.726 87.8307 125.466C87.9692 125.206 88.0385 124.878 88.0385 124.48C88.0385 124.06 87.9692 123.717 87.8307 123.452C87.6921 123.186 87.5133 122.979 87.2944 122.83C87.0755 122.681 86.8302 122.578 86.5586 122.523C86.287 122.468 86.0155 122.44 85.7439 122.44H84.8709V126.502H85.7439Z"
    fill="black"
  />
<path
    d="M96.6577 121.545H100.557V122.457H97.7053V123.949H100.407V124.828H97.7053V126.486H100.707V127.414H96.6577V121.545Z"
    fill="black"
  />
<path d="M76.5132 108.744H70.832V115.376H76.5132V108.744Z" fill="black" />
<path d="M97.8921 40.384L90.1201 41.748L92.3868 54.5433L100.159 53.1792L97.8921 40.384Z" fill="#CDDEFF" />
<path d="M37.9866 50.9211L30.2146 52.2852L32.4813 65.0804L40.2533 63.7163L37.9866 50.9211Z" fill="#CDDEFF" />
<path
    fill-rule="evenodd"
    clip-rule="evenodd"
    d="M96.202 53.8988C92.1648 31.1094 76.7749 21.4688 60.2378 24.3712C43.7007 27.2736 32.2787 41.6199 36.3159 64.4093L96.202 53.8988Z"
    fill="#0043C5"
    stroke="#979797"
    stroke-width="0.95"
  />
<path
    fill-rule="evenodd"
    clip-rule="evenodd"
    d="M40.579 79.0611C44.4027 100.645 60.1748 115.918 75.8069 113.174C91.4391 110.431 101.012 90.71 97.1879 69.1263L40.579 79.0611Z"
    fill="#0043C5"
  />
<path
    fill-rule="evenodd"
    clip-rule="evenodd"
    d="M46.3263 79.7368C49.4173 97.1843 62.1525 109.533 74.7712 107.318C87.3899 105.104 95.1137 89.1646 92.0227 71.7172L46.3263 79.7368Z"
    fill="black"
  />
<path
    fill-rule="evenodd"
    clip-rule="evenodd"
    d="M56.9351 13.2129L59.252 12.8061L62.8972 27.0411L58.3997 27.8307L56.9351 13.2129Z"
    fill="#00AAFF"
  />
<path d="M96.1789 53.8676L36.296 64.377L43.6055 105.637L103.488 95.1271L96.1789 53.8676Z" fill="#00AAFF" />
<path
    fill-rule="evenodd"
    clip-rule="evenodd"
    d="M72.6128 94.3548L77.2727 98.0303L69.497 99.395L72.6128 94.3548Z"
    fill="white"
  />
<path d="M97.1779 92.8414L48.7368 101.355L49.316 104.63L97.7571 96.1154L97.1779 92.8414Z" fill="#CDDEFF" />
<path
    d="M80.5174 61.8321C86.9577 60.7019 91.2552 54.5741 90.1162 48.1453C88.9772 41.7165 82.833 37.4211 76.3928 38.5513C69.9525 39.6815 65.655 45.8093 66.794 52.2381C67.933 58.6669 74.0772 62.9623 80.5174 61.8321Z"
    fill="white"
  />
<path
    d="M83.8895 57.4484C86.0739 57.0651 87.5315 54.9866 87.1452 52.8061C86.7589 50.6256 84.6749 49.1687 82.4905 49.552C80.3061 49.9353 78.8485 52.0138 79.2348 54.1943C79.6211 56.3748 81.7051 57.8317 83.8895 57.4484Z"
    fill="black"
  />
<path d="M88.7131 52.1058L78.2061 53.9531L78.3506 54.7708L88.8577 52.9235L88.7131 52.1058Z" fill="white" />
<path
    d="M54.1808 66.4629C60.621 65.3328 64.9186 59.205 63.7796 52.7762C62.6406 46.3473 56.4964 42.052 50.0561 43.1821C43.6159 44.3123 39.3184 50.4401 40.4574 56.8689C41.5964 63.2977 47.7405 67.5931 54.1808 66.4629Z"
    fill="white"
  />
<path
    d="M57.5528 62.0793C59.7372 61.696 61.1949 59.6175 60.8085 57.437C60.4222 55.2564 58.3382 53.7995 56.1538 54.1829C53.9694 54.5662 52.5118 56.6446 52.8981 58.8252C53.2844 61.0057 55.3684 62.4626 57.5528 62.0793Z"
    fill="black"
  />
<path d="M62.3757 56.7367L51.8687 58.584L52.0132 59.4016L62.5203 57.5543L62.3757 56.7367Z" fill="white" />
<path
    d="M70.3553 81.576C74.612 80.8283 77.4534 76.7789 76.7016 72.5316C75.9498 68.2842 71.8896 65.4472 67.6329 66.1949C63.3762 66.9427 60.5348 70.992 61.2866 75.2394C62.0384 79.4868 66.0986 82.3238 70.3553 81.576Z"
    fill="white"
    stroke="white"
    stroke-width="3.8"
  />
<path
    d="M69.7535 78.1701C72.1267 77.7533 73.7108 75.4956 73.2917 73.1276C72.8725 70.7596 70.6089 69.1779 68.2357 69.5948C65.8625 70.0117 64.2784 72.2693 64.6975 74.6373C65.1166 77.0053 67.3803 78.587 69.7535 78.1701Z"
    fill="black"
  />
<path
    d="M58.3862 14.649C60.2321 14.3248 61.4641 12.5689 61.1382 10.7271C60.8122 8.88528 59.0516 7.65507 57.2057 7.97931C55.3599 8.30356 54.1278 10.0595 54.4538 11.9013C54.7798 13.743 56.5404 14.9733 58.3862 14.649Z"
    fill="black"
  />
<path
    d="M57.8835 11.6823C58.1096 11.6426 58.2604 11.4276 58.2205 11.2021C58.1806 10.9765 57.965 10.8259 57.739 10.8656C57.5129 10.9053 57.3621 11.1203 57.402 11.3459C57.4419 11.5714 57.6575 11.722 57.8835 11.6823Z"
    fill="white"
  />
<path d="M42.0749 97.9046L102.39 87.2953L102.534 88.1133L42.2195 98.7227L42.0749 97.9046Z" fill="black" />
<path
    fill-rule="evenodd"
    clip-rule="evenodd"
    d="M80.4905 138.032C75.3758 135.241 68.8734 136.587 65.3752 141.391C61.8771 146.194 62.6026 152.78 66.844 156.77L65.9727 157.967C60.0935 153.705 58.7907 145.495 63.0628 139.629C67.3349 133.763 75.5641 132.462 81.4433 136.724L80.4905 138.032Z"
    fill="white"
  />
<path
    fill-rule="evenodd"
    clip-rule="evenodd"
    d="M64.3111 153.43C64.9247 154.471 65.8761 155.742 66.8701 156.74L65.9755 157.968C65.083 157.321 66.9016 159.572 63.1138 155.065L64.3111 153.43ZM76.5509 136.72L77.8869 134.897C79.1283 135.311 80.3282 135.92 81.4435 136.728L80.491 138.036C79.4056 137.444 78.2577 137.038 77.0894 136.812C76.9103 136.777 76.7308 136.747 76.5509 136.72Z"
    fill="black"
  />
<path
    d="M60.9018 141.649C62.3872 142.725 64.4664 142.397 65.5459 140.915C66.6253 139.432 66.2961 137.358 64.8106 136.281C63.3252 135.205 61.2459 135.534 60.1665 137.016C59.0871 138.498 59.4163 140.572 60.9018 141.649Z"
    fill="white"
  />
<path
    d="M61.7092 139.593C62.2662 139.997 63.0459 139.874 63.4507 139.318C63.8555 138.762 63.732 137.984 63.175 137.581C62.618 137.177 61.8383 137.3 61.4335 137.856C61.0287 138.412 61.1521 139.19 61.7092 139.593Z"
    fill="black"
  />
</svg>
