<svg xmlns="http://www.w3.org/2000/svg" viewBox="0 0 150 150"><defs><style
    >.a{fill:#7bc8f9;}.a,.b,.c,.d{fill-rule:evenodd;}.b,.f{fill:#fff;}.c{fill:#4aa8f7;}.d,.e{fill:#1746bd;}</style></defs><title
  >linguo new</title><path
    class="a"
    d="M110.82,85.49h0a.81.81,0,0,1,0,.16Zm-.71-4.34,0,.3h0Zm-47-23.91c-1.05-2-4.35-5.55-9.26-4.71a8.51,8.51,0,0,0-7.25,7.68,1.31,1.31,0,0,0,1.22,1.38h.09a1.31,1.31,0,0,0,1.3-1.22,5.93,5.93,0,0,1,5.08-5.27c4.25-.73,6.42,3.19,6.51,3.36a1.31,1.31,0,0,0,2.31-1.23Zm27.8-5.37c-1.06-2-4.35-5.55-9.26-4.71a8.51,8.51,0,0,0-7.25,7.68,1.32,1.32,0,0,0,1.22,1.39h.09A1.3,1.3,0,0,0,77,55a6.47,6.47,0,0,1,.74-2.33,5.76,5.76,0,0,1,4.34-2.94c4.25-.73,6.42,3.19,6.51,3.36a1.31,1.31,0,1,0,2.31-1.23ZM75,9a69.36,69.36,0,0,0-8.7.54A6,6,0,0,1,64.67,12L67,20c1.09-.08,2.17-.13,3.25-.13,13.31,0,25.38,6.73,32.7,20.41a64.1,64.1,0,0,1,5.39,15.37c4.22-.22,8.11,3.41,8.86,8.43.71,4.77-1.66,9.17-5.41,10.47L114,87.23a3.26,3.26,0,0,1-2.24,3.68A212.91,212.91,0,0,1,41,104.32a3.15,3.15,0,0,1-3.3-2.59L35.35,88.35A8.28,8.28,0,0,1,34,88.28c-4.48-.67-7.47-5.5-6.68-10.78A10.17,10.17,0,0,1,32.25,70c-.48-3.91-1.1-10.32-.66-14.93,0-.21,0-.41.06-.61.07-.61.17-1.18.28-1.71,2.45-16.52,12.89-27.39,26.9-31.34l-.54-8.33a6,6,0,0,1-2.22-1.55h0A69.8,69.8,0,0,0,28.76,131.17C35.49,121,44.12,115.8,49.3,118.79l.2.12a28.23,28.23,0,0,1,11.3-9.75A49.71,49.71,0,0,1,82,104.61a49.23,49.23,0,0,1,23.09,5.49,49.21,49.21,0,0,1,3.55-7.48,41.66,41.66,0,0,1,11.1-12.93c4.33-3.1,8.3-3.89,11.2-2.22s4.2,5.5,3.67,10.8A42,42,0,0,1,129,114.36a42.93,42.93,0,0,1-10.47,12.45,26,26,0,0,1,1,5.84A69.8,69.8,0,0,0,75,9Zm6.92,63.25a1.3,1.3,0,0,0-1.84,0,13.92,13.92,0,0,1-6.76,2.91,17.39,17.39,0,0,1-7.92-.34,1.31,1.31,0,1,0-.87,2.47A18,18,0,0,0,70,78a21.67,21.67,0,0,0,3.76-.33,16.35,16.35,0,0,0,8.11-3.59A1.31,1.31,0,0,0,81.92,72.21Zm4.84-45.63a17.77,17.77,0,0,1-2.78,9,75.14,75.14,0,0,1,15.18,3.24A35.43,35.43,0,0,0,86.76,26.58ZM47.7,143.09l-.41-.18.43.19Zm.25-22a3.85,3.85,0,0,0-2-.49c-4.16,0-10.37,5-15.11,12.25l0,0a70.22,70.22,0,0,0,13.69,8.73v-6.58a28.81,28.81,0,0,1,3.57-13.86Z"
  /><path
    class="b"
    d="M48.86,41.67a66.18,66.18,0,0,0-14,9.52,35.37,35.37,0,0,1,8.87-18A18.2,18.2,0,0,0,48.86,41.67Z"
  /><path
    class="b"
    d="M99.16,38.85A75.14,75.14,0,0,0,84,35.61a17.77,17.77,0,0,0,2.78-9A35.43,35.43,0,0,1,99.16,38.85Z"
  /><path
    class="b"
    d="M117.22,64c-.75-5-4.64-8.65-8.86-8.43A64.1,64.1,0,0,0,103,40.24c-7.32-13.68-19.39-20.41-32.7-20.41-1.08,0-2.16.05-3.25.13l-2.35-8A6,6,0,0,0,66.3,9.5a6.08,6.08,0,1,0-10.53,1.69,3.37,3.37,0,0,0,.3.36h0a6,6,0,0,0,2.22,1.55l.54,8.33c-14,3.95-24.45,14.82-26.9,31.34-.11.53-.21,1.1-.28,1.71,0,.2,0,.4-.06.61-.44,4.61.18,11,.66,14.93a10.17,10.17,0,0,0-4.89,7.48c-.79,5.28,2.2,10.11,6.68,10.78a8.28,8.28,0,0,0,1.31.07l2.35,13.38a3.15,3.15,0,0,0,3.3,2.59,212.91,212.91,0,0,0,70.8-13.41A3.26,3.26,0,0,0,114,87.23l-2.23-12.72C115.56,73.21,117.93,68.81,117.22,64ZM99.16,38.85A75.14,75.14,0,0,0,84,35.61a17.77,17.77,0,0,0,2.78-9A35.43,35.43,0,0,1,99.16,38.85ZM60.87,23.4,59.66,11.25a3.81,3.81,0,0,1-1-.37h0a4,4,0,1,1,4-.16l3,11.81A34.37,34.37,0,0,1,84.06,25.2c.18,1.16.44,5.16-3,10.16a66.25,66.25,0,0,0-16.29.9,58.47,58.47,0,0,0-13.34,4.2C46.45,36.06,46,31.66,46,31A34.94,34.94,0,0,1,60.87,23.4ZM43.72,33.16a18.2,18.2,0,0,0,5.14,8.51,66.18,66.18,0,0,0-14,9.52A35.37,35.37,0,0,1,43.72,33.16Zm67.08,53s0,.09,0,.14a3.75,3.75,0,0,1-2.21,2.93,6,6,0,0,1-.72.3h0a193.15,193.15,0,0,1-18.9,5.75,208.82,208.82,0,0,1-23.71,4.49,160.89,160.89,0,0,1-21.67,1.55h-.47l-.15,0-.23,0-.22,0-.21-.07-.21-.08-.21-.1-.14-.07-.11-.06-.1-.07-.12-.08-.2-.14-.29-.26a2.5,2.5,0,0,1-.22-.24l-.07-.09-.07-.09-.1-.14a1.4,1.4,0,0,1-.1-.16l-.06-.1a.91.91,0,0,1-.07-.14,2,2,0,0,1-.1-.21l0-.09a.56.56,0,0,1,0-.12.36.36,0,0,1,0-.11l-.06-.21v0a2,2,0,0,1,0-.26l-.62-3.55a380.63,380.63,0,0,0,37.88-5.08c18.19-3.35,29.13-6.81,33-8.16l0-.3,0,.3.58,3.33a4.15,4.15,0,0,1,.07.7h0v.16C110.82,85.81,110.81,86,110.8,86.12Zm.47-14.66a5.17,5.17,0,0,1-1.18.34,4.82,4.82,0,0,1-1.61,0l.54,3.12.67,3.83,0,0c-1.77.62-6.49,2.19-14.11,4.1-5,1.27-11.35,2.69-18.91,4.08-13.14,2.42-24.3,3.77-31.26,4.47-3.06.31-5.31.5-6.56.59h0L38,87.72l-.51-3a5,5,0,0,1-2.7.56l-.32,0c-3.07-.45-5.11-3.75-4.57-7.37a7.07,7.07,0,0,1,2.76-4.74h0a5.27,5.27,0,0,1,2.63-1L35,70.46c-.08-.44-.15-.88-.22-1.32a56.11,56.11,0,0,1-.53-13.78C36.55,53,48.13,42,65.2,38.83c18.33-3.38,34.56,3,35.9,3.52h0a55.68,55.68,0,0,1,4.65,13.91c.11.55.22,1.11.32,1.68l.25,1.43a4.75,4.75,0,0,1,1.82-.67,5.08,5.08,0,0,1,.87-.05c2.72.09,5.16,2.5,5.65,5.77S113.66,70.44,111.27,71.46Z"
  /><path
    class="b"
    d="M81.89,74.06a16.35,16.35,0,0,1-8.11,3.59A21.67,21.67,0,0,1,70,78a18,18,0,0,1-5.49-.77,1.31,1.31,0,1,1,.87-2.47,17.39,17.39,0,0,0,7.92.34,13.92,13.92,0,0,0,6.76-2.91,1.31,1.31,0,0,1,1.81,1.89Z"
  /><path
    class="b"
    d="M62.55,59a1.31,1.31,0,0,1-1.77-.54c-.09-.17-2.26-4.09-6.51-3.36a5.93,5.93,0,0,0-5.08,5.27,1.31,1.31,0,0,1-1.3,1.22H47.8a1.31,1.31,0,0,1-1.22-1.38,8.51,8.51,0,0,1,7.25-7.68c4.91-.84,8.21,2.72,9.26,4.71A1.31,1.31,0,0,1,62.55,59Z"
  /><path
    class="b"
    d="M90.35,53.64a1.31,1.31,0,0,1-1.77-.54c-.09-.17-2.26-4.09-6.51-3.36a5.76,5.76,0,0,0-4.34,2.94A6.47,6.47,0,0,0,77,55a1.3,1.3,0,0,1-1.3,1.22H75.6a1.32,1.32,0,0,1-1.22-1.39,8.51,8.51,0,0,1,7.25-7.68c4.91-.84,8.2,2.72,9.26,4.71A1.31,1.31,0,0,1,90.35,53.64Z"
  /><polygon class="b" points="110.16 81.45 110.16 81.45 110.11 81.16 110.16 81.45" /><path
    class="b"
    d="M110.82,85.65a.81.81,0,0,0,0-.16h0Z"
  /><path
    class="c"
    d="M48.86,41.67a66.18,66.18,0,0,0-14,9.52,35.37,35.37,0,0,1,8.87-18A18.2,18.2,0,0,0,48.86,41.67Z"
  /><path
    class="c"
    d="M99.16,38.85A75.14,75.14,0,0,0,84,35.61a17.77,17.77,0,0,0,2.78-9A35.43,35.43,0,0,1,99.16,38.85Z"
  /><path
    class="a"
    d="M114.66,64.42c-.49-3.27-2.93-5.68-5.65-5.77a5.08,5.08,0,0,0-.87.05,4.75,4.75,0,0,0-1.82.67l-.25-1.43c-.1-.57-.21-1.13-.32-1.68a55.68,55.68,0,0,0-4.65-13.91h0c-1.34-.55-17.57-6.9-35.9-3.52C48.13,42,36.55,53,34.27,55.36a56.11,56.11,0,0,0,.53,13.78c.07.44.14.88.22,1.32l.29,1.67a5.27,5.27,0,0,0-2.63,1h0a7.07,7.07,0,0,0-2.76,4.74c-.54,3.62,1.5,6.92,4.57,7.37l.32,0a5,5,0,0,0,2.7-.56l.51,3L38.77,92h0c1.25-.09,3.5-.28,6.56-.59,7-.7,18.12-2,31.26-4.47,7.56-1.39,13.87-2.81,18.91-4.08,7.62-1.91,12.34-3.48,14.11-4.1l0,0L109,74.88l-.54-3.12a4.82,4.82,0,0,0,1.61,0,5.17,5.17,0,0,0,1.18-.34C113.66,70.44,115.12,67.55,114.66,64.42ZM62.55,59a1.31,1.31,0,0,1-1.77-.54c-.09-.17-2.26-4.09-6.51-3.36a5.93,5.93,0,0,0-5.08,5.27,1.31,1.31,0,0,1-1.3,1.22H47.8a1.31,1.31,0,0,1-1.22-1.38,8.51,8.51,0,0,1,7.25-7.68c4.91-.84,8.21,2.72,9.26,4.71A1.31,1.31,0,0,1,62.55,59ZM81.89,74.06a16.35,16.35,0,0,1-8.11,3.59A21.67,21.67,0,0,1,70,78a18,18,0,0,1-5.49-.77,1.31,1.31,0,1,1,.87-2.47,17.39,17.39,0,0,0,7.92.34,13.92,13.92,0,0,0,6.76-2.91,1.31,1.31,0,0,1,1.81,1.89Zm8.46-20.42a1.31,1.31,0,0,1-1.77-.54c-.09-.17-2.26-4.09-6.51-3.36a5.76,5.76,0,0,0-4.34,2.94A6.47,6.47,0,0,0,77,55a1.3,1.3,0,0,1-1.3,1.22H75.6a1.32,1.32,0,0,1-1.22-1.39,8.51,8.51,0,0,1,7.25-7.68c4.91-.84,8.2,2.72,9.26,4.71A1.31,1.31,0,0,1,90.35,53.64Z"
  /><path
    class="c"
    d="M62.55,59a1.31,1.31,0,0,1-1.77-.54c-.09-.17-2.26-4.09-6.51-3.36a5.93,5.93,0,0,0-5.08,5.27,1.31,1.31,0,0,1-1.3,1.22H47.8a1.31,1.31,0,0,1-1.22-1.38,8.51,8.51,0,0,1,7.25-7.68c4.91-.84,8.21,2.72,9.26,4.71A1.31,1.31,0,0,1,62.55,59Z"
  /><path
    class="c"
    d="M90.35,53.64a1.31,1.31,0,0,1-1.77-.54c-.09-.17-2.26-4.09-6.51-3.36a5.76,5.76,0,0,0-4.34,2.94A6.47,6.47,0,0,0,77,55a1.3,1.3,0,0,1-1.3,1.22H75.6a1.32,1.32,0,0,1-1.22-1.39,8.51,8.51,0,0,1,7.25-7.68c4.91-.84,8.2,2.72,9.26,4.71A1.31,1.31,0,0,1,90.35,53.64Z"
  /><path
    class="d"
    d="M99.16,38.85A75.14,75.14,0,0,0,84,35.61a17.77,17.77,0,0,0,2.78-9A35.43,35.43,0,0,1,99.16,38.85Z"
  /><path
    class="d"
    d="M48.86,41.67a66.18,66.18,0,0,0-14,9.52,35.37,35.37,0,0,1,8.87-18A18.2,18.2,0,0,0,48.86,41.67Z"
  /><path class="c" d="M106.84,113.64a2.17,2.17,0,0,1-.07.24l-.2-.14a2.17,2.17,0,0,1,.07-.24Z" /><path
    class="c"
    d="M131.3,101.42A43,43,0,0,1,126.59,113a40.92,40.92,0,0,1-9,11,27.24,27.24,0,0,0-10-12.47,47.27,47.27,0,0,1,3.52-7.55,45,45,0,0,1,6.55-8.78A32.22,32.22,0,0,0,131.3,101.42Z"
  /><path
    class="c"
    d="M131.87,98c0,.28-.06.56-.1.85a30.15,30.15,0,0,1-12.24-5.45c.61-.53,1.23-1,1.85-1.46,2.32-1.67,4.48-2.55,6.24-2.55a3.81,3.81,0,0,1,1.95.48C131.44,90.94,132.28,93.91,131.87,98Z"
  /><path
    class="e"
    d="M131.87,98c0,.28-.06.56-.1.85a30.15,30.15,0,0,1-12.24-5.45c.61-.53,1.23-1,1.85-1.46,2.32-1.67,4.48-2.55,6.24-2.55a3.81,3.81,0,0,1,1.95.48C131.44,90.94,132.28,93.91,131.87,98Z"
  /><path
    class="f"
    d="M106.64,113.5a2.17,2.17,0,0,0-.07.24l.2.14a2.17,2.17,0,0,0,.07-.24Zm0,0a2.17,2.17,0,0,0-.07.24l.2.14a2.17,2.17,0,0,0,.07-.24Zm0,0a2.17,2.17,0,0,0-.07.24l.2.14a2.17,2.17,0,0,0,.07-.24Zm0,0a2.17,2.17,0,0,0-.07.24l.2.14a2.17,2.17,0,0,0,.07-.24Zm0,0a2.17,2.17,0,0,0-.07.24l.2.14a2.17,2.17,0,0,0,.07-.24Zm0,0a2.17,2.17,0,0,0-.07.24l.2.14a2.17,2.17,0,0,0,.07-.24Zm0,0a2.17,2.17,0,0,0-.07.24l.2.14a2.17,2.17,0,0,0,.07-.24Zm0,0a2.17,2.17,0,0,0-.07.24l.2.14a2.17,2.17,0,0,0,.07-.24Zm0,0a2.17,2.17,0,0,0-.07.24l.2.14a2.17,2.17,0,0,0,.07-.24Zm0,0a2.17,2.17,0,0,0-.07.24l.2.14a2.17,2.17,0,0,0,.07-.24Z"
  /><path
    class="c"
    d="M48.09,121.21a28.81,28.81,0,0,0-3.57,13.86v6.58a70.22,70.22,0,0,1-13.69-8.73l0,0c4.74-7.21,11-12.25,15.11-12.25a3.85,3.85,0,0,1,2,.49Z"
  /><path class="f" d="M47.7,143.09l-.41-.18.43.19Z" /><path class="f" d="M47.7,143.09l-.41-.18.43.19Z" /><path
    class="e"
    d="M50.42,144.18l-.37-.14-.62-.24-.55-.22Z"
  /><path class="e" d="M51.22,144.47l-.09,0-.26-.1Z" /><path class="e" d="M71.44,148.53l-1.76-.11Z" /><path
    class="e"
    d="M77.29,148.58c-.76,0-1.52,0-2.29,0-.58,0-1.17,0-1.75,0,.58,0,1.17,0,1.75,0C75.77,148.61,76.53,148.6,77.29,148.58Z"
  /><path class="e" d="M83.29,148.13c-1,.12-2,.21-3,.29C81.31,148.34,82.3,148.25,83.29,148.13Z" /><path
    class="e"
    d="M92.71,146.35c-.79.21-1.59.41-2.39.58C91.12,146.75,91.92,146.56,92.71,146.35Z"
  /><path
    class="e"
    d="M116.92,133.17v1.51l-.26.19-.08.07-.1.07h0c-.72.53-1.46,1.05-2.21,1.56l-.39.27-.35.23-.5.32-.6.39-.7.44-.51.31-.37.22-.53.32-1,.58-.56.31-.56.3-1,.52-.53.27-1.22.61-.61.29c-.41.2-.83.39-1.24.57s-.86.38-1.3.57l-.66.28-1.34.53-.68.26c-.67.25-1.35.5-2,.73l-.69.23-.69.22-.69.22-.7.21-.7.2-.7.2-.71.18c-.79.21-1.59.4-2.39.58h0l-1,.22-.92.18-.84.16-.52.09-.77.13-.74.11-.85.13-.56.07-.15,0-.65.08c-1,.12-2,.21-3,.29-.51,0-1,.07-1.52.09l-.74,0-.76,0c-.76,0-1.52,0-2.29,0-.58,0-1.17,0-1.75,0H73.1l-1.66-.06-1.76-.11-.85-.07h0l-.87-.09-.86-.09L65.76,148l-.55-.07-.74-.11-.66-.1-1.05-.18-.85-.16-.85-.16-.58-.12-.29-.06-.89-.2-.76-.18q-2.4-.58-4.74-1.32l-.18-.06-.7-.23-.55-.19c-.21-.06-.41-.14-.62-.21l-.53-.19-.35-.13-.35-.13-.1,0-1.54-.6-.31-.13-.06,0-.44-.18-.32-.14h0l-.41-.18h0l-.16-.06v-7.77a26.07,26.07,0,0,1,1.42-8.48l0-.08h0l.19-.54a26,26,0,0,1,1-2.42c.09-.19.18-.37.28-.56s.18-.35.28-.52l.24-.43c.07-.13.15-.26.23-.39s.18-.3.28-.45.18-.3.28-.45a26,26,0,0,1,10.53-9.24A47.11,47.11,0,0,1,82,107.2a46.38,46.38,0,0,1,22.25,5.4l.21.11.21.13h0l.79.48.79.52.21.14.21.15c.52.37,1,.77,1.53,1.19l.44.38.1.09a24.56,24.56,0,0,1,6.64,9.82l.09.23c0,.07,0,.15.08.23.1.29.2.59.29.89s.17.6.26.91a2,2,0,0,1,0,.24,2.17,2.17,0,0,1,.07.24A24.32,24.32,0,0,1,116.92,133.17Z"
  /><path
    class="c"
    d="M81,35.36a66.25,66.25,0,0,0-16.29.9,58.47,58.47,0,0,0-13.34,4.2C46.45,36.06,46,31.66,46,31A34.94,34.94,0,0,1,60.87,23.4L59.66,11.25a4,4,0,0,0,1.55,0,4,4,0,0,0,1.45-.56l3,11.81A34.37,34.37,0,0,1,84.06,25.2C84.24,26.36,84.5,30.36,81,35.36Z"
  /><path
    class="c"
    d="M110.82,85.49h0a.81.81,0,0,1,0,.16ZM81.92,72.21a1.3,1.3,0,0,0-1.84,0,13.92,13.92,0,0,1-6.76,2.91,17.39,17.39,0,0,1-7.92-.34,1.31,1.31,0,1,0-.87,2.47A18,18,0,0,0,70,78a21.67,21.67,0,0,0,3.76-.33,16.35,16.35,0,0,0,8.11-3.59A1.31,1.31,0,0,0,81.92,72.21Z"
  /><path
    class="d"
    d="M64.48,6.62a4,4,0,1,0-5.84,4.26h0a3.81,3.81,0,0,0,1,.37,4,4,0,0,0,1.55,0,4,4,0,0,0,1.45-.56,4.06,4.06,0,0,0,1.82-4.1ZM60.62,7.75a.48.48,0,0,1-.57-.4.49.49,0,1,1,.57.4Z"
  /><path
    class="c"
    d="M81.89,74.06a16.35,16.35,0,0,1-8.11,3.59A21.67,21.67,0,0,1,70,78a18,18,0,0,1-5.49-.77,1.31,1.31,0,1,1,.87-2.47,17.39,17.39,0,0,0,7.92.34,13.92,13.92,0,0,0,6.76-2.91,1.31,1.31,0,0,1,1.81,1.89Z"
  /><path
    class="f"
    d="M62.55,59a1.31,1.31,0,0,1-1.77-.54c-.09-.17-2.26-4.09-6.51-3.36a5.93,5.93,0,0,0-5.08,5.27,1.31,1.31,0,0,1-1.3,1.22H47.8a1.31,1.31,0,0,1-1.22-1.38,8.51,8.51,0,0,1,7.25-7.68c4.91-.84,8.21,2.72,9.26,4.71A1.31,1.31,0,0,1,62.55,59Z"
  /><path
    class="f"
    d="M90.35,53.64a1.31,1.31,0,0,1-1.77-.54c-.09-.17-2.26-4.09-6.51-3.36a5.76,5.76,0,0,0-4.34,2.94A6.47,6.47,0,0,0,77,55a1.3,1.3,0,0,1-1.3,1.22H75.6a1.32,1.32,0,0,1-1.22-1.39,8.51,8.51,0,0,1,7.25-7.68c4.91-.84,8.2,2.72,9.26,4.71A1.31,1.31,0,0,1,90.35,53.64Z"
  /><path
    class="f"
    d="M81.89,74.06a16.35,16.35,0,0,1-8.11,3.59A21.67,21.67,0,0,1,70,78a18,18,0,0,1-5.49-.77,1.31,1.31,0,1,1,.87-2.47,17.39,17.39,0,0,0,7.92.34,13.92,13.92,0,0,0,6.76-2.91,1.31,1.31,0,0,1,1.81,1.89Z"
  /><path class="f" d="M31.65,54.48c0,.2,0,.4-.06.61A1.28,1.28,0,0,1,31.65,54.48Z" /><path
    class="d"
    d="M110.82,85.65c0,.16,0,.32,0,.47s0,.09,0,.14a3.75,3.75,0,0,1-2.21,2.93,6,6,0,0,1-.72.3h0a193.15,193.15,0,0,1-18.9,5.75,208.82,208.82,0,0,1-23.71,4.49,160.89,160.89,0,0,1-21.67,1.55h-.47l-.15,0-.23,0-.22,0-.21-.07-.21-.08-.21-.1-.14-.07-.11-.06-.1-.07-.12-.08-.2-.14-.29-.26c-.07-.08-.15-.15-.22-.24l-.07-.09-.07-.09-.1-.14a1.4,1.4,0,0,1-.1-.16l-.06-.1a.91.91,0,0,1-.07-.14,2,2,0,0,1-.1-.21l0-.09a.56.56,0,0,1,0-.12.36.36,0,0,1,0-.11l-.06-.21v0a2,2,0,0,1,0-.26l-.62-3.55a380.63,380.63,0,0,0,37.88-5.08c18.19-3.35,29.13-6.81,33-8.16h0l.58,3.33a4.15,4.15,0,0,1,.07.7h0A.81.81,0,0,1,110.82,85.65Z"
  /><polygon class="d" points="110.16 81.45 110.16 81.45 110.11 81.16 110.16 81.45" /><path
    class="f"
    d="M110.11,81.15l0,.3h0Z"
  /><path class="d" d="M45.84,142.27Z" /><path
    class="f"
    d="M118.23,133.68h0l.17-.14Zm.52-.42.51-.41h0Q119,133.07,118.75,133.26Zm-72.92,9h0Z"
  /><path class="f" d="M118.4,133.54l-.17.14h0Z" /><path class="f" d="M45.83,142.26h0Zm72.4-8.58h0l.17-.14Z" /><path
    class="f"
    d="M118.75,133.26l.51-.41h0Q119,133.07,118.75,133.26Z"
  /><path class="f" d="M106.64,113.5a2.17,2.17,0,0,0-.07.24l.2.14a2.17,2.17,0,0,0,.07-.24Z" /><path
    class="f"
    d="M131,87.47c-2.9-1.67-6.87-.88-11.2,2.22a41.66,41.66,0,0,0-11.1,12.93,49.21,49.21,0,0,0-3.55,7.48A49.23,49.23,0,0,0,82,104.61a49.71,49.71,0,0,0-21.22,4.55,28.23,28.23,0,0,0-11.3,9.75l-.2-.12c-5.18-3-13.81,2.21-20.54,12.38l.36.31q.33.3.66.57l.68.57.37.3,0,0c4.74-7.21,11-12.25,15.11-12.25a3.85,3.85,0,0,1,2,.49l.14.09a28.81,28.81,0,0,0-3.57,13.86v6.58l.24.11h0l1.06.5h0l.2.09.43.19.41.19.23.1v-7.77a26.07,26.07,0,0,1,1.42-8.48l0-.08h0l.19-.54a26,26,0,0,1,1-2.42c.09-.19.18-.37.28-.56s.18-.35.28-.52l.24-.43c.07-.13.15-.26.23-.39s.18-.3.28-.45.18-.3.28-.45a26,26,0,0,1,10.53-9.24A47.11,47.11,0,0,1,82,107.2a46.38,46.38,0,0,1,22.25,5.4l.21.11.21.13h0l.79.48.79.52.21.14.21.15c.52.37,1,.77,1.53,1.19l.44.38.1.09a24.56,24.56,0,0,1,6.64,9.82l.09.23c0,.07,0,.15.08.23.1.29.2.59.29.89s.17.6.26.91a2,2,0,0,1,0,.24,2.17,2.17,0,0,1,.07.24,24.32,24.32,0,0,1,.66,4.82v1.51l.24-.18,0,0h0l.46-.36.56-.43.17-.14.17-.13h0l.18-.15q.25-.19.51-.42a2.11,2.11,0,0,0,.23-.19,26,26,0,0,0-1-5.84A42.93,42.93,0,0,0,129,114.36a42,42,0,0,0,5.64-16.09C135.16,93,133.85,89.14,131,87.47Zm-24.19,26.41-.2-.14a2.17,2.17,0,0,1,.07-.24l.2.14A2.17,2.17,0,0,1,106.77,113.88Zm19.82-.91a40.92,40.92,0,0,1-9,11,27.24,27.24,0,0,0-10-12.47,47.27,47.27,0,0,1,3.52-7.55,45,45,0,0,1,6.55-8.78,32.22,32.22,0,0,0,13.7,6.2A43,43,0,0,1,126.59,113Zm5.28-15c0,.28-.06.56-.1.85a30.15,30.15,0,0,1-12.24-5.45c.61-.53,1.23-1,1.85-1.46,2.32-1.67,4.48-2.55,6.24-2.55a3.81,3.81,0,0,1,1.95.48C131.44,90.94,132.28,93.91,131.87,98Z"
  /></svg>
