<svg viewBox="0 0 117 135" fill="none" xmlns="http://www.w3.org/2000/svg" preserveAspectRatio="xMidYMid meet">
<path
    fill-rule="evenodd"
    clip-rule="evenodd"
    d="M58.4811 0L116.962 33.75V101.25L58.4811 135L0 101.25V33.75L58.4811 0Z"
    fill="#CDDEFF"
  />
<mask id="mask0" mask-type="alpha" maskUnits="userSpaceOnUse" x="7" y="8" width="103" height="119">
<path
      d="M58.4352 8.12695L109.836 37.7909V97.1189L58.4352 126.783L7.03418 97.1189V37.7909L58.4352 8.12695Z"
      fill="white"
    />
</mask>
<g mask="url(#mask0)">
<path
      d="M58.4352 8.12695L109.836 37.7909V97.1189L58.4352 126.783L7.03418 97.1189V37.7909L58.4352 8.12695Z"
      fill="url(#paint0_linear)"
    />
<path d="M108.088 101.02H13.3086V131.676H108.088V101.02Z" fill="#9013FE" />
<path
      fill-rule="evenodd"
      clip-rule="evenodd"
      d="M42.5766 6.1875L32.3379 63.8995H84.439L74.1952 6.1875H42.5766Z"
      fill="white"
      fill-opacity="0.178568"
    />
</g>
<mask id="mask1" mask-type="alpha" maskUnits="userSpaceOnUse" x="7" y="8" width="103" height="119">
<path
      d="M58.4352 8.12695L109.836 37.7909V97.1189L58.4352 126.783L7.03418 97.1189V37.7909L58.4352 8.12695Z"
      fill="white"
    />
</mask>
<g mask="url(#mask1)">
<path
      d="M58.4352 8.12695L109.836 37.7909V97.1189L58.4352 126.783L7.03418 97.1189V37.7909L58.4352 8.12695Z"
      fill="#0043C5"
    />
<path
      fill-rule="evenodd"
      clip-rule="evenodd"
      d="M58.4814 22.7148L97.2821 45.1071V89.8917L58.4814 112.284L19.6807 89.8917V45.1071L58.4814 22.7148Z"
      fill="#00308D"
    />
<path d="M97.5571 81.6289H19.6826V174.707H97.5571V81.6289Z" fill="white" />
<path
      d="M87.3415 95.625H29.8977C29.2557 95.625 28.7354 96.1452 28.7354 96.7868C28.7354 97.4285 29.2557 97.9487 29.8977 97.9487H87.3415C87.9834 97.9487 88.5038 97.4285 88.5038 96.7868C88.5038 96.1452 87.9834 95.625 87.3415 95.625Z"
      fill="#00308D"
    />
<path
      d="M87.3415 88.0918H29.8977C29.2557 88.0918 28.7354 88.612 28.7354 89.2536C28.7354 89.8953 29.2557 90.4155 29.8977 90.4155H87.3415C87.9834 90.4155 88.5038 89.8953 88.5038 89.2536C88.5038 88.612 87.9834 88.0918 87.3415 88.0918Z"
      fill="#00308D"
    />
<path
      d="M87.3415 103.156H29.8977C29.2557 103.156 28.7354 103.676 28.7354 104.318C28.7354 104.96 29.2557 105.48 29.8977 105.48H87.3415C87.9834 105.48 88.5038 104.96 88.5038 104.318C88.5038 103.676 87.9834 103.156 87.3415 103.156Z"
      fill="#00308D"
    />
<path
      d="M87.3415 110.688H29.8977C29.2557 110.688 28.7354 111.208 28.7354 111.849C28.7354 112.491 29.2557 113.011 29.8977 113.011H87.3415C87.9834 113.011 88.5038 112.491 88.5038 111.849C88.5038 111.208 87.9834 110.688 87.3415 110.688Z"
      fill="#00308D"
    />
<path
      d="M87.3415 118.219H29.8977C29.2557 118.219 28.7354 118.739 28.7354 119.381C28.7354 120.022 29.2557 120.542 29.8977 120.542H87.3415C87.9834 120.542 88.5038 120.022 88.5038 119.381C88.5038 118.739 87.9834 118.219 87.3415 118.219Z"
      fill="#00308D"
    />
<path
      d="M87.3415 125.752H29.8977C29.2557 125.752 28.7354 126.272 28.7354 126.914C28.7354 127.555 29.2557 128.076 29.8977 128.076H87.3415C87.9834 128.076 88.5038 127.555 88.5038 126.914C88.5038 126.272 87.9834 125.752 87.3415 125.752Z"
      fill="#00308D"
    />
<path
      fill-rule="evenodd"
      clip-rule="evenodd"
      d="M33.9082 7.01758H83.0532V89.1995L58.584 75.3486L33.9082 89.1995V7.01758Z"
      fill="#24B5FF"
    />
<path
      fill-rule="evenodd"
      clip-rule="evenodd"
      d="M36.7979 18.2832H37.5487V87.1625L36.7979 87.5823V18.2832Z"
      fill="#00308D"
    />
<path
      fill-rule="evenodd"
      clip-rule="evenodd"
      d="M79.5049 18.2832H80.2558V87.6115L79.5049 87.1866V18.2832Z"
      fill="#00308D"
    />
</g>
<path
    d="M54.3053 54.004L45.7488 45.4723C45.2348 44.9597 45.2348 44.1286 45.7488 43.616L47.6104 41.7598C48.1245 41.2471 48.958 41.2471 49.4721 41.7598L55.2362 47.5071L67.5821 35.1969C68.0962 34.6844 68.9297 34.6844 69.4438 35.1969L71.3054 37.0532C71.8195 37.5657 71.8195 38.3968 71.3054 38.9094L56.167 54.004C55.6529 54.5166 54.8194 54.5166 54.3053 54.004Z"
    fill="white"
  />
<defs>
<linearGradient id="paint0_linear" x1="58.4352" y1="8.12695" x2="58.4352" y2="126.783" gradientUnits="userSpaceOnUse">
<stop stop-color="#8400DB" />
<stop offset="1" stop-color="#4D00B4" />
</linearGradient>
</defs>
</svg>
