<svg
  viewBox="0 0 507 585"
  version="1.1"
  xmlns="http://www.w3.org/2000/svg"
  xmlns:xlink="http://www.w3.org/1999/xlink"
  preserveAspectRatio="xMidYMid meet"
>
    <!-- Generator: Sketch 58 (84663) - https://sketch.com -->
    <title>Group 90 Copy</title>
    <desc>Created with Sketch.</desc>
    <defs>
        <linearGradient x1="50%" y1="0%" x2="50%" y2="100%" id="linearGradient-1">
            <stop stop-color="#8400DB" offset="0%" />
            <stop stop-color="#4D00B4" offset="100%" />
        </linearGradient>
        <polygon
      id="path-2"
      points="257.087893 0 479.73254 128.543947 479.73254 385.63184 257.087893 514.175787 34.4432467 385.63184 34.4432467 128.543947"
    />
        <polygon
      id="path-4"
      points="257.087893 0 479.73254 128.543947 479.73254 385.63184 257.087893 514.175787 34.4432467 385.63184 34.4432467 128.543947"
    />
        <linearGradient x1="50%" y1="100%" x2="50%" y2="3.061617e-15%" id="linearGradient-6">
            <stop stop-color="#3DBEFF" offset="0%" />
            <stop stop-color="#00AAFF" offset="100%" />
        </linearGradient>
    </defs>
    <g id="Logos,-Icons,-Illustrations" stroke="none" stroke-width="1" fill="none" fill-rule="evenodd">
        <g id="Group-90-Copy" transform="translate(-39.000000, 0.000000)">
            <g id="Group-108">
                <g id="1">
                    <polygon
            id="Polygon"
            fill="#CDDEFF"
            points="292.5 0 545.812431 146.25 545.812431 438.75 292.5 585 39.1875694 438.75 39.1875694 146.25"
          />
                    <g id="Group-105" transform="translate(35.212038, 35.212038)">
                        <g id="Group-104">
                            <g id="Rectangle">
                                <mask id="mask-3" fill="white">
                                    <use xlink:href="#path-2" />
                                </mask>
                                <use id="Mask" fill="url(#linearGradient-1)" xlink:href="#path-2" />
                                <rect
                  fill="#9013FE"
                  mask="url(#mask-3)"
                  x="61.621067"
                  y="402.53762"
                  width="410.540356"
                  height="132.845417"
                />
                                <polygon
                  id="Path-64"
                  fill-opacity="0.178567526"
                  fill="#FFFFFF"
                  mask="url(#mask-3)"
                  points="188.398685 -8.40287278 144.049248 241.682627 369.726402 241.682627 325.355431 -8.40287278"
                />
                            </g>
                            <g id="Rectangle">
                                <mask id="mask-5" fill="white">
                                    <use xlink:href="#path-4" />
                                </mask>
                                <use id="Mask" fill="#0043C5" xlink:href="#path-4" />
                                <g id="Group-84" mask="url(#mask-5)">
                                    <g transform="translate(90.030780, 100.834473)">
                                        <rect
                      id="Rectangle"
                      fill="url(#linearGradient-6)"
                      x="0"
                      y="0"
                      width="334.914501"
                      height="400.937073"
                    />
                                        <g
                      id="Group-107"
                      stroke-width="1"
                      fill="none"
                      transform="translate(39.213406, 28.009576)"
                    >
                                            <rect
                        id="Rectangle"
                        fill="#00308D"
                        x="0"
                        y="32.4872591"
                        width="256.887825"
                        height="10.022665"
                        rx="5.01133251"
                      />
                                            <rect
                        id="Rectangle"
                        fill="#00308D"
                        x="0"
                        y="0"
                        width="256.887825"
                        height="10.022665"
                        rx="5.01133251"
                      />
                                            <rect
                        id="Rectangle"
                        fill="#00308D"
                        x="0"
                        y="64.9745181"
                        width="256.887825"
                        height="10.022665"
                        rx="5.01133251"
                      />
                                            <rect
                        id="Rectangle"
                        fill="#00308D"
                        x="0"
                        y="97.4617772"
                        width="256.887825"
                        height="10.022665"
                        rx="5.01133251"
                      />
                                            <rect
                        id="Rectangle"
                        fill="#00308D"
                        x="0"
                        y="129.949036"
                        width="256.887825"
                        height="10.022665"
                        rx="5.01133251"
                      />
                                            <rect
                        id="Rectangle"
                        fill="#00308D"
                        x="0"
                        y="162.436295"
                        width="256.887825"
                        height="10.022665"
                        rx="5.01133251"
                      />
                                        </g>
                                    </g>
                                </g>
                                <g id="Group-84" mask="url(#mask-5)">
                                    <g transform="translate(63.221614, 184.463064)">
                                        <rect
                      id="Rectangle"
                      fill="#FFFFFF"
                      x="0"
                      y="0"
                      width="388.132695"
                      height="464.558824"
                    />
                                        <g
                      id="Group-107"
                      stroke-width="1"
                      fill="none"
                      transform="translate(45.615595, 32.411081)"
                    >
                                            <rect
                        id="Rectangle"
                        fill="#00308D"
                        x="0"
                        y="0"
                        width="121.24145"
                        height="11.6039672"
                        rx="5.8"
                      />
                                        </g>
                                        <g
                      id="Group-107"
                      stroke-width="1"
                      fill="none"
                      transform="translate(178.060876, 32.411081)"
                    >
                                            <rect
                        id="Rectangle"
                        fill="#00308D"
                        x="0"
                        y="0"
                        width="27.6094391"
                        height="11.6039672"
                        rx="5.8"
                      />
                                        </g>
                                    </g>
                                </g>
                            </g>
                        </g>
                    </g>
                </g>
                <g
          id="plus-solid"
          transform="translate(292.000000, 380.000000) rotate(-315.000000) translate(-292.000000, -380.000000) translate(211.000000, 299.000000)"
          fill="#003192"
          fill-rule="nonzero"
        >
                    <path
            d="M150.393103,63.4248116 L98.6431028,63.4248116 L98.6431028,11.6748116 C98.6431028,5.32465533 93.493259,0.174811576 87.1431028,0.174811576 L75.6431028,0.174811576 C69.2929465,0.174811576 64.1431028,5.32465533 64.1431028,11.6748116 L64.1431028,63.4248116 L12.3931028,63.4248116 C6.04294654,63.4248116 0.893102789,68.5746553 0.893102789,74.9248116 L0.893102789,86.4248116 C0.893102789,92.7749678 6.04294654,97.9248116 12.3931028,97.9248116 L64.1431028,97.9248116 L64.1431028,149.674812 C64.1431028,156.024968 69.2929465,161.174812 75.6431028,161.174812 L87.1431028,161.174812 C93.493259,161.174812 98.6431028,156.024968 98.6431028,149.674812 L98.6431028,97.9248116 L150.393103,97.9248116 C156.743259,97.9248116 161.893103,92.7749678 161.893103,86.4248116 L161.893103,74.9248116 C161.893103,68.5746553 156.743259,63.4248116 150.393103,63.4248116 Z"
            id="Path"
          />
                </g>
                <g id="Group-111" transform="translate(244.000000, 80.000000)">
                    <path
            d="M0.190424077,10.6849887 L0.190424077,0.190424077 L96.9915185,0.190424077 L96.9915185,10.7127191 L55.8514591,70.2088547 L96.9915185,129.70499 L96.9915185,140.014227 L0.190424077,140.014227 L0.190424077,129.732721 L40.3906057,70.2088547 L0.190424077,10.6849887 Z M4.8,9.27422133 L45.952961,70.2088547 L4.8,131.143488 L4.8,135.404651 L92.3819425,135.404651 L92.3819425,131.143488 L50.2471986,70.2088547 L92.3819425,9.27422133 L92.3819425,4.8 L4.8,4.8 L4.8,9.27422133 Z"
            id="Rectangle"
            fill="#FFFFFF"
            fill-rule="nonzero"
          />
                    <polygon
            id="Rectangle"
            fill="#00308D"
            points="10.9461012 17.7068126 86.2358413 17.7068126 50.0147457 70.2559781 86.2358413 122.805144 10.9461012 122.805144 46.323208 70.2559781"
          />
                    <polygon
            id="Rectangle"
            fill="#FFFFFF"
            points="48.0998632 73.5478516 68.1622929 102.065812 82.2408755 122.497839 14.941067 122.497839 29.1939277 101.319406"
          />
                </g>
            </g>
        </g>
    </g>
</svg>
