<svg viewBox="0 0 130 150" fill="none" xmlns="http://www.w3.org/2000/svg" preserveAspectRatio="xMidYMid meet">
<path
    fill-rule="evenodd"
    clip-rule="evenodd"
    d="M64.887 0L129.774 37.5V112.5L64.887 150L0 112.5V37.5L64.887 0Z"
    fill="#CDDEFF"
  />
<mask id="mask0" mask-type="alpha" maskUnits="userSpaceOnUse" x="7" y="9" width="115" height="132">
<path
      d="M64.8358 9.0293L121.867 41.9893V107.909L64.8358 140.869L7.80444 107.909V41.9893L64.8358 9.0293Z"
      fill="white"
    />
</mask>
<g mask="url(#mask0)">
<path
      d="M64.8358 9.0293L121.867 41.9893V107.909L64.8358 140.869L7.80444 107.909V41.9893L64.8358 9.0293Z"
      fill="url(#paint0_linear)"
    />
<path d="M119.928 112.242H14.7661V146.305H119.928V112.242Z" fill="#9013FE" />
<path
      fill-rule="evenodd"
      clip-rule="evenodd"
      d="M47.2407 6.875L35.8804 70.9995H93.6885L82.3227 6.875H47.2407Z"
      fill="white"
      fill-opacity="0.178568"
    />
</g>
<mask id="mask1" mask-type="alpha" maskUnits="userSpaceOnUse" x="7" y="9" width="115" height="132">
<path
      d="M64.8358 9.0293L121.867 41.9893V107.909L64.8358 140.869L7.80444 107.909V41.9893L64.8358 9.0293Z"
      fill="white"
    />
</mask>
<g mask="url(#mask1)">
<path
      d="M64.8358 9.0293L121.867 41.9893V107.909L64.8358 140.869L7.80444 107.909V41.9893L64.8358 9.0293Z"
      fill="#0043C5"
    />
<path d="M107.833 34.8848H22.0435V137.689H107.833V34.8848Z" fill="url(#paint1_linear)" />
<path
      d="M96.6073 50.3965H33.3718C32.6629 50.3965 32.0881 50.9718 32.0881 51.6814C32.0881 52.3911 32.6629 52.9664 33.3718 52.9664H96.6073C97.3163 52.9664 97.891 52.3911 97.891 51.6814C97.891 50.9718 97.3163 50.3965 96.6073 50.3965Z"
      fill="#00308D"
    />
<path
      d="M96.6073 42.0664H33.3718C32.6629 42.0664 32.0881 42.6417 32.0881 43.3514C32.0881 44.061 32.6629 44.6363 33.3718 44.6363H96.6073C97.3163 44.6363 97.891 44.061 97.891 43.3514C97.891 42.6417 97.3163 42.0664 96.6073 42.0664Z"
      fill="#00308D"
    />
<path
      d="M96.6073 58.7266H33.3718C32.6629 58.7266 32.0881 59.3019 32.0881 60.0115C32.0881 60.7212 32.6629 61.2965 33.3718 61.2965H96.6073C97.3163 61.2965 97.891 60.7212 97.891 60.0115C97.891 59.3019 97.3163 58.7266 96.6073 58.7266Z"
      fill="#00308D"
    />
<path
      d="M96.6073 67.0566H33.3718C32.6629 67.0566 32.0881 67.6319 32.0881 68.3416C32.0881 69.0513 32.6629 69.6266 33.3718 69.6266H96.6073C97.3163 69.6266 97.891 69.0513 97.891 68.3416C97.891 67.6319 97.3163 67.0566 96.6073 67.0566Z"
      fill="#00308D"
    />
<path
      d="M96.6073 75.3867H33.3718C32.6629 75.3867 32.0881 75.962 32.0881 76.6717C32.0881 77.3813 32.6629 77.9566 33.3718 77.9566H96.6073C97.3163 77.9566 97.891 77.3813 97.891 76.6717C97.891 75.962 97.3163 75.3867 96.6073 75.3867Z"
      fill="#00308D"
    />
<path
      d="M96.6073 83.7168H33.3718C32.6629 83.7168 32.0881 84.2921 32.0881 85.0018C32.0881 85.7114 32.6629 86.2867 33.3718 86.2867H96.6073C97.3163 86.2867 97.891 85.7114 97.891 85.0018C97.891 84.2921 97.3163 83.7168 96.6073 83.7168Z"
      fill="#00308D"
    />
<path d="M114.598 56.3281H15.1761V175.446H114.598V56.3281Z" fill="white" />
</g>
<path
    fill-rule="evenodd"
    clip-rule="evenodd"
    d="M67.8481 92.6395C67.7403 93.5878 67.8407 94.5262 68.1494 95.4549C81.3126 96.5127 91.5173 103.991 91.5361 113.064H38.3403H38.3403C38.3591 103.991 48.5638 96.5127 61.7271 95.4549C62.0357 94.5262 62.1361 93.5878 62.0283 92.6395C57.3325 90.4187 53.8796 83.2641 53.8796 78.162C53.8796 72.0524 58.8307 67.0996 64.9382 67.0996C71.0457 67.0996 75.9968 72.0524 75.9968 78.162C75.9968 83.2641 72.5439 90.4187 67.8481 92.6395Z"
    fill="url(#paint2_linear)"
  />
<path
    d="M32.5432 60.92L32.6297 62.4473C30.5355 62.5688 27.9566 62.6556 24.8931 62.725C24.8239 63.3151 24.7893 63.9052 24.7547 64.4953C25.4989 64.3391 26.2951 64.2696 27.1258 64.2696C27.3508 64.2696 27.5758 64.2696 27.8182 64.287L28.0605 63.3672L29.6528 63.7316C29.5836 64.0093 29.497 64.3044 29.4278 64.582C30.0336 64.7556 30.5874 65.0333 31.1066 65.3804C32.3701 66.2482 33.0105 67.4284 33.0105 68.921C33.0105 70.5003 32.4566 71.7152 31.3836 72.583C30.3797 73.364 28.8566 73.902 26.8143 74.1797L26.2431 72.7219C27.9047 72.5136 29.1509 72.1144 29.9816 71.559C30.8816 70.9169 31.3489 70.0317 31.3489 68.921C31.3489 67.8796 30.847 67.0639 29.8778 66.4912C29.5836 66.3176 29.272 66.1961 28.9605 66.092C28.4412 67.5846 27.8182 68.8863 27.1085 69.9797C25.5681 72.288 23.6816 73.4508 21.4316 73.4508C20.5662 73.4508 19.8566 73.1731 19.3373 72.6177C18.8181 72.0623 18.5585 71.316 18.5585 70.3788C18.5585 68.7474 19.3546 67.3242 20.9816 66.1267C21.622 65.6407 22.3143 65.2589 23.0758 64.9812C23.0931 64.2349 23.145 63.4886 23.2143 62.7423C21.8296 62.7423 20.3758 62.7597 18.8354 62.7597L18.8181 61.215C20.445 61.215 21.9681 61.1977 23.3874 61.1977C23.4739 60.5035 23.595 59.7919 23.7335 59.0977L25.3778 59.4448C25.2566 60.0175 25.1527 60.5902 25.0835 61.1803C28.1124 61.1109 30.6047 61.0241 32.5432 60.92ZM27.3219 65.7894H27.0984C26.2386 65.7894 25.4477 65.8766 24.7083 66.0684V66.1033C24.7083 67.5332 24.7942 68.8585 24.9834 70.0618C25.2069 69.7827 25.4305 69.4689 25.6712 69.1375C26.3074 68.161 26.8577 67.0449 27.3219 65.7894ZM23.0611 66.7159C22.7315 66.8714 22.4192 67.0614 22.1416 67.2686C20.8404 68.184 20.1984 69.2204 20.1984 70.3776C20.1984 71.3967 20.5975 71.9148 21.4302 71.9148C22.1589 71.9148 22.8703 71.7076 23.5296 71.3276C23.252 69.9285 23.0958 68.3913 23.0611 66.7159Z"
    fill="#00308D"
  />
<path
    d="M102.512 59.7129H105.057L110.703 74.3846H108.301L106.926 70.6036H100.623L99.2474 74.3846H96.866L102.512 59.7129ZM101.3 68.7543H106.248L103.826 62.1171H103.743L101.3 68.7543Z"
    fill="#00308D"
  />
<defs>
<linearGradient id="paint0_linear" x1="64.8358" y1="9.0293" x2="64.8358" y2="140.869" gradientUnits="userSpaceOnUse">
<stop stop-color="#8400DB" />
<stop offset="1" stop-color="#4D00B4" />
</linearGradient>
<linearGradient id="paint1_linear" x1="64.9383" y1="137.689" x2="64.9383" y2="34.8848" gradientUnits="userSpaceOnUse">
<stop stop-color="#3DBEFF" />
<stop offset="1" stop-color="#00AAFF" />
</linearGradient>
<linearGradient id="paint2_linear" x1="64.9382" y1="67.0996" x2="64.9382" y2="113.064" gradientUnits="userSpaceOnUse">
<stop stop-color="#0043C5" />
<stop offset="1" stop-color="#00308D" />
</linearGradient>
</defs>
</svg>
