<svg viewBox="0 0 117 135" fill="none" xmlns="http://www.w3.org/2000/svg" preserveAspectRatio="xMidYMid meet">
<path
    fill-rule="evenodd"
    clip-rule="evenodd"
    d="M58.45 0L116.9 33.7297V101.189L58.45 134.919L0 101.189V33.7297L58.45 0Z"
    fill="#CDDEFF"
  />
<mask id="mask0" mask-type="alpha" maskUnits="userSpaceOnUse" x="7" y="8" width="103" height="119">
<path
      d="M58.4039 8.12109L109.778 37.7672V97.0595L58.4039 126.706L7.03027 97.0595V37.7672L58.4039 8.12109Z"
      fill="white"
    />
</mask>
<g mask="url(#mask0)">
<path
      d="M58.4039 8.12109L109.778 37.7672V97.0595L58.4039 126.706L7.03027 97.0595V37.7672L58.4039 8.12109Z"
      fill="url(#paint0_linear)"
    />
<path d="M108.031 100.959H13.3018V131.597H108.031V100.959Z" fill="#9013FE" />
<path
      fill-rule="evenodd"
      clip-rule="evenodd"
      d="M42.5546 6.18359L32.3213 63.8609H84.3947L74.1564 6.18359H42.5546Z"
      fill="white"
      fill-opacity="0.178568"
    />
</g>
<mask id="mask1" mask-type="alpha" maskUnits="userSpaceOnUse" x="7" y="8" width="103" height="119">
<path
      d="M58.4039 8.12109L109.778 37.7672V97.0595L58.4039 126.706L7.03027 97.0595V37.7672L58.4039 8.12109Z"
      fill="white"
    />
</mask>
<g mask="url(#mask1)">
<path
      d="M58.4039 8.12109L109.778 37.7672V97.0595L58.4039 126.706L7.03027 97.0595V37.7672L58.4039 8.12109Z"
      fill="#0043C5"
    />
<path
      fill-rule="evenodd"
      clip-rule="evenodd"
      d="M58.119 17.9902L96.8991 40.369V85.1266L58.119 107.505L19.3389 85.1266V40.369L58.119 17.9902Z"
      fill="#06ACFF"
    />
<path d="M103.098 60.1953H13.5703V157.983H103.098V60.1953Z" fill="white" />
<path
      d="M79.9965 97.1458C80.0135 97.1027 80.0231 97.0591 80.0231 97.0151C80.0231 96.8927 79.9551 96.7742 79.8288 96.6614L75.0948 82.9787C75.7675 82.6648 76.2347 81.9838 76.2347 81.1919C76.2347 80.1024 75.3523 79.2193 74.2638 79.2193C73.771 79.2193 73.3213 79.4016 72.9759 79.7008L59.7336 75.7308V71.7334L57.5334 69.8066V75.0713L44.7957 71.2527C44.5481 70.4465 43.7985 69.8603 42.9117 69.8603C41.8232 69.8603 40.9408 70.7435 40.9408 71.8329C40.9408 72.5274 41.3002 73.1368 41.8421 73.4883L37.1064 87.1759L37.1861 87.2035C37.1546 87.2615 37.1366 87.3207 37.1366 87.3809C37.1366 88.1388 39.7187 88.7531 42.904 88.7531C45.7469 88.7531 48.1076 88.2636 48.5826 87.6196L48.6714 87.5888L48.6448 87.5116C48.662 87.4687 48.6714 87.425 48.6714 87.3809C48.6714 87.2585 48.6032 87.14 48.4771 87.0272L43.8248 73.5803C43.9437 73.5179 44.0558 73.4446 44.1589 73.3602C44.6943 72.9867 45.2163 72.8762 45.7248 73.0287C47.0985 73.4405 49.1823 74.8662 50.2264 75.1793C51.8502 75.6661 54.2858 76.3963 57.5334 77.37V91.0877C56.9831 91.4376 56.6168 92.0515 56.6168 92.7525C56.6168 93.1912 56.7616 93.5949 57.0034 93.9224C56.3526 94.4074 55.9292 95.1812 55.9292 96.0555C55.9292 97.15 56.5899 98.0891 57.5334 98.4977V102.894C50.4141 103.011 44.8367 104.091 44.8367 105.406L44.8825 106.783C44.8825 108.176 51.1301 109.317 58.8512 109.317C66.5722 109.317 72.82 108.199 72.82 106.806L72.797 105.406C72.797 104.068 67.0272 102.974 59.7336 102.889V98.4536C60.6275 98.025 61.2463 97.1138 61.2463 96.0554C61.2463 95.1809 60.8229 94.4073 60.1721 93.9223C60.4141 93.5948 60.5588 93.191 60.5588 92.7523C60.5588 92.091 60.2326 91.5072 59.7336 91.1494V78.0295C62.5812 78.8832 64.7169 79.5234 66.1408 79.9502C68.4884 80.654 69.8906 80.2099 71.3609 80.6507C71.9043 80.8136 72.2504 81.2055 72.399 81.8264C72.5529 82.2793 72.8663 82.6575 73.2728 82.8949L68.4583 96.81L68.5379 96.8375C68.5064 96.8958 68.4884 96.9548 68.4884 97.0149C68.4884 97.7729 71.0704 98.3872 74.2557 98.3872C77.0986 98.3872 79.4594 97.8977 79.9343 97.2537L80.0231 97.2229L79.9965 97.1458ZM47.9297 86.7081C46.9406 86.2907 45.0611 86.0086 42.9037 86.0086C40.5857 86.0086 38.5883 86.3341 37.6717 86.8034L42.2137 73.6759C42.431 73.7583 42.6656 73.8055 42.9117 73.8055C43.095 73.8055 43.2717 73.7786 43.44 73.7318L47.9297 86.7081ZM69.024 96.4375L73.6505 83.0655C73.8437 83.1289 74.0497 83.1642 74.2641 83.1642C74.4159 83.1642 74.563 83.1454 74.7049 83.1129L79.2821 96.3419C78.293 95.9245 76.4134 95.6425 74.256 95.6425C71.9377 95.6427 69.9404 95.9681 69.024 96.4375Z"
      fill="#00308D"
    />
<path
      d="M58.5643 76.4268C59.9665 76.4268 61.1032 76.0556 61.1032 73.5346C61.1032 71.854 60.2569 69.8678 58.5643 67.5762C56.8717 69.8678 56.0254 71.854 56.0254 73.5346C56.0254 76.0556 57.1621 76.4268 58.5643 76.4268Z"
      fill="#00308D"
    />
<path
      d="M42.8746 90.64C47.2074 90.64 50.7198 89.1797 50.7198 87.3783C50.7198 85.577 35.0293 85.577 35.0293 87.3783C35.0293 89.1797 38.5417 90.64 42.8746 90.64Z"
      fill="#00308D"
    />
<path
      d="M74.0249 99.8646C78.3578 99.8646 81.8702 98.4043 81.8702 96.603C81.8702 94.8016 66.1797 94.8016 66.1797 96.603C66.1797 98.4043 69.6921 99.8646 74.0249 99.8646Z"
      fill="#00308D"
    />
<path
      d="M58.7955 105.169C62.2363 105.169 65.0255 104.291 65.0255 103.208C65.0255 102.126 62.2363 101.248 58.7955 101.248C55.3547 101.248 52.5654 102.126 52.5654 103.208C52.5654 104.291 55.3547 105.169 58.7955 105.169Z"
      fill="#00308D"
    />
</g>
<path
    d="M69.5231 49.1464L62.8102 42.4368L69.5231 35.7272C70.3468 34.9039 70.3468 33.5685 69.5231 32.7452L68.0313 31.2541C67.2076 30.4308 65.8715 30.4308 65.0478 31.2541L58.335 37.9637L51.6221 31.2541C50.7984 30.4308 49.4623 30.4308 48.6386 31.2541L47.1469 32.7452C46.3231 33.5685 46.3231 34.9039 47.1469 35.7272L53.8597 42.4368L47.1469 49.1464C46.3231 49.9697 46.3231 51.3051 47.1469 52.1284L48.6386 53.6194C49.4623 54.4428 50.7984 54.4428 51.6221 53.6194L58.335 46.9098L65.0478 53.6194C65.8715 54.4428 67.2076 54.4428 68.0313 53.6194L69.5231 52.1284C70.3468 51.3051 70.3468 49.9697 69.5231 49.1464Z"
    fill="white"
  />
<defs>
<linearGradient id="paint0_linear" x1="58.4039" y1="8.12109" x2="58.4039" y2="126.706" gradientUnits="userSpaceOnUse">
<stop stop-color="#8400DB" />
<stop offset="1" stop-color="#4D00B4" />
</linearGradient>
</defs>
</svg>
