<svg viewBox="0 0 117 135" fill="none" xmlns="http://www.w3.org/2000/svg" preserveAspectRatio="xMidYMid meet">
<path
    fill-rule="evenodd"
    clip-rule="evenodd"
    d="M58.4137 0L116.827 33.75V101.25L58.4137 135L0 101.25V33.75L58.4137 0Z"
    fill="#CDDEFF"
  />
<mask id="mask0" mask-type="alpha" maskUnits="userSpaceOnUse" x="7" y="8" width="103" height="119">
<path d="M58.3676 8.12598L109.709 37.79V97.1179L58.3676 126.782L7.02588 97.1179V37.79L58.3676 8.12598Z" fill="white" />
</mask>
<g mask="url(#mask0)">
<path
      d="M58.3676 8.12598L109.709 37.79V97.1179L58.3676 126.782L7.02588 97.1179V37.79L58.3676 8.12598Z"
      fill="url(#paint0_linear)"
    />
<path d="M107.964 101.02H13.2935V131.676H107.964V101.02Z" fill="#9013FE" />
<path
      fill-rule="evenodd"
      clip-rule="evenodd"
      d="M42.5277 6.18652L32.3008 63.8986H84.3418L74.1099 6.18652H42.5277Z"
      fill="white"
      fill-opacity="0.178568"
    />
</g>
<mask id="mask1" mask-type="alpha" maskUnits="userSpaceOnUse" x="7" y="8" width="103" height="119">
<path d="M58.3676 8.12598L109.709 37.79V97.1179L58.3676 126.782L7.02588 97.1179V37.79L58.3676 8.12598Z" fill="white" />
</mask>
<g mask="url(#mask1)">
<path
      d="M58.3676 8.12598L109.709 37.79V97.1179L58.3676 126.782L7.02588 97.1179V37.79L58.3676 8.12598Z"
      fill="#0043C5"
    />
<path d="M103.166 24.4697H13.6626V131.676H103.166V24.4697Z" fill="url(#paint1_linear)" />
<path d="M75.2073 101.389H41.5283V135.37H75.2073V101.389Z" fill="white" />
</g>
<path
    d="M91.4931 40.6289H25.5191C24.7802 40.6289 24.1812 41.2284 24.1812 41.9678C24.1812 42.7073 24.7802 43.3068 25.5191 43.3068H91.4931C92.232 43.3068 92.831 42.7073 92.831 41.9678C92.831 41.2284 92.232 40.6289 91.4931 40.6289Z"
    fill="#00308D"
  />
<path
    d="M91.4931 31.9482H25.5191C24.7802 31.9482 24.1812 32.5477 24.1812 33.2872C24.1812 34.0266 24.7802 34.6261 25.5191 34.6261H91.4931C92.232 34.6261 92.831 34.0266 92.831 33.2872C92.831 32.5477 92.232 31.9482 91.4931 31.9482Z"
    fill="#00308D"
  />
<path
    d="M91.4931 49.3086H25.5191C24.7802 49.3086 24.1812 49.908 24.1812 50.6475C24.1812 51.387 24.7802 51.9864 25.5191 51.9864H91.4931C92.232 51.9864 92.831 51.387 92.831 50.6475C92.831 49.908 92.232 49.3086 91.4931 49.3086Z"
    fill="#00308D"
  />
<path
    d="M91.4931 57.9893H25.5191C24.7802 57.9893 24.1812 58.5887 24.1812 59.3282C24.1812 60.0676 24.7802 60.6671 25.5191 60.6671H91.4931C92.232 60.6671 92.831 60.0676 92.831 59.3282C92.831 58.5887 92.232 57.9893 91.4931 57.9893Z"
    fill="#00308D"
  />
<path
    d="M91.4931 66.668H25.5191C24.7802 66.668 24.1812 67.2674 24.1812 68.0069C24.1812 68.7464 24.7802 69.3459 25.5191 69.3459H91.4931C92.232 69.3459 92.831 68.7464 92.831 68.0069C92.831 67.2674 92.232 66.668 91.4931 66.668Z"
    fill="#00308D"
  />
<path
    d="M91.4931 75.3486H25.5191C24.7802 75.3486 24.1812 75.9481 24.1812 76.6876C24.1812 77.4271 24.7802 78.0265 25.5191 78.0265H91.4931C92.232 78.0265 92.831 77.4271 92.831 76.6876C92.831 75.9481 92.232 75.3486 91.4931 75.3486Z"
    fill="#00308D"
  />
<path
    d="M43.9272 57.0792V53.9258H72.9927V57.0875L60.64 74.965L72.9927 92.8424V95.9401H43.9272V92.8507L55.9977 74.965L43.9272 57.0792ZM45.3113 56.6553L57.6679 74.965L45.3113 93.2747V94.555H71.6086V93.2747L58.9573 74.965L71.6086 56.6553V55.3109H45.3113V56.6553Z"
    fill="white"
  />
<path
    fill-rule="evenodd"
    clip-rule="evenodd"
    d="M47.1567 59.1895H69.7632L58.8875 74.9795L69.7632 90.7695H47.1567L57.7791 74.9795L47.1567 59.1895Z"
    fill="#00308D"
  />
<path
    fill-rule="evenodd"
    clip-rule="evenodd"
    d="M59.9824 72.3945L58.8381 74.0566H57.7455L56.7529 72.5805L59.9824 72.3945Z"
    fill="white"
  />
<path
    fill-rule="evenodd"
    clip-rule="evenodd"
    d="M58.4602 82.2759C60.4069 82.3132 62.3658 83.0672 64.3366 84.5378L68.5639 90.6772H48.3564L52.636 84.3136C54.572 82.9178 56.5134 82.2386 58.4602 82.2759Z"
    fill="white"
  />
<path
    d="M58.3218 75.6859L58.3331 76.4337C58.3336 76.4663 58.3594 76.4923 58.3908 76.4918C58.4222 76.4912 58.4473 76.4644 58.4468 76.4318L58.4354 75.6841C58.435 75.6515 58.4091 75.6255 58.3777 75.626C58.3463 75.6265 58.3213 75.6533 58.3218 75.6859ZM58.3444 77.1814L58.3557 77.9291C58.3562 77.9617 58.3821 77.9877 58.4135 77.9872C58.4448 77.9867 58.4699 77.9598 58.4694 77.9272L58.4581 77.1795C58.4576 77.1469 58.4317 77.1209 58.4004 77.1214C58.369 77.1219 58.3439 77.1488 58.3444 77.1814ZM58.367 78.6768L58.3784 79.4245C58.3788 79.4571 58.4047 79.4831 58.4361 79.4826C58.4675 79.4821 58.4925 79.4552 58.492 79.4226L58.4807 78.6749C58.4802 78.6423 58.4544 78.6163 58.423 78.6168C58.3916 78.6173 58.3665 78.6442 58.367 78.6768ZM58.3897 80.1722L58.3927 80.3695C58.3931 80.4021 58.419 80.4281 58.4504 80.4276C58.4818 80.4271 58.5068 80.4003 58.5063 80.3677L58.5033 80.1703C58.5028 80.1377 58.477 80.1117 58.4456 80.1122C58.4142 80.1127 58.3892 80.1396 58.3897 80.1722Z"
    fill="white"
  />
<defs>
<linearGradient id="paint0_linear" x1="58.3676" y1="8.12598" x2="58.3676" y2="126.782" gradientUnits="userSpaceOnUse">
<stop stop-color="#8400DB" />
<stop offset="1" stop-color="#4D00B4" />
</linearGradient>
<linearGradient id="paint1_linear" x1="58.4142" y1="131.676" x2="58.4142" y2="24.4697" gradientUnits="userSpaceOnUse">
<stop stop-color="#3DBEFF" />
<stop offset="1" stop-color="#00AAFF" />
</linearGradient>
</defs>
</svg>
