<svg viewBox="0 0 130 150" fill="none" xmlns="http://www.w3.org/2000/svg" preserveAspectRatio="xMidYMid meet">
<path
    fill-rule="evenodd"
    clip-rule="evenodd"
    d="M64.9041 0L129.808 37.5V112.5L64.9041 150L0 112.5V37.5L64.9041 0Z"
    fill="#CDDEFF"
  />
<mask id="mask0" mask-type="alpha" maskUnits="userSpaceOnUse" x="7" y="9" width="115" height="132">
<path
      d="M64.8529 9.02734L121.899 41.9873V107.907L64.8529 140.867L7.80652 107.907V41.9873L64.8529 9.02734Z"
      fill="white"
    />
</mask>
<g mask="url(#mask0)">
<path
      d="M64.8529 9.02734L121.899 41.9873V107.907L64.8529 140.867L7.80652 107.907V41.9873L64.8529 9.02734Z"
      fill="url(#paint0_linear)"
    />
<path d="M119.959 112.244H14.77V146.307H119.959V112.244Z" fill="#9013FE" />
<path
      fill-rule="evenodd"
      clip-rule="evenodd"
      d="M47.2532 6.87305L35.8899 70.9975H93.7133L82.3445 6.87305H47.2532Z"
      fill="white"
      fill-opacity="0.178568"
    />
</g>
<mask id="mask1" mask-type="alpha" maskUnits="userSpaceOnUse" x="7" y="9" width="115" height="132">
<path
      d="M64.8529 9.02734L121.899 41.9873V107.907L64.8529 140.867L7.80652 107.907V41.9873L64.8529 9.02734Z"
      fill="white"
    />
</mask>
<g mask="url(#mask1)">
<path
      d="M64.8529 9.02734L121.899 41.9873V107.907L64.8529 140.867L7.80652 107.907V41.9873L64.8529 9.02734Z"
      fill="#0043C5"
    />
<path d="M114.628 27.1875H15.1801V122.913H114.628V27.1875Z" fill="white" />
</g>
<path
    d="M101.659 49.4531H28.3544C27.5334 49.4531 26.8678 50.1192 26.8678 50.9408C26.8678 51.7625 27.5334 52.4285 28.3544 52.4285H101.659C102.48 52.4285 103.145 51.7625 103.145 50.9408C103.145 50.1192 102.48 49.4531 101.659 49.4531Z"
    fill="#00308D"
  />
<path
    d="M101.659 39.8086H28.3544C27.5334 39.8086 26.8678 40.4747 26.8678 41.2963C26.8678 42.1179 27.5334 42.784 28.3544 42.784H101.659C102.48 42.784 103.145 42.1179 103.145 41.2963C103.145 40.4747 102.48 39.8086 101.659 39.8086Z"
    fill="#00308D"
  />
<path
    d="M101.659 59.0977H28.3544C27.5334 59.0977 26.8678 59.7637 26.8678 60.5853C26.8678 61.407 27.5334 62.073 28.3544 62.073H101.659C102.48 62.073 103.145 61.407 103.145 60.5853C103.145 59.7637 102.48 59.0977 101.659 59.0977Z"
    fill="#00308D"
  />
<path
    d="M101.659 68.7422H28.3544C27.5334 68.7422 26.8678 69.4082 26.8678 70.2299C26.8678 71.0515 27.5334 71.7176 28.3544 71.7176H101.659C102.48 71.7176 103.145 71.0515 103.145 70.2299C103.145 69.4082 102.48 68.7422 101.659 68.7422Z"
    fill="#00308D"
  />
<path
    d="M101.659 78.3867H28.3544C27.5334 78.3867 26.8678 79.0528 26.8678 79.8744C26.8678 80.6961 27.5334 81.3621 28.3544 81.3621H101.659C102.48 81.3621 103.145 80.6961 103.145 79.8744C103.145 79.0528 102.48 78.3867 101.659 78.3867Z"
    fill="#00308D"
  />
<path
    d="M101.659 88.0293H28.3544C27.5334 88.0293 26.8678 88.6954 26.8678 89.517C26.8678 90.3386 27.5334 91.0047 28.3544 91.0047H101.659C102.48 91.0047 103.145 90.3386 103.145 89.517C103.145 88.6954 102.48 88.0293 101.659 88.0293Z"
    fill="#00308D"
  />
<path
    d="M101.659 97.6738H28.3544C27.5334 97.6738 26.8678 98.3399 26.8678 99.1615C26.8678 99.9831 27.5334 100.649 28.3544 100.649H101.659C102.48 100.649 103.145 99.9831 103.145 99.1615C103.145 98.3399 102.48 97.6738 101.659 97.6738Z"
    fill="#00308D"
  />
<path
    d="M101.659 107.318H28.3544C27.5334 107.318 26.8678 107.984 26.8678 108.806C26.8678 109.628 27.5334 110.294 28.3544 110.294H101.659C102.48 110.294 103.145 109.628 103.145 108.806C103.145 107.984 102.48 107.318 101.659 107.318Z"
    fill="#00308D"
  />
<path
    fill-rule="evenodd"
    clip-rule="evenodd"
    d="M46.7574 49.7617H83.0508L65.5905 75.0524L83.0508 100.343H46.7574L63.811 75.0524L46.7574 49.7617Z"
    fill="#00308D"
  />
<path
    d="M65.0066 66.7935C78.1429 66.7935 88.792 56.1366 88.792 42.9905C88.792 29.8445 78.1429 19.1875 65.0066 19.1875C51.8702 19.1875 41.2211 29.8445 41.2211 42.9905C41.2211 56.1366 51.8702 66.7935 65.0066 66.7935Z"
    fill="#03ABFF"
  />
<path
    d="M78.5276 31.6421L78.7007 34.6863C74.5111 34.9284 69.352 35.1014 63.2235 35.2398C63.085 36.4159 63.0157 37.5921 62.9465 38.7683C64.4353 38.4569 66.0281 38.3186 67.6901 38.3186C68.1402 38.3186 68.5903 38.3186 69.075 38.3532L69.5598 36.5197L72.7453 37.2462C72.6068 37.7997 72.4337 38.3877 72.2952 38.9412C73.507 39.2872 74.615 39.8407 75.6538 40.5325C78.1814 42.2622 79.4625 44.6145 79.4625 47.5896C79.4625 50.7375 78.3545 53.1591 76.2078 54.8887C74.1995 56.4454 71.1525 57.5178 67.0668 58.0713L65.9242 55.1655C69.2482 54.7504 71.7412 53.9547 73.4031 52.8477C75.2036 51.5678 76.1385 49.8035 76.1385 47.5896C76.1385 45.514 75.1344 43.8881 73.1954 42.7465C72.6068 42.4006 71.9835 42.1584 71.3603 41.9509C70.3215 44.9259 69.075 47.5204 67.6554 49.6998C64.5738 54.3007 60.7997 56.6184 56.2985 56.6184C54.5673 56.6184 53.1476 56.0649 52.1089 54.9579C51.0702 53.8509 50.5508 52.3634 50.5508 50.4954C50.5508 47.2436 52.1435 44.407 55.3983 42.02C56.6794 41.0514 58.0644 40.2904 59.5879 39.7369C59.6225 38.2494 59.7264 36.7619 59.8649 35.2744C57.0949 35.2744 54.1864 35.3089 51.1048 35.3089L51.0702 32.2301C54.3249 32.2301 57.3719 32.1956 60.2111 32.1956C60.3842 30.8118 60.6266 29.3935 60.9036 28.0098L64.193 28.7016C63.9506 29.8432 63.7428 30.9848 63.6043 32.161C69.6637 32.0226 74.6496 31.8496 78.5276 31.6421ZM68.0823 41.3477H67.6352C65.9152 41.3477 64.3328 41.5215 62.8536 41.9038V41.9733C62.8536 44.8235 63.0256 47.4651 63.404 49.8634C63.8512 49.3073 64.2984 48.6816 64.78 48.0212C66.0528 46.0748 67.1536 43.8502 68.0823 41.3477ZM59.5585 43.1944C58.899 43.5043 58.2742 43.883 57.7189 44.2961C55.1158 46.1207 53.8315 48.1864 53.8315 50.493C53.8315 52.5242 54.6298 53.557 56.2958 53.557C57.7536 53.557 59.1767 53.1438 60.4956 52.3864C59.9403 49.5979 59.6279 46.5339 59.5585 43.1944Z"
    fill="white"
  />
<path
    d="M65.0066 131.225C78.1429 131.225 88.792 120.568 88.792 107.422C88.792 94.2761 78.1429 83.6191 65.0066 83.6191C51.8702 83.6191 41.2211 94.2761 41.2211 107.422C41.2211 120.568 51.8702 131.225 65.0066 131.225Z"
    fill="#03ABFF"
  />
<path
    d="M62.4436 90.4922H67.5288L78.8064 119.795H74.0083L71.2606 112.243H58.6707L55.9231 119.795H51.166L62.4436 90.4922ZM60.0241 108.55H69.9073L65.0682 95.2938H64.9042L60.0241 108.55Z"
    fill="white"
  />
<defs>
<linearGradient id="paint0_linear" x1="64.8529" y1="9.02734" x2="64.8529" y2="140.867" gradientUnits="userSpaceOnUse">
<stop stop-color="#8400DB" />
<stop offset="1" stop-color="#4D00B4" />
</linearGradient>
</defs>
</svg>
