<svg width="81" height="80" viewBox="0 0 81 80" fill="none" xmlns="http://www.w3.org/2000/svg">
<g clip-path="url(#clip0_2_292)">
<path
      opacity="0.21789"
      fill-rule="evenodd"
      clip-rule="evenodd"
      d="M35.2635 0.625L69.5741 20.4343V60.0528L35.2635 79.862L0.95282 60.0528V20.4343L35.2635 0.625Z"
      fill="#0043C5"
    />
<path
      opacity="0.343424"
      fill-rule="evenodd"
      clip-rule="evenodd"
      d="M44.2595 5.46924L73.7756 22.4239V56.3332L44.2595 73.2878L14.7433 56.3332V22.4239L44.2595 5.46924Z"
      fill="#0043C5"
    />
<path
      fill-rule="evenodd"
      clip-rule="evenodd"
      d="M55.3324 10.6592L80.953 25.4512V55.0354L55.3324 69.8274L29.7118 55.0354V25.4512L55.3324 10.6592Z"
      fill="#0043C5"
    />
<path
      d="M44.7789 36.9566C46.4966 36.9566 47.8931 35.5601 47.8931 33.8425C47.8931 32.1249 46.4966 30.7284 44.7789 30.7284C43.0613 30.7284 41.6648 32.1249 41.6648 33.8425C41.6648 35.5601 43.0613 36.9566 44.7789 36.9566ZM66.5778 36.9566C68.2954 36.9566 69.6919 35.5601 69.6919 33.8425C69.6919 32.1249 68.2954 30.7284 66.5778 30.7284C64.8601 30.7284 63.4636 32.1249 63.4636 33.8425C63.4636 35.5601 64.8601 36.9566 66.5778 36.9566ZM68.3516 38.3407H65.2813C64.4369 38.3407 63.6741 38.6871 63.1176 39.2482C65.051 40.3265 66.423 42.2732 66.7205 44.5859C66.4826 45.4973 66.4826 45.953 66.7205 45.953C67.1863 45.953 68.2417 45.4973 69.8868 44.5859C70.7359 44.5859 71.422 43.8882 71.422 43.0246V41.4633C71.422 39.741 70.0451 38.3407 68.3516 38.3407ZM55.6783 38.3407C58.6425 38.3407 61.0416 35.9416 61.0416 32.9775C61.0416 30.0133 58.6425 27.6143 55.6783 27.6143C52.7142 27.6143 50.3151 30.0133 50.3151 32.9775C50.3151 35.9416 52.7142 38.3407 55.6783 38.3407ZM59.5883 40.0707H59.1844C58.1723 40.5563 57.0483 40.8476 55.8514 40.8476C54.6544 40.8476 53.5352 40.5563 52.5183 40.0707H52.1144C49.0198 40.0707 46.509 42.5761 46.509 45.6641V47.0624C46.509 48.349 47.5551 49.3929 48.8446 49.3929C51.9466 51.7131 54.2822 52.8732 55.8514 52.8732C57.3963 52.8732 59.7319 51.7131 62.8581 49.3929C64.1476 49.3929 65.1937 48.349 65.1937 47.0624V45.6641C65.1937 42.5761 62.683 40.0707 59.5883 40.0707ZM48.5851 39.5865C48.0286 39.0301 47.2658 38.6867 46.4214 38.6867H43.3511C41.6576 38.6867 40.2808 40.075 40.2808 41.7827V43.3307C40.2808 44.1869 40.9668 44.8787 41.8159 44.8787C43.5514 45.8255 44.6053 46.299 44.9774 46.299C45.3078 46.299 45.3078 45.8255 44.9774 44.8787C45.2797 42.5857 46.6517 40.6555 48.5851 39.5865Z"
      fill="white"
    />
</g>
<defs>
<clipPath id="clip0_2_292">
<rect width="80" height="80" fill="white" transform="translate(0.95282)" />
</clipPath>
</defs>
</svg>
