<svg width="80" height="80" viewBox="0 0 80 80" fill="none" xmlns="http://www.w3.org/2000/svg">
<g clip-path="url(#clip0_2_278)">
<path
      opacity="0.21789"
      fill-rule="evenodd"
      clip-rule="evenodd"
      d="M34.523 0.625L68.8337 20.4343V60.0528L34.523 79.862L0.212402 60.0528V20.4343L34.523 0.625Z"
      fill="#0043C5"
    />
<path
      opacity="0.343424"
      fill-rule="evenodd"
      clip-rule="evenodd"
      d="M43.5191 5.46924L73.0352 22.4239V56.3332L43.5191 73.2878L14.0029 56.3332V22.4239L43.5191 5.46924Z"
      fill="#0043C5"
    />
<path
      fill-rule="evenodd"
      clip-rule="evenodd"
      d="M54.5913 10.6592L80.2119 25.4512V55.0354L54.5913 69.8274L28.9707 55.0354V25.4512L54.5913 10.6592Z"
      fill="#0043C5"
    />
<path
      d="M42.7668 48.9212V30.2829C42.7668 29.7648 42.3541 29.3447 41.8451 29.3447C41.3361 29.3447 40.9234 29.7648 40.9234 30.2829V49.8594C40.9234 50.3775 41.3361 50.7975 41.8451 50.7975H68.3749C68.8839 50.7975 69.2965 50.3775 69.2965 49.8594C69.2965 49.3412 68.8839 48.9212 68.3749 48.9212H42.7668Z"
      fill="white"
    />
<path
      d="M48.2142 42.2399L53.2893 45.9229C53.6761 46.2036 54.2205 46.0133 54.3545 45.5506L56.6213 37.7258L58.6533 41.5932C58.908 42.0779 59.5887 42.0906 59.8608 41.6157L66.0888 30.743C66.2805 30.4084 66.1683 29.9796 65.8383 29.7853C65.5083 29.591 65.0854 29.7047 64.8937 30.0393L59.2893 39.8233L57.0452 35.5524C56.7541 34.9985 55.9467 35.0822 55.7723 35.6843L53.3026 44.2094L48.4585 40.6942C48.1489 40.4695 47.7184 40.5411 47.4958 40.8542L44.1681 45.5348C43.9449 45.8487 44.015 46.2865 44.3246 46.5128C44.6341 46.739 45.066 46.668 45.2892 46.3541L48.2142 42.2399Z"
      fill="white"
    />
<path
      fill-rule="evenodd"
      clip-rule="evenodd"
      d="M66.4915 28.497L66.1967 33.4368L62.3858 31.2237L66.4915 28.497Z"
      fill="white"
      stroke="white"
    />
</g>
<defs>
<clipPath id="clip0_2_278">
<rect width="80" height="80" fill="white" />
</clipPath>
</defs>
</svg>
