<svg width="81" height="80" viewBox="0 0 81 80" fill="none" xmlns="http://www.w3.org/2000/svg">
<g clip-path="url(#clip0_2_285)">
<path
      opacity="0.21789"
      fill-rule="evenodd"
      clip-rule="evenodd"
      d="M34.787 0.625L69.0977 20.4343V60.0528L34.787 79.862L0.47641 60.0528V20.4343L34.787 0.625Z"
      fill="#0043C5"
    />
<path
      opacity="0.343424"
      fill-rule="evenodd"
      clip-rule="evenodd"
      d="M43.7831 5.46924L73.2992 22.4239V56.3332L43.7831 73.2878L14.2669 56.3332V22.4239L43.7831 5.46924Z"
      fill="#0043C5"
    />
<path
      fill-rule="evenodd"
      clip-rule="evenodd"
      d="M54.856 10.6592L80.4766 25.4512V55.0354L54.856 69.8274L29.2354 55.0354V25.4512L54.856 10.6592Z"
      fill="#0043C5"
    />
<path
      d="M55.1639 25C47.4098 25 41.1014 31.4486 41.1014 39.375C41.1014 47.3014 47.4098 53.75 55.1639 53.75C62.918 53.75 69.2264 47.3014 69.2264 39.375C69.2264 31.4486 62.918 25 55.1639 25ZM67.6924 39.375C67.6924 40.6084 67.5204 41.8014 67.2006 42.931H61.9798C62.0937 41.7663 62.1589 40.5739 62.1589 39.3816C62.1589 38.1893 62.0937 36.997 61.9798 35.8323H67.2045C67.5218 36.9579 67.6924 38.1464 67.6924 39.375ZM66.5603 34.0578H61.7627C61.3841 31.555 60.732 29.262 59.8181 27.4851C62.804 28.7108 65.225 31.079 66.5603 34.0578ZM60.4173 39.3816C60.4173 40.6128 60.3521 41.7941 60.2383 42.931H50.1855C50.0716 41.7941 50.0065 40.6128 50.0065 39.3816C50.0065 38.1504 50.0716 36.9692 50.1855 35.8323H60.2383C60.3521 36.9693 60.4173 38.1505 60.4173 39.3816ZM57.2761 26.751C58.5088 28.1573 59.4959 30.7846 60.0159 34.0577H50.4133C50.9357 30.769 51.9297 28.1321 53.1707 26.7308C53.82 26.6243 54.4856 26.568 55.1639 26.568C55.8836 26.5681 56.5891 26.6314 57.2761 26.751ZM50.6313 27.4358C49.7041 29.2195 49.0443 31.5316 48.6664 34.0578H43.7675C45.1209 31.0386 47.5894 28.6467 50.6313 27.4358ZM48.444 42.931H43.1273C42.8074 41.8015 42.6354 40.6084 42.6354 39.375C42.6354 38.1464 42.8059 36.9579 43.1233 35.8323H48.4494C48.3354 36.997 48.2704 38.1893 48.2704 39.3816C48.2704 40.5739 48.3354 41.7663 48.444 42.931ZM43.7735 44.7056H48.6664C49.0475 47.225 49.7057 49.5316 50.6292 51.3134C47.5928 50.104 45.128 47.7178 43.7735 44.7056ZM53.1575 52.0169C51.9227 50.612 50.9339 47.9826 50.4133 44.7056H60.0158C59.4977 47.9669 58.5159 50.5868 57.2893 51.9967C56.5982 52.118 55.8882 52.1819 55.1638 52.1819C54.481 52.1819 53.811 52.125 53.1575 52.0169ZM59.8335 51.2585C60.7423 49.4843 61.3909 47.1993 61.7682 44.7056H66.5542C65.2199 47.6729 62.8079 50.0328 59.8335 51.2585Z"
      fill="white"
    />
</g>
<defs>
<clipPath id="clip0_2_285">
<rect width="80" height="80" fill="white" transform="translate(0.47641)" />
</clipPath>
</defs>
</svg>
