<svg viewBox="0 0 16 18" fill="none" xmlns="http://www.w3.org/2000/svg" preserveAspectRatio="xMidYMid meet">
<path
    d="M5.24685 10.125H3.82878C3.5948 10.125 3.40336 9.93516 3.40336 9.70312V8.29688C3.40336 8.06484 3.5948 7.875 3.82878 7.875H5.24685C5.48083 7.875 5.67227 8.06484 5.67227 8.29688V9.70312C5.67227 9.93516 5.48083 10.125 5.24685 10.125ZM9.07563 9.70312V8.29688C9.07563 8.06484 8.88419 7.875 8.65021 7.875H7.23214C6.99816 7.875 6.80672 8.06484 6.80672 8.29688V9.70312C6.80672 9.93516 6.99816 10.125 7.23214 10.125H8.65021C8.88419 10.125 9.07563 9.93516 9.07563 9.70312ZM12.479 9.70312V8.29688C12.479 8.06484 12.2876 7.875 12.0536 7.875H10.6355C10.4015 7.875 10.2101 8.06484 10.2101 8.29688V9.70312C10.2101 9.93516 10.4015 10.125 10.6355 10.125H12.0536C12.2876 10.125 12.479 9.93516 12.479 9.70312ZM9.07563 13.0781V11.6719C9.07563 11.4398 8.88419 11.25 8.65021 11.25H7.23214C6.99816 11.25 6.80672 11.4398 6.80672 11.6719V13.0781C6.80672 13.3102 6.99816 13.5 7.23214 13.5H8.65021C8.88419 13.5 9.07563 13.3102 9.07563 13.0781ZM5.67227 13.0781V11.6719C5.67227 11.4398 5.48083 11.25 5.24685 11.25H3.82878C3.5948 11.25 3.40336 11.4398 3.40336 11.6719V13.0781C3.40336 13.3102 3.5948 13.5 3.82878 13.5H5.24685C5.48083 13.5 5.67227 13.3102 5.67227 13.0781ZM12.479 13.0781V11.6719C12.479 11.4398 12.2876 11.25 12.0536 11.25H10.6355C10.4015 11.25 10.2101 11.4398 10.2101 11.6719V13.0781C10.2101 13.3102 10.4015 13.5 10.6355 13.5H12.0536C12.2876 13.5 12.479 13.3102 12.479 13.0781ZM15.8824 3.9375V16.3125C15.8824 17.2441 15.1201 18 14.1807 18H1.70168C0.762211 18 0 17.2441 0 16.3125V3.9375C0 3.00586 0.762211 2.25 1.70168 2.25H3.40336V0.421875C3.40336 0.189844 3.5948 0 3.82878 0H5.24685C5.48083 0 5.67227 0.189844 5.67227 0.421875V2.25H10.2101V0.421875C10.2101 0.189844 10.4015 0 10.6355 0H12.0536C12.2876 0 12.479 0.189844 12.479 0.421875V2.25H14.1807C15.1201 2.25 15.8824 3.00586 15.8824 3.9375ZM14.1807 16.1016V5.625H1.70168V16.1016C1.70168 16.2176 1.7974 16.3125 1.91439 16.3125H13.968C14.085 16.3125 14.1807 16.2176 14.1807 16.1016Z"
  />
</svg>
