<svg viewBox="0 0 40 40" xmlns="http://www.w3.org/2000/svg" preserveAspectRatio="xMidYMid meet">
<path
    d="M20 0.625C9.29688 0.625 0.625 9.29688 0.625 20C0.625 30.7031 9.29688 39.375 20 39.375C30.7031 39.375 39.375 30.7031 39.375 20C39.375 9.29688 30.7031 0.625 20 0.625ZM20 35.625C11.3672 35.625 4.375 28.6328 4.375 20C4.375 11.3672 11.3672 4.375 20 4.375C28.6328 4.375 35.625 11.3672 35.625 20C35.625 28.6328 28.6328 35.625 20 35.625ZM27.9531 15.1406L23.0938 20L27.9531 24.8594C28.3203 25.2266 28.3203 25.8203 27.9531 26.1875L26.1875 27.9531C25.8203 28.3203 25.2266 28.3203 24.8594 27.9531L20 23.0938L15.1406 27.9531C14.7734 28.3203 14.1797 28.3203 13.8125 27.9531L12.0469 26.1875C11.6797 25.8203 11.6797 25.2266 12.0469 24.8594L16.9062 20L12.0469 15.1406C11.6797 14.7734 11.6797 14.1797 12.0469 13.8125L13.8125 12.0469C14.1797 11.6797 14.7734 11.6797 15.1406 12.0469L20 16.9062L24.8594 12.0469C25.2266 11.6797 25.8203 11.6797 26.1875 12.0469L27.9531 13.8125C28.3203 14.1797 28.3203 14.7734 27.9531 15.1406Z"
  />
</svg>
