<svg viewBox="0 0 31 30" xmlns="http://www.w3.org/2000/svg" preserveAspectRatio="xMidYMid meet">
<path
    d="M28.4477 12.1875H18.8049V3.75C18.8049 2.71465 17.8453 1.875 16.662 1.875H14.5191C13.3359 1.875 12.3763 2.71465 12.3763 3.75V12.1875H2.73343C1.55017 12.1875 0.590576 13.0271 0.590576 14.0625V15.9375C0.590576 16.9729 1.55017 17.8125 2.73343 17.8125H12.3763V26.25C12.3763 27.2854 13.3359 28.125 14.5191 28.125H16.662C17.8453 28.125 18.8049 27.2854 18.8049 26.25V17.8125H28.4477C29.631 17.8125 30.5906 16.9729 30.5906 15.9375V14.0625C30.5906 13.0271 29.631 12.1875 28.4477 12.1875Z"
  />
</svg>
