<svg viewBox="0 0 18 18" xmlns="http://www.w3.org/2000/svg" preserveAspectRatio="xMidYMid meet">
<path
    d="M17.7529 7.00885L16.9574 6.21337C16.6279 5.88385 16.0936 5.88385 15.7642 6.21337L15.5653 6.41224L11.5878 2.43477L11.7867 2.23589C12.1162 1.90637 12.1162 1.37214 11.7867 1.04266L10.9912 0.24714C10.6617 -0.0823799 10.1274 -0.0823799 9.79793 0.24714L5.4227 4.62237C5.09318 4.95189 5.09318 5.48612 5.4227 5.81561L6.21818 6.61109C6.5477 6.94061 7.08194 6.94061 7.41142 6.61109L7.6103 6.41221L9.00242 7.80433L6.15336 10.6534L5.95448 10.4545C5.51513 10.0152 4.80283 10.0152 4.36348 10.4545L0.329511 14.4886C-0.109837 14.9279 -0.109837 15.6402 0.329511 16.0795L1.92051 17.6705C2.35985 18.1099 3.07216 18.1099 3.5115 17.6705L7.54551 13.6365C7.98486 13.1972 7.98486 12.4849 7.54551 12.0455L7.34663 11.8467L10.1957 8.9976L11.5878 10.3897L11.3889 10.5886C11.0594 10.9181 11.0594 11.4524 11.3889 11.7818L12.1844 12.5773C12.5139 12.9068 13.0482 12.9068 13.3776 12.5773L17.7529 8.20208C18.0824 7.8726 18.0824 7.33837 17.7529 7.00885Z"
  />
</svg>
