<svg viewBox="0 0 34 30" fill="none" xmlns="http://www.w3.org/2000/svg" preserveAspectRatio="xMidYMid meet">
<g clip-path="url(#clip0)">
<path
      d="M32.9582 25.782C34.0263 27.6567 32.6856 30 30.5521 30H2.78092C0.643362 30 -0.691245 27.653 0.374843 25.782L14.2606 1.40537C15.3293 -0.470156 18.006 -0.466758 19.0728 1.40537L32.9582 25.782ZM16.6667 20.7422C15.1965 20.7422 14.0046 21.9489 14.0046 23.4375C14.0046 24.9261 15.1965 26.1328 16.6667 26.1328C18.1369 26.1328 19.3287 24.9261 19.3287 23.4375C19.3287 21.9489 18.1369 20.7422 16.6667 20.7422ZM14.1393 11.0539L14.5686 19.0227C14.5887 19.3956 14.8932 19.6875 15.262 19.6875H18.0714C18.4402 19.6875 18.7447 19.3956 18.7648 19.0227L19.1941 11.0539C19.2158 10.6512 18.899 10.3125 18.5007 10.3125H14.8327C14.4343 10.3125 14.1176 10.6512 14.1393 11.0539Z"
    />
</g>
<defs>
<clipPath id="clip0">
<rect width="33.3333" height="30" fill="white" />
</clipPath>
</defs>
</svg>
