<svg xmlns="http://www.w3.org/2000/svg" viewBox="0 0 24 24" preserveAspectRatio="xMidYMid meet">
  <path
    d="M22.8467 14.7977L20.8498 13.6446C21.0514 12.5571 21.0514 11.4414 20.8498 10.3539L22.8467 9.20082C23.0764 9.06957 23.1795 8.7977 23.1045 8.54457C22.5842 6.87582 21.6983 5.36645 20.5405 4.1102C20.3623 3.91801 20.0717 3.87114 19.8467 4.00239L17.8498 5.15551C17.0108 4.43364 16.0452 3.87583 14.9998 3.5102V1.20864C14.9998 0.946138 14.817 0.71645 14.5592 0.6602C12.8389 0.275825 11.0764 0.294575 9.44047 0.6602C9.18266 0.71645 8.99985 0.946138 8.99985 1.20864V3.51489C7.95922 3.8852 6.9936 4.44301 6.14985 5.1602L4.15766 4.00708C3.92797 3.87582 3.64203 3.91801 3.46391 4.11489C2.3061 5.36645 1.42016 6.87582 0.899847 8.54926C0.82016 8.80239 0.927972 9.07426 1.15766 9.20551L3.15453 10.3586C2.95297 11.4461 2.95297 12.5618 3.15453 13.6493L1.15766 14.8024C0.927972 14.9336 0.824847 15.2055 0.899847 15.4586C1.42016 17.1274 2.3061 18.6368 3.46391 19.893C3.64203 20.0852 3.93266 20.1321 4.15766 20.0008L6.15453 18.8477C6.9936 19.5696 7.95922 20.1274 9.00453 20.493V22.7993C9.00453 23.0618 9.18735 23.2914 9.44516 23.3477C11.1655 23.7321 12.928 23.7133 14.5639 23.3477C14.8217 23.2914 15.0045 23.0618 15.0045 22.7993V20.493C16.0452 20.1227 17.0108 19.5649 17.8545 18.8477L19.8514 20.0008C20.0811 20.1321 20.367 20.0899 20.5452 19.893C21.703 18.6414 22.5889 17.1321 23.1092 15.4586C23.1795 15.2008 23.0764 14.9289 22.8467 14.7977ZM11.9998 15.7493C9.93266 15.7493 8.24985 14.0664 8.24985 11.9993C8.24985 9.93207 9.93266 8.24926 11.9998 8.24926C14.067 8.24926 15.7498 9.93207 15.7498 11.9993C15.7498 14.0664 14.067 15.7493 11.9998 15.7493Z"
  />
</svg>
