<svg viewBox="0 0 24 25" fill="none" xmlns="http://www.w3.org/2000/svg">
<path
    fill-rule="evenodd"
    clip-rule="evenodd"
    d="M0 12.5C0 5.87321 5.37321 0.5 12 0.5C18.6268 0.5 24 5.87321 24 12.5C24 19.1268 18.6268 24.5 12 24.5C5.37321 24.5 0 19.1268 0 12.5ZM2.03571 12.5C2.03571 18.0018 6.49821 22.4643 12 22.4643C17.5018 22.4643 21.9643 18.0018 21.9643 12.5C21.9643 6.99821 17.5018 2.53571 12 2.53571C6.49821 2.53571 2.03571 6.99821 2.03571 12.5ZM15.7526 8.24023H17.0089C17.183 8.24023 17.2847 8.43845 17.1803 8.58041L11.5392 16.4018C11.4604 16.5119 11.3564 16.6016 11.236 16.6634C11.1156 16.7253 10.9822 16.7575 10.8468 16.7575C10.7114 16.7575 10.578 16.7253 10.4576 16.6634C10.3372 16.6016 10.2332 16.5119 10.1544 16.4018L6.81688 11.7733C6.7151 11.6313 6.81688 11.4331 6.99099 11.4331H8.24724C8.52314 11.4331 8.78028 11.567 8.94099 11.7893L10.8481 14.4358L15.0588 8.59648C15.2196 8.37148 15.4794 8.24023 15.7526 8.24023Z"
  />
</svg>
