<svg width="16" height="17" viewBox="0 0 16 17" fill="none" xmlns="http://www.w3.org/2000/svg">
<path
    d="M6.5154 1.82077L7.30817 1.03662C7.64384 0.704591 8.18664 0.704591 8.51875 1.03662L15.4608 7.89971C15.7965 8.23174 15.7965 8.76864 15.4608 9.09713L8.51875 15.9638C8.18307 16.2958 7.64027 16.2958 7.30817 15.9638L6.5154 15.1796C6.17615 14.844 6.18329 14.2966 6.52968 13.9681L10.8328 9.91307L0.569633 9.91307C0.0946857 9.91307 -0.287415 9.53513 -0.287415 9.06534L-0.287415 7.93503C-0.287415 7.46525 0.0946857 7.0873 0.569633 7.0873L10.8328 7.0873L6.52968 3.03232C6.17972 2.70382 6.17258 2.15633 6.5154 1.82077Z"
    fill="#F1FAFF"
  />
</svg>
