<svg viewBox="0 0 17 16" xmlns="http://www.w3.org/2000/svg" preserveAspectRatio="xMidYMid meet">
<path
    d="M8.88477 0.25C4.60352 0.25 1.13477 3.71875 1.13477 8C1.13477 12.2812 4.60352 15.75 8.88477 15.75C13.166 15.75 16.6348 12.2812 16.6348 8C16.6348 3.71875 13.166 0.25 8.88477 0.25ZM10.6691 11.1906L7.91289 9.1875C7.81602 9.11563 7.75977 9.00312 7.75977 8.88437V3.625C7.75977 3.41875 7.92852 3.25 8.13477 3.25H9.63477C9.84102 3.25 10.0098 3.41875 10.0098 3.625V7.92812L11.9941 9.37187C12.1629 9.49375 12.1973 9.72813 12.0754 9.89688L11.1941 11.1094C11.0723 11.275 10.8379 11.3125 10.6691 11.1906Z"
  />
</svg>
