<svg xmlns="http://www.w3.org/2000/svg" viewBox="0 0 727.31 217.26"><defs><style
    >.a,.g{fill:#7bc8f9;}.a,.b,.c,.d{fill-rule:evenodd;}.b,.f{fill:#fff;}.c{fill:#4aa8f7;}.d,.e{fill:#1746bd;}</style></defs><title
  >linguo new white</title><path
    class="a"
    d="M155.09,122.73h0a1.62,1.62,0,0,1,0,.22Zm-1-5.82.07.4h0ZM90.91,84.75c-1.42-2.68-5.85-7.46-12.45-6.33a11.43,11.43,0,0,0-9.75,10.32,1.76,1.76,0,0,0,1.64,1.86h.12A1.76,1.76,0,0,0,72.22,89a8,8,0,0,1,6.83-7.09c5.72-1,8.64,4.3,8.75,4.52a1.76,1.76,0,0,0,3.11-1.65Zm37.38-7.22c-1.42-2.68-5.85-7.46-12.45-6.33a11.43,11.43,0,0,0-9.75,10.32,1.77,1.77,0,0,0,1.65,1.87h.11a1.76,1.76,0,0,0,1.75-1.65,8.66,8.66,0,0,1,1-3.12,7.73,7.73,0,0,1,5.83-4c5.72-1,8.64,4.3,8.75,4.52a1.76,1.76,0,0,0,2.38.72A1.74,1.74,0,0,0,128.29,77.53ZM106.93,19.82a96,96,0,0,0-11.7.72A8.32,8.32,0,0,1,93,23.85l3.15,10.77q2.19-.18,4.38-.18c17.9,0,34.13,9.06,44,27.45,0,0,4.23,7.58,7.26,20.67,5.67-.3,10.9,4.58,11.9,11.33,1,6.42-2.22,12.33-7.27,14.08l3,17.1a4.4,4.4,0,0,1-3,5c-48.85,18.69-95.2,18-95.2,18a4.21,4.21,0,0,1-4.44-3.48l-3.17-18a9.5,9.5,0,0,1-1.76-.1c-6-.89-10-7.38-9-14.49a13.68,13.68,0,0,1,6.58-10.06c-.65-5.25-1.48-13.87-.9-20.08l.09-.81c.1-.82.22-1.6.38-2.31C52.3,56.53,66.34,41.9,85.18,36.6l-.72-11.2a8.26,8.26,0,0,1-3-2.09h0A93.86,93.86,0,0,0,44.74,184.16c9-13.67,20.66-20.67,27.62-16.65l.27.16a38.17,38.17,0,0,1,15.2-13.11,67,67,0,0,1,28.54-6.12,66.12,66.12,0,0,1,31,7.4,67,67,0,0,1,4.77-10.07c4.24-7.35,9.54-13.52,14.94-17.39,5.81-4.17,11.16-5.23,15-3s5.65,7.41,4.94,14.53c-.66,6.61-3.35,14.29-7.59,21.63a57.54,57.54,0,0,1-14.07,16.75,35.66,35.66,0,0,1,1.3,7.86A93.87,93.87,0,0,0,106.93,19.82Zm9.3,85.06a1.74,1.74,0,0,0-2.48,0s-3,2.81-9.09,3.9A23.36,23.36,0,0,1,94,108.28a1.76,1.76,0,1,0-1.17,3.31,23.74,23.74,0,0,0,7.38,1,28.54,28.54,0,0,0,5.06-.45c7.13-1.27,10.75-4.68,10.9-4.83A1.74,1.74,0,0,0,116.23,104.88Zm6.51-61.36A23.92,23.92,0,0,1,119,55.67,99.66,99.66,0,0,1,139.41,60,47.5,47.5,0,0,0,122.74,43.52ZM70.21,200.19l-.55-.24.58.25Zm.34-29.54a5.26,5.26,0,0,0-2.67-.67c-5.58,0-13.94,6.78-20.32,16.48l0,.06a93.65,93.65,0,0,0,18.41,11.73v-8.84a38.68,38.68,0,0,1,4.8-18.65Z"
  /><path
    class="b"
    d="M71.77,63.81A88.44,88.44,0,0,0,52.93,76.62,47.52,47.52,0,0,1,64.86,52.37,24.46,24.46,0,0,0,71.77,63.81Z"
  /><path
    class="b"
    d="M139.41,60A99.66,99.66,0,0,0,119,55.67a23.92,23.92,0,0,0,3.75-12.15A47.5,47.5,0,0,1,139.41,60Z"
  /><path
    class="b"
    d="M163.69,93.89c-1-6.75-6.23-11.63-11.9-11.33-3-13.09-7.26-20.67-7.26-20.67-9.83-18.39-26.06-27.45-44-27.45q-2.19,0-4.38.18L93,23.85a8.32,8.32,0,0,0,2.19-3.31,8,8,0,0,0,.34-4.15,8.17,8.17,0,1,0-14.51,6.44l.4.48h0a8.26,8.26,0,0,0,3,2.09l.72,11.2C66.34,41.9,52.3,56.53,49,78.73c-.16.71-.28,1.49-.38,2.31l-.09.81c-.58,6.21.25,14.83.9,20.08A13.68,13.68,0,0,0,42.86,112c-1.06,7.11,3,13.6,9,14.49a9.5,9.5,0,0,0,1.76.1l3.17,18a4.21,4.21,0,0,0,4.44,3.48s46.35.67,95.2-18a4.4,4.4,0,0,0,3-5l-3-17.1C161.47,106.22,164.65,100.31,163.69,93.89ZM139.41,60A99.66,99.66,0,0,0,119,55.67a23.92,23.92,0,0,0,3.75-12.15A47.5,47.5,0,0,1,139.41,60ZM87.92,39.24,86.3,22.9a5.12,5.12,0,0,1-1.37-.5h0a5.39,5.39,0,1,1,5.4-.21l4,15.89a46.21,46.21,0,0,1,24.73,3.58c.23,1.56.59,6.93-4.09,13.67a88.58,88.58,0,0,0-21.91,1.21,78.39,78.39,0,0,0-17.93,5.64C68.53,56.27,68,50.36,67.92,49.43A47.05,47.05,0,0,1,87.92,39.24ZM64.86,52.37a24.46,24.46,0,0,0,6.91,11.44A88.44,88.44,0,0,0,52.93,76.62,47.52,47.52,0,0,1,64.86,52.37Zm90.2,71.21c0,.06,0,.12,0,.18a5,5,0,0,1-3,4,6.41,6.41,0,0,1-1,.39h0a262.76,262.76,0,0,1-25.41,7.73,283.59,283.59,0,0,1-31.89,6A220.3,220.3,0,0,1,64.63,144H64l-.21,0-.3-.06-.29-.07-.29-.09-.28-.11-.28-.13-.2-.1-.14-.08-.14-.08-.16-.11-.26-.2a3.25,3.25,0,0,1-.39-.35c-.11-.1-.2-.2-.3-.31l-.09-.13a.64.64,0,0,1-.1-.13l-.13-.18-.14-.21-.08-.14a1.62,1.62,0,0,1-.1-.18c0-.1-.09-.19-.13-.29l-.05-.12-.06-.16a.88.88,0,0,1-.05-.15c0-.09-.06-.19-.08-.28a0,0,0,0,1,0,0c0-.11-.05-.23-.07-.35l-.83-4.78a507.41,507.41,0,0,0,50.94-6.83c24.46-4.51,39.17-9.15,44.42-11l-.07-.4.08.4.77,4.47a6.13,6.13,0,0,1,.1.94h0V123Q155.09,123.26,155.06,123.58Zm.64-19.71a6.46,6.46,0,0,1-1.59.45,6.57,6.57,0,0,1-2.17,0l.73,4.19.9,5.15-.06,0c-2.39.84-8.74,3-19,5.52-6.78,1.71-15.26,3.61-25.42,5.48-17.67,3.25-32.68,5.07-42,6-4.11.42-7.14.66-8.82.79h0l-1-5.72-.7-4a6.76,6.76,0,0,1-3.62.75l-.43,0c-4.12-.61-6.88-5-6.15-9.92A9.53,9.53,0,0,1,50,106.13h0a7,7,0,0,1,3.53-1.35l-.39-2.24c-.1-.6-.2-1.19-.29-1.78a75,75,0,0,1-.72-18.53c3.08-3.13,18.64-18,41.6-22.23,24.64-4.55,46.47,4,48.27,4.73h0a74.86,74.86,0,0,1,6.25,18.71c.15.74.29,1.5.43,2.25l.33,1.93a6.4,6.4,0,0,1,2.46-.9,5.68,5.68,0,0,1,1.16-.06c3.67.12,6.95,3.36,7.6,7.76C160.88,98.61,158.91,102.5,155.7,103.87Z"
  /><path
    class="b"
    d="M116.18,107.36c-.15.15-3.77,3.56-10.9,4.83a28.54,28.54,0,0,1-5.06.45,23.74,23.74,0,0,1-7.38-1A1.76,1.76,0,1,1,94,108.28a23.36,23.36,0,0,0,10.65.45c6.09-1.09,9.06-3.88,9.09-3.9a1.75,1.75,0,0,1,2.43,2.53Z"
  /><path
    class="b"
    d="M90.18,87.13a1.77,1.77,0,0,1-2.38-.73c-.11-.22-3-5.5-8.75-4.52A8,8,0,0,0,72.22,89a1.76,1.76,0,0,1-1.75,1.63h-.12a1.76,1.76,0,0,1-1.64-1.86,11.43,11.43,0,0,1,9.75-10.32c6.6-1.13,11,3.65,12.45,6.33A1.77,1.77,0,0,1,90.18,87.13Z"
  /><path
    class="b"
    d="M127.56,79.9a1.76,1.76,0,0,1-2.38-.72c-.11-.22-3-5.49-8.75-4.52a7.73,7.73,0,0,0-5.83,4,8.66,8.66,0,0,0-1,3.12,1.76,1.76,0,0,1-1.75,1.65h-.11a1.77,1.77,0,0,1-1.65-1.87,11.43,11.43,0,0,1,9.75-10.32c6.6-1.13,11,3.65,12.45,6.33A1.74,1.74,0,0,1,127.56,79.9Z"
  /><polygon class="b" points="154.21 117.31 154.2 117.31 154.13 116.91 154.21 117.31" /><path
    class="b"
    d="M155.09,123a1.62,1.62,0,0,0,0-.22h0Z"
  /><path
    class="c"
    d="M71.77,63.81A88.44,88.44,0,0,0,52.93,76.62,47.52,47.52,0,0,1,64.86,52.37,24.46,24.46,0,0,0,71.77,63.81Z"
  /><path
    class="c"
    d="M139.41,60A99.66,99.66,0,0,0,119,55.67a23.92,23.92,0,0,0,3.75-12.15A47.5,47.5,0,0,1,139.41,60Z"
  /><path
    class="a"
    d="M160.25,94.41c-.65-4.4-3.93-7.64-7.6-7.76a5.68,5.68,0,0,0-1.16.06,6.4,6.4,0,0,0-2.46.9l-.33-1.93c-.14-.75-.28-1.51-.43-2.25A74.86,74.86,0,0,0,142,64.72h0c-1.8-.73-23.63-9.28-48.27-4.73-23,4.24-38.52,19.1-41.6,22.23a75,75,0,0,0,.72,18.53c.09.59.19,1.18.29,1.78l.39,2.24A7,7,0,0,0,50,106.12h0a9.53,9.53,0,0,0-3.72,6.37c-.73,4.87,2,9.31,6.15,9.92l.43,0a6.76,6.76,0,0,0,3.62-.75l.7,4,1,5.72h0c1.68-.13,4.71-.37,8.82-.79,9.37-.95,24.38-2.77,42.05-6,10.16-1.87,18.64-3.77,25.42-5.48,10.24-2.57,16.59-4.68,19-5.52l.06,0-.9-5.15-.73-4.19a6.57,6.57,0,0,0,2.17,0,6.46,6.46,0,0,0,1.59-.45C158.91,102.5,160.88,98.61,160.25,94.41ZM90.18,87.13a1.77,1.77,0,0,1-2.38-.73c-.11-.22-3-5.5-8.75-4.52A8,8,0,0,0,72.22,89a1.76,1.76,0,0,1-1.75,1.63h-.12a1.76,1.76,0,0,1-1.64-1.86,11.43,11.43,0,0,1,9.75-10.32c6.6-1.13,11,3.65,12.45,6.33A1.77,1.77,0,0,1,90.18,87.13Zm26,20.23c-.15.15-3.77,3.56-10.9,4.83a28.54,28.54,0,0,1-5.06.45,23.74,23.74,0,0,1-7.38-1A1.76,1.76,0,1,1,94,108.28a23.36,23.36,0,0,0,10.65.45c6.09-1.09,9.06-3.88,9.09-3.9a1.75,1.75,0,0,1,2.43,2.53ZM127.56,79.9a1.76,1.76,0,0,1-2.38-.72c-.11-.22-3-5.49-8.75-4.52a7.73,7.73,0,0,0-5.83,4,8.66,8.66,0,0,0-1,3.12,1.76,1.76,0,0,1-1.75,1.65h-.11a1.77,1.77,0,0,1-1.65-1.87,11.43,11.43,0,0,1,9.75-10.32c6.6-1.13,11,3.65,12.45,6.33A1.74,1.74,0,0,1,127.56,79.9Z"
  /><path
    class="c"
    d="M90.18,87.13a1.77,1.77,0,0,1-2.38-.73c-.11-.22-3-5.5-8.75-4.52A8,8,0,0,0,72.22,89a1.76,1.76,0,0,1-1.75,1.63h-.12a1.76,1.76,0,0,1-1.64-1.86,11.43,11.43,0,0,1,9.75-10.32c6.6-1.13,11,3.65,12.45,6.33A1.77,1.77,0,0,1,90.18,87.13Z"
  /><path
    class="c"
    d="M127.56,79.9a1.76,1.76,0,0,1-2.38-.72c-.11-.22-3-5.49-8.75-4.52a7.73,7.73,0,0,0-5.83,4,8.66,8.66,0,0,0-1,3.12,1.76,1.76,0,0,1-1.75,1.65h-.11a1.77,1.77,0,0,1-1.65-1.87,11.43,11.43,0,0,1,9.75-10.32c6.6-1.13,11,3.65,12.45,6.33A1.74,1.74,0,0,1,127.56,79.9Z"
  /><path
    class="d"
    d="M139.41,60A99.66,99.66,0,0,0,119,55.67a23.92,23.92,0,0,0,3.75-12.15A47.5,47.5,0,0,1,139.41,60Z"
  /><path
    class="d"
    d="M71.77,63.81A88.44,88.44,0,0,0,52.93,76.62,47.52,47.52,0,0,1,64.86,52.37,24.46,24.46,0,0,0,71.77,63.81Z"
  /><path class="c" d="M149.74,160.59l-.09.33-.27-.19c0-.11.06-.22.09-.33Z" /><path
    class="c"
    d="M182.63,144.16a57.57,57.57,0,0,1-6.34,15.53,55,55,0,0,1-12.11,14.86,36.62,36.62,0,0,0-13.52-16.77,62.5,62.5,0,0,1,4.75-10.15,59.55,59.55,0,0,1,8.8-11.8A43.58,43.58,0,0,0,182.63,144.16Z"
  /><path
    class="c"
    d="M183.4,139.55c0,.38-.08.76-.13,1.15a40.6,40.6,0,0,1-16.47-7.33c.83-.71,1.66-1.37,2.49-2,3.13-2.24,6-3.42,8.4-3.42a5.14,5.14,0,0,1,2.62.64C182.82,130.07,184,134.06,183.4,139.55Z"
  /><path
    class="e"
    d="M183.4,139.55c0,.38-.08.76-.13,1.15a40.6,40.6,0,0,1-16.47-7.33c.83-.71,1.66-1.37,2.49-2,3.13-2.24,6-3.42,8.4-3.42a5.14,5.14,0,0,1,2.62.64C182.82,130.07,184,134.06,183.4,139.55Z"
  /><path
    class="f"
    d="M149.47,160.4c0,.11-.07.22-.09.33l.27.19.09-.33Zm0,0c0,.11-.07.22-.09.33l.27.19.09-.33Zm0,0c0,.11-.07.22-.09.33l.27.19.09-.33Zm0,0c0,.11-.07.22-.09.33l.27.19.09-.33Zm0,0c0,.11-.07.22-.09.33l.27.19.09-.33Zm0,0c0,.11-.07.22-.09.33l.27.19.09-.33Zm0,0c0,.11-.07.22-.09.33l.27.19.09-.33Zm0,0c0,.11-.07.22-.09.33l.27.19.09-.33Zm0,0c0,.11-.07.22-.09.33l.27.19.09-.33Zm0,0c0,.11-.07.22-.09.33l.27.19.09-.33Z"
  /><path
    class="c"
    d="M70.74,170.76a38.68,38.68,0,0,0-4.8,18.65v8.84a93.65,93.65,0,0,1-18.41-11.73l0-.06C53.94,176.76,62.3,170,67.88,170a5.26,5.26,0,0,1,2.67.67Z"
  /><path class="f" d="M70.21,200.19l-.55-.24.58.25Z" /><path class="f" d="M70.21,200.19l-.55-.24.58.25Z" /><path
    class="e"
    d="M73.88,201.65l-.51-.18-.83-.33-.74-.29Z"
  /><path class="e" d="M74.94,202.05l-.11,0-.36-.14Z" /><path
    class="e"
    d="M102.14,207.5c-.79,0-1.58-.08-2.37-.14Z"
  /><path
    class="e"
    d="M110,207.57c-1,0-2,.05-3.07.05-.79,0-1.58,0-2.36,0,.78,0,1.57,0,2.36,0C108,207.62,109,207.61,110,207.57Z"
  /><path class="e" d="M118.07,207c-1.33.16-2.67.29-4,.39C115.4,207.25,116.74,207.13,118.07,207Z" /><path
    class="e"
    d="M130.74,204.58q-1.59.42-3.21.78Q129.15,205,130.74,204.58Z"
  /><path
    class="e"
    d="M163.3,186.85v2l-.35.26-.12.09-.12.09h0c-1,.72-2,1.42-3,2.1-.18.13-.36.24-.54.36l-.46.31-.67.44-.81.52-.94.59-.69.42-.5.3c-.24.15-.47.29-.71.42-.45.27-.91.53-1.36.78l-.75.42c-.25.14-.5.28-.76.41-.43.24-.87.47-1.31.7l-.71.36-1.64.82-.83.39c-.55.27-1.11.52-1.67.77s-1.16.51-1.74.76l-.9.37c-.59.25-1.19.49-1.79.72l-.91.35c-.91.34-1.82.67-2.75,1l-.92.31c-.31.11-.62.2-.93.3l-.93.29-.94.29-.94.27-.95.26-.95.25q-1.59.42-3.21.78h0l-1.36.29-1.24.25-1.13.21-.7.12-1,.18-1,.15-1.16.17-.74.1-.2,0-.88.11c-1.33.16-2.67.28-4,.39l-2,.13-1,0-1,0c-1,0-2,.05-3.07.05-.79,0-1.58,0-2.36,0h-.2c-.74,0-1.49-.05-2.23-.09l-2.37-.14-1.14-.1h0l-1.17-.11L96.25,207c-.58-.06-1.17-.13-1.75-.21l-.74-.1-1-.15-.88-.13-1.41-.24L89.32,206l-1.14-.23-.78-.15-.39-.09-1.19-.26-1-.25c-2.15-.51-4.28-1.11-6.37-1.77l-.24-.08-1-.31-.74-.25-.83-.29-.72-.25-.47-.18L74,201.7l-.12,0-2.08-.8-.41-.17-.08,0-.6-.25-.43-.18,0,0h0l-.55-.24h0l-.2-.09V189.41A35,35,0,0,1,71.33,178s0-.07,0-.11h0c.08-.25.17-.5.26-.74A34.58,34.58,0,0,1,73,173.9c.12-.25.25-.5.38-.75s.25-.47.38-.7.21-.38.32-.57.21-.36.32-.54.24-.4.37-.6.25-.4.38-.6a34.88,34.88,0,0,1,14.15-12.43,63.4,63.4,0,0,1,27-5.78c10.89,0,21.48,2.57,29.91,7.25l.29.16.28.17h0c.35.2.71.42,1.06.64s.71.46,1.07.7l.27.19a2.83,2.83,0,0,1,.28.2c.71.5,1.39,1,2.06,1.6l.6.51.12.12a33,33,0,0,1,8.94,13.21c0,.1.08.2.11.3s.08.21.11.31q.21.6.39,1.2c.13.41.24.81.35,1.22,0,.11.06.22.08.33s.06.21.08.32A32.84,32.84,0,0,1,163.3,186.85Z"
  /><path
    class="c"
    d="M115,55.33a88.58,88.58,0,0,0-21.91,1.21,78.39,78.39,0,0,0-17.93,5.64C68.53,56.27,68,50.36,67.92,49.43a47.05,47.05,0,0,1,20-10.19L86.3,22.9a5.19,5.19,0,0,0,2.08,0,5.36,5.36,0,0,0,2-.75l4,15.89a46.21,46.21,0,0,1,24.73,3.58C119.34,43.22,119.7,48.59,115,55.33Z"
  /><path
    class="c"
    d="M155.09,122.73h0a1.62,1.62,0,0,1,0,.22Zm-38.86-17.85a1.74,1.74,0,0,0-2.48,0s-3,2.81-9.09,3.9A23.36,23.36,0,0,1,94,108.28a1.76,1.76,0,1,0-1.17,3.31,23.74,23.74,0,0,0,7.38,1,28.54,28.54,0,0,0,5.06-.45c7.13-1.27,10.75-4.68,10.9-4.83A1.74,1.74,0,0,0,116.23,104.88Z"
  /><path
    class="d"
    d="M92.77,16.67a5.41,5.41,0,1,0-7.84,5.73h0a5.12,5.12,0,0,0,1.37.5,5.19,5.19,0,0,0,2.08,0,5.41,5.41,0,0,0,4.39-6.27ZM87.58,18.2a.67.67,0,0,1-.77-.54.67.67,0,1,1,.77.54Z"
  /><path
    class="c"
    d="M116.18,107.36c-.15.15-3.77,3.56-10.9,4.83a28.54,28.54,0,0,1-5.06.45,23.74,23.74,0,0,1-7.38-1A1.76,1.76,0,1,1,94,108.28a23.36,23.36,0,0,0,10.65.45c6.09-1.09,9.06-3.88,9.09-3.9a1.75,1.75,0,0,1,2.43,2.53Z"
  /><path
    class="f"
    d="M90.18,87.13a1.77,1.77,0,0,1-2.38-.73c-.11-.22-3-5.5-8.75-4.52A8,8,0,0,0,72.22,89a1.76,1.76,0,0,1-1.75,1.63h-.12a1.76,1.76,0,0,1-1.64-1.86,11.43,11.43,0,0,1,9.75-10.32c6.6-1.13,11,3.65,12.45,6.33A1.77,1.77,0,0,1,90.18,87.13Z"
  /><path
    class="f"
    d="M127.56,79.9a1.76,1.76,0,0,1-2.38-.72c-.11-.22-3-5.49-8.75-4.52a7.73,7.73,0,0,0-5.83,4,8.66,8.66,0,0,0-1,3.12,1.76,1.76,0,0,1-1.75,1.65h-.11a1.77,1.77,0,0,1-1.65-1.87,11.43,11.43,0,0,1,9.75-10.32c6.6-1.13,11,3.65,12.45,6.33A1.74,1.74,0,0,1,127.56,79.9Z"
  /><path
    class="f"
    d="M116.18,107.36c-.15.15-3.77,3.56-10.9,4.83a28.54,28.54,0,0,1-5.06.45,23.74,23.74,0,0,1-7.38-1A1.76,1.76,0,1,1,94,108.28a23.36,23.36,0,0,0,10.65.45c6.09-1.09,9.06-3.88,9.09-3.9a1.75,1.75,0,0,1,2.43,2.53Z"
  /><path class="f" d="M48.63,81l-.09.81A1.86,1.86,0,0,1,48.63,81Z" /><path
    class="d"
    d="M155.09,123q0,.31,0,.63c0,.06,0,.12,0,.18a5,5,0,0,1-3,4,6.41,6.41,0,0,1-1,.39h0a262.76,262.76,0,0,1-25.41,7.73,283.59,283.59,0,0,1-31.89,6A220.3,220.3,0,0,1,64.63,144H64l-.21,0-.3-.06-.29-.07-.29-.09-.28-.11-.28-.13-.2-.1-.14-.08-.14-.08-.16-.11-.26-.2a3.25,3.25,0,0,1-.39-.35l-.3-.31-.09-.13a.64.64,0,0,1-.1-.13l-.13-.18-.14-.21-.08-.14a1.62,1.62,0,0,1-.1-.18c0-.1-.09-.19-.13-.29l-.05-.12-.06-.16a.88.88,0,0,1-.05-.15c0-.09-.06-.19-.08-.28a0,0,0,0,1,0,0c0-.11-.05-.23-.07-.35l-.83-4.78a507.41,507.41,0,0,0,50.94-6.83c24.46-4.51,39.17-9.15,44.42-11h0l.77,4.47a6.13,6.13,0,0,1,.1.94h0A1.62,1.62,0,0,1,155.09,123Z"
  /><polygon class="d" points="154.21 117.31 154.2 117.31 154.13 116.91 154.21 117.31" /><path
    class="f"
    d="M154.13,116.91l.07.4h0Z"
  /><path class="d" d="M67.71,199.09Z" /><path
    class="f"
    d="M165.06,187.53h0a2.11,2.11,0,0,1,.23-.19Zm.69-.55.7-.56h0C166.22,186.61,166,186.79,165.75,187Zm-98,12.1h0Z"
  /><path class="f" d="M165.29,187.35a2.11,2.11,0,0,0-.23.19h0Z" /><path
    class="f"
    d="M67.7,199.08h0Zm97.36-11.55h0a2.11,2.11,0,0,1,.23-.19Z"
  /><path class="f" d="M165.75,187l.7-.56h0C166.22,186.61,166,186.79,165.75,187Z" /><path
    class="f"
    d="M149.47,160.4c0,.11-.07.22-.09.33l.27.19.09-.33Z"
  /><path
    class="f"
    d="M182.17,125.39c-3.89-2.24-9.24-1.18-15,3-5.4,3.87-10.7,10-14.94,17.39a67,67,0,0,0-4.77,10.07,66.12,66.12,0,0,0-31-7.4,67,67,0,0,0-28.54,6.12,38.17,38.17,0,0,0-15.2,13.11l-.27-.16c-7-4-18.57,3-27.62,16.65l.49.43.89.76.91.76.5.41,0-.06C53.94,176.76,62.3,170,67.88,170a5.26,5.26,0,0,1,2.67.67l.19.11a38.68,38.68,0,0,0-4.8,18.65v8.84l.32.16h0l1.42.67h0l.26.12.59.26.55.24.32.14V189.41A35,35,0,0,1,71.33,178s0-.07,0-.11h0c.08-.25.17-.5.26-.74A34.58,34.58,0,0,1,73,173.9c.12-.25.25-.5.38-.75s.25-.47.38-.7.21-.38.32-.57.21-.36.32-.54.24-.4.37-.6.25-.4.38-.6a34.88,34.88,0,0,1,14.15-12.43,63.4,63.4,0,0,1,27-5.78c10.89,0,21.48,2.57,29.91,7.25l.29.16.28.17h0c.35.2.71.42,1.06.64s.71.46,1.07.7l.27.19a2.83,2.83,0,0,1,.28.2c.71.5,1.39,1,2.06,1.6l.6.51.12.12a33,33,0,0,1,8.94,13.21c0,.1.08.2.11.3s.08.21.11.31q.21.6.39,1.2c.13.41.24.81.35,1.22,0,.11.06.22.08.33s.06.21.08.32a32.84,32.84,0,0,1,.9,6.48v2l.32-.24,0,0,0,0,.62-.48c.26-.19.51-.39.76-.59l.23-.18.22-.18h0l.23-.19c.24-.19.47-.37.7-.57l.3-.25a35.66,35.66,0,0,0-1.3-7.86,57.54,57.54,0,0,0,14.07-16.75c4.24-7.34,6.93-15,7.59-21.63C187.82,132.8,186.06,127.64,182.17,125.39Zm-32.52,35.53-.27-.19c0-.11.06-.22.09-.33l.27.19Zm26.64-1.23a55,55,0,0,1-12.11,14.86,36.62,36.62,0,0,0-13.52-16.77,62.5,62.5,0,0,1,4.75-10.15,59.55,59.55,0,0,1,8.8-11.8,43.58,43.58,0,0,0,18.42,8.33A57.57,57.57,0,0,1,176.29,159.69Zm7.11-20.14c0,.38-.08.76-.13,1.15a40.6,40.6,0,0,1-16.47-7.33c.83-.71,1.66-1.37,2.49-2,3.13-2.24,6-3.42,8.4-3.42a5.14,5.14,0,0,1,2.62.64C182.82,130.07,184,134.06,183.4,139.55Z"
  /><path
    class="f"
    d="M270.35,145.76h47.79V159H255.37V52.18h15Zm75.79,13.59H332V87.6h14.16Zm368.28-36a38.7,38.7,0,0,1-2.95,15.24,36.38,36.38,0,0,1-8.16,12A37,37,0,0,1,691,158.41a43.15,43.15,0,0,1-30.53,0,36.24,36.24,0,0,1-12.24-7.85,36.79,36.79,0,0,1-8.08-12,38.53,38.53,0,0,1-2.95-15.24,37.93,37.93,0,0,1,2.95-15.16,36.14,36.14,0,0,1,8.08-11.85,36.67,36.67,0,0,1,12.24-7.77,43.15,43.15,0,0,1,30.53,0,37.43,37.43,0,0,1,12.32,7.77,35.75,35.75,0,0,1,8.16,11.85A38.1,38.1,0,0,1,714.42,123.32Zm-14.77-.08a30.23,30.23,0,0,0-1.59-9.8,24.69,24.69,0,0,0-4.6-8.22A22,22,0,0,0,686,99.56a25.64,25.64,0,0,0-20.37,0,22,22,0,0,0-7.47,5.66,24.71,24.71,0,0,0-4.61,8.22,31.21,31.21,0,0,0,0,19.61,25.65,25.65,0,0,0,4.61,8.29,21.6,21.6,0,0,0,7.47,5.74,25.64,25.64,0,0,0,20.37,0,21.6,21.6,0,0,0,7.47-5.74,25.63,25.63,0,0,0,4.6-8.29A30.29,30.29,0,0,0,699.65,123.24Z"
  /><path
    class="f"
    d="M515.64,154.43a37.34,37.34,0,0,1-9.65,5.5,43.19,43.19,0,0,1-30.65,0,36.1,36.1,0,0,1-12.29-7.87A37,37,0,0,1,454.93,140a38.83,38.83,0,0,1-3-15.3,38.27,38.27,0,0,1,3-15.23,36.16,36.16,0,0,1,8.12-11.89,36.73,36.73,0,0,1,12.29-7.81,43.34,43.34,0,0,1,30.65,0,38.23,38.23,0,0,1,10.1,5.82V88.33h13.72v68.05a56.82,56.82,0,0,1-2,15.05,32.56,32.56,0,0,1-6.63,12.7A33.39,33.39,0,0,1,509,193q-7.54,3.33-18.7,3.32a54.92,54.92,0,0,1-18.77-3.4,47.92,47.92,0,0,1-16.21-9.6l9.05-11a34.19,34.19,0,0,0,11.68,8.47,34.54,34.54,0,0,0,14.4,3.17,30.59,30.59,0,0,0,11.91-2,19.9,19.9,0,0,0,7.77-5.59,21.63,21.63,0,0,0,4.22-8.4,40.77,40.77,0,0,0,1.28-10.43Zm-.9-29.65a30,30,0,0,0-1.6-9.8,24.58,24.58,0,0,0-4.63-8.22A22.12,22.12,0,0,0,501,101.1a26,26,0,0,0-20.5,0,22.12,22.12,0,0,0-7.52,5.66,24.58,24.58,0,0,0-4.63,8.22,30.84,30.84,0,0,0,0,19.61,25.51,25.51,0,0,0,4.63,8.29,21.7,21.7,0,0,0,7.52,5.74,26,26,0,0,0,20.5,0,21.7,21.7,0,0,0,7.52-5.74,25.51,25.51,0,0,0,4.63-8.29A30,30,0,0,0,514.74,124.78Z"
  /><path class="b" d="M371.1,112.85c0,.56,0,1.12,0,1.69v-1.69Z" /><path
    class="b"
    d="M434.74,112.85v1.69c0-.57,0-1.13,0-1.69Z"
  /><path
    class="b"
    d="M434.74,114.54V159h-12.3v-44.5h0a19.54,19.54,0,0,0-39,0h0V159h-12.3v-44.5c0-.57,0-1.13,0-1.69a31.84,31.84,0,0,1,63.6,0C434.73,113.41,434.74,114,434.74,114.54Z"
  /><path
    class="b"
    d="M617.71,87.28v44.5c0,.56,0,1.13-.05,1.69a31.84,31.84,0,0,1-63.6,0c0-.56,0-1.13,0-1.69V87.28h12.31v44.5h0a19.54,19.54,0,0,0,39,0h0V87.28Z"
  /><path class="b" d="M617.71,131.78v1.69h-.05C617.69,132.91,617.71,132.34,617.71,131.78Z" /><path
    class="b"
    d="M554.06,133.47h0v-1.69C554,132.34,554,132.91,554.06,133.47Z"
  /><ellipse class="g" cx="675.71" cy="123.28" rx="9.44" ry="9.44" /><ellipse
    class="g"
    cx="339.52"
    cy="61.62"
    rx="9.44"
    ry="9.44"
  /></svg>
