<svg xmlns="http://www.w3.org/2000/svg" viewBox="0 0 1688 509" fill="none" preserveAspectRatio="xMidYMid meet">
  <path
    d="M233.055 508.001C361.768 508.001 466.11 403.919 466.11 275.526C466.11 147.134 361.768 43.0508 233.055 43.0508C104.342 43.0508 0 147.134 0 275.526C0 403.919 104.342 508.001 233.055 508.001Z"
    fill="#5FCAFF"
  />
  <path
    d="M113.16 371.011V362.964C113.16 357.601 117.518 353.253 122.893 353.253H221.14V287.283H239.713V353.253H337.529C342.904 353.253 347.262 357.601 347.262 362.964V371.011H356.062V411.836H347.262V478.221C313.512 497.184 274.55 508.001 233.054 508.001C189.208 508.001 148.189 495.923 113.16 474.919V411.836H103.226V371.011H113.16Z"
    fill="white"
  />
  <path
    fill-rule="evenodd"
    clip-rule="evenodd"
    d="M308.338 173.48L331.516 304.315L299.246 309.978C286.328 337.601 264.846 357.13 238.072 361.829C211.297 366.528 184.4 355.49 162.769 333.93L130.438 339.604L107.261 208.776L95.4914 210.841L86.0902 157.774L105.134 154.432C111.536 111.112 138.956 82.603 175.777 72.2722L174.354 50.4204C169.419 48.4239 165.59 44.0129 164.595 38.3943C163.058 29.7191 168.857 21.45 177.547 19.9249C186.238 18.3997 194.528 24.196 196.065 32.8712C197.053 38.4486 195.009 43.8581 191.114 47.4156L197.284 68.4319C235.611 65.3632 270.999 82.8772 291.792 121.666L311.333 118.237L320.735 171.304L308.338 173.48Z"
    fill="white"
  />
  <path
    d="M342.611 395.827C362.948 394.172 373.696 385.862 373.696 371.057C373.696 367.835 373.012 364.527 371.693 360.765C370.754 358.085 370.186 356.767 367.525 350.854C363 340.799 361.408 335.455 361.875 329.071C362.486 320.694 367.398 312.453 378.122 303.577L374.81 299.598C363.073 309.312 357.426 318.787 356.702 328.696C356.397 332.879 356.964 337.059 358.298 341.539C359.306 344.924 360.508 347.892 362.793 352.971C365.381 358.72 365.928 359.991 366.798 362.472C367.939 365.728 368.51 368.488 368.51 371.057C368.51 382.728 360.123 389.213 342.189 390.673L342.611 395.827Z"
    fill="black"
  />
  <path d="M350.123 378.371H325.49V404.227H350.123V378.371Z" fill="#00AAFF" />
  <path
    fill-rule="evenodd"
    clip-rule="evenodd"
    d="M414.264 255.564C397.218 261.858 387.098 279.879 391.278 297.922C395.458 315.965 412.481 327.741 430.571 325.951L431.612 330.445C409.533 335.525 387.497 321.78 382.392 299.745C377.287 277.71 391.047 255.73 413.126 250.65L414.264 255.564Z"
    fill="white"
  />
  <path
    fill-rule="evenodd"
    clip-rule="evenodd"
    d="M417.507 325.069C421.216 325.758 426.159 326.127 430.544 325.836L431.613 330.45C428.263 331.221 437.289 331.559 418.915 331.225L417.507 325.069ZM403.118 262.136L401.547 255.267C405.063 253.202 408.951 251.63 413.137 250.666L414.275 255.58C410.66 256.915 407.356 258.779 404.434 261.059C403.986 261.409 403.547 261.768 403.118 262.136Z"
    fill="black"
  />
  <path
    d="M382.74 308.977C388.319 307.693 391.796 302.139 390.506 296.572C389.216 291.004 383.647 287.531 378.068 288.815C372.489 290.098 369.012 295.652 370.302 301.22C371.592 306.787 377.16 310.26 382.74 308.977Z"
    fill="white"
  />
  <path
    d="M379.532 302.869C381.624 302.388 382.928 300.305 382.444 298.217C381.961 296.129 379.872 294.827 377.78 295.308C375.688 295.79 374.384 297.872 374.868 299.96C375.351 302.048 377.44 303.351 379.532 302.869Z"
    fill="black"
  />
  <path
    fill-rule="evenodd"
    clip-rule="evenodd"
    d="M118.922 478.249V369.557C118.922 364.193 123.28 359.846 128.655 359.846H330.884C336.26 359.846 340.617 364.193 340.617 369.557V481.802C308.438 498.531 271.855 507.988 233.057 507.988C191.591 507.988 152.655 497.186 118.922 478.249L118.922 478.249Z"
    fill="#0043C5"
  />
  <path
    d="M194.926 429.951C172.975 414.972 154.95 411.962 141.209 421.513C127.163 431.276 112.743 436.998 101.951 434.942C91.3694 432.927 83.9799 422.389 87.0009 412.611C91.7721 397.168 101.539 391.143 117.175 393.968L118.148 388.612C99.777 385.293 87.3654 392.948 81.786 411.008C77.7523 424.064 87.3115 437.696 100.928 440.289C107.909 441.619 115.851 440.307 124.432 436.902C131.152 434.235 137.986 430.388 144.328 425.979C155.841 417.978 171.561 420.602 191.845 434.444L194.926 429.951Z"
    fill="black"
  />
  <path d="M119.026 378.367H109.087V404.223H119.026V378.367Z" fill="#00AAFF" />
  <path d="M168.62 373.012H137.937V403.608H168.62V373.012Z" fill="white" />
  <path d="M208.377 373.012H177.694V403.608H208.377V373.012Z" fill="white" />
  <path d="M246.407 373.012H215.724V403.608H246.407V373.012Z" fill="white" />
  <path d="M284.436 373.012H253.753V403.608H284.436V373.012Z" fill="white" />
  <path d="M322.466 373.012H291.783V403.608H322.466V373.012Z" fill="white" />
  <path d="M322.467 359.652H137.072V367.409H322.467V359.652Z" fill="black" />
  <path
    d="M152.119 379.084H154.946L162.854 397.39H159.12L157.409 393.201H149.449L147.789 397.39H144.133L152.119 379.084ZM156.268 390.409L153.442 382.962L150.564 390.409H156.268Z"
    fill="black"
  />
  <path
    d="M186.886 379.084H194.043C194.734 379.084 195.417 379.166 196.091 379.33C196.765 379.493 197.366 379.761 197.893 380.131C198.42 380.502 198.848 380.98 199.177 381.566C199.505 382.152 199.669 382.859 199.669 383.686C199.669 384.72 199.375 385.574 198.788 386.246C198.2 386.918 197.431 387.401 196.48 387.694V387.746C197.638 387.901 198.589 388.349 199.332 389.09C200.076 389.831 200.447 390.822 200.447 392.063C200.447 393.063 200.248 393.903 199.851 394.584C199.453 395.265 198.93 395.812 198.282 396.226C197.634 396.64 196.891 396.937 196.052 397.118C195.214 397.299 194.362 397.39 193.498 397.39H186.886V379.084ZM190.153 386.53H193.057C194.146 386.53 194.976 386.315 195.547 385.884C196.117 385.453 196.402 384.841 196.402 384.048C196.402 383.221 196.108 382.635 195.521 382.29C194.933 381.945 194.017 381.773 192.772 381.773H190.153V386.53ZM190.153 394.649H193.083C193.498 394.649 193.948 394.619 194.432 394.558C194.916 394.498 195.361 394.373 195.767 394.184C196.173 393.994 196.51 393.718 196.778 393.356C197.046 392.994 197.18 392.512 197.18 391.908C197.18 390.943 196.852 390.271 196.195 389.892C195.538 389.512 194.544 389.323 193.213 389.323H190.153V394.649Z"
    fill="black"
  />
  <path
    d="M236.666 383.388C236.182 382.733 235.551 382.255 234.773 381.953C233.996 381.652 233.235 381.501 232.492 381.501C231.541 381.501 230.677 381.673 229.899 382.018C229.121 382.363 228.451 382.837 227.889 383.44C227.327 384.043 226.895 384.75 226.593 385.56C226.29 386.37 226.139 387.249 226.139 388.197C226.139 389.197 226.286 390.111 226.58 390.938C226.874 391.765 227.293 392.476 227.837 393.071C228.382 393.666 229.034 394.127 229.795 394.454C230.556 394.782 231.411 394.946 232.362 394.946C233.347 394.946 234.22 394.752 234.981 394.364C235.742 393.976 236.355 393.463 236.822 392.825L239.441 394.661C238.628 395.678 237.634 396.467 236.459 397.027C235.283 397.587 233.909 397.867 232.336 397.867C230.901 397.867 229.583 397.63 228.382 397.156C227.18 396.682 226.148 396.019 225.283 395.165C224.419 394.312 223.745 393.295 223.261 392.114C222.777 390.934 222.535 389.628 222.535 388.197C222.535 386.732 222.79 385.409 223.3 384.229C223.81 383.048 224.51 382.044 225.4 381.216C226.29 380.389 227.34 379.751 228.55 379.303C229.76 378.855 231.074 378.631 232.492 378.631C233.079 378.631 233.693 378.687 234.333 378.799C234.972 378.911 235.586 379.083 236.174 379.316C236.761 379.549 237.315 379.837 237.833 380.182C238.352 380.527 238.793 380.941 239.156 381.423L236.666 383.388Z"
    fill="black"
  />
  <path
    d="M261.427 379.084H267.936C269.128 379.084 270.33 379.239 271.54 379.549C272.75 379.86 273.839 380.372 274.807 381.088C275.775 381.803 276.562 382.743 277.167 383.906C277.772 385.07 278.074 386.513 278.074 388.237C278.074 389.84 277.772 391.219 277.167 392.374C276.562 393.529 275.775 394.477 274.807 395.218C273.839 395.959 272.75 396.506 271.54 396.86C270.33 397.213 269.128 397.39 267.936 397.39H261.427V379.084ZM267.417 394.546C268.264 394.546 269.111 394.446 269.958 394.248C270.805 394.05 271.57 393.714 272.253 393.24C272.936 392.766 273.493 392.124 273.925 391.314C274.358 390.503 274.574 389.478 274.574 388.237C274.574 386.927 274.358 385.858 273.925 385.031C273.493 384.203 272.936 383.557 272.253 383.092C271.57 382.626 270.805 382.307 269.958 382.135C269.111 381.963 268.264 381.876 267.417 381.876H264.695V394.546H267.417Z"
    fill="black"
  />
  <path
    d="M301.455 379.084H313.616V381.928H304.722V386.582H313.149V389.323H304.722V394.494H314.083V397.39H301.455V379.084Z"
    fill="black"
  />
  <path d="M238.629 339.158H220.91V359.843H238.629V339.158Z" fill="black" />
  <path d="M305.305 125.959L281.066 130.213L288.135 170.119L312.375 165.864L305.305 125.959Z" fill="#CDDEFF" />
  <path d="M118.473 158.82L94.2333 163.074L101.303 202.98L125.542 198.726L118.473 158.82Z" fill="#CDDEFF" />
  <path
    fill-rule="evenodd"
    clip-rule="evenodd"
    d="M300.034 168.11C287.443 97.0348 239.445 66.9678 187.869 76.0197C136.294 85.0717 100.671 129.815 113.262 200.89L300.034 168.11Z"
    fill="#0043C5"
    stroke="#979797"
    stroke-width="0.95"
  />
  <path
    fill-rule="evenodd"
    clip-rule="evenodd"
    d="M126.557 246.582C138.483 313.897 187.673 361.531 236.426 352.975C285.18 344.419 315.035 282.913 303.109 215.598L126.557 246.582Z"
    fill="#0043C5"
  />
  <path
    fill-rule="evenodd"
    clip-rule="evenodd"
    d="M144.482 248.688C154.122 303.103 193.841 341.616 233.196 334.709C272.551 327.802 296.64 278.091 287 223.676L144.482 248.688Z"
    fill="black"
  />
  <path
    fill-rule="evenodd"
    clip-rule="evenodd"
    d="M177.569 41.2155L184.795 39.9469L196.163 84.3428L182.137 86.8053L177.569 41.2155Z"
    fill="#00AAFF"
  />
  <path d="M299.962 168.009L113.2 200.785L135.997 329.465L322.759 296.689L299.962 168.009Z" fill="#00AAFF" />
  <path
    fill-rule="evenodd"
    clip-rule="evenodd"
    d="M226.465 294.278L240.998 305.742L216.747 309.998L226.465 294.278Z"
    fill="white"
  />
  <path d="M303.078 289.561L152 316.115L153.806 326.326L304.884 299.773L303.078 289.561Z" fill="#CDDEFF" />
  <path
    d="M251.117 192.843C271.203 189.318 284.606 170.207 281.054 150.157C277.502 130.107 258.339 116.71 238.253 120.235C218.168 123.76 204.765 142.871 208.317 162.921C211.869 182.971 231.032 196.368 251.117 192.843Z"
    fill="white"
  />
  <path
    d="M261.634 179.168C268.447 177.972 272.993 171.49 271.788 164.689C270.583 157.889 264.084 153.345 257.271 154.54C250.458 155.736 245.912 162.218 247.117 169.019C248.322 175.819 254.822 180.363 261.634 179.168Z"
    fill="black"
  />
  <path d="M276.678 162.51L243.909 168.271L244.36 170.822L277.129 165.06L276.678 162.51Z" fill="white" />
  <path
    d="M168.979 207.286C189.065 203.762 202.468 184.65 198.915 164.6C195.363 144.55 176.201 131.154 156.115 134.678C136.029 138.203 122.626 157.314 126.178 177.365C129.731 197.415 148.893 210.811 168.979 207.286Z"
    fill="white"
  />
  <path
    d="M179.496 193.613C186.308 192.417 190.854 185.935 189.65 179.135C188.445 172.334 181.945 167.79 175.132 168.986C168.32 170.181 163.774 176.663 164.979 183.464C166.183 190.265 172.683 194.809 179.496 193.613Z"
    fill="black"
  />
  <path d="M194.537 176.953L161.768 182.715L162.219 185.265L194.988 179.504L194.537 176.953Z" fill="white" />
  <path
    d="M219.424 254.424C232.7 252.092 241.561 239.463 239.217 226.216C236.872 212.969 224.209 204.121 210.933 206.453C197.657 208.785 188.796 221.414 191.14 234.661C193.485 247.908 206.148 256.756 219.424 254.424Z"
    fill="white"
    stroke="white"
    stroke-width="3.8"
  />
  <path
    d="M217.547 243.805C224.948 242.504 229.889 235.463 228.582 228.078C227.274 220.693 220.215 215.76 212.813 217.06C205.412 218.36 200.471 225.401 201.778 232.786C203.085 240.172 210.145 245.105 217.547 243.805Z"
    fill="black"
  />
  <path
    d="M182.095 45.695C187.852 44.6838 191.694 39.2074 190.677 33.4633C189.661 27.7191 184.17 23.8823 178.413 24.8936C172.656 25.9048 168.814 31.3812 169.83 37.1253C170.847 42.8695 176.338 46.7063 182.095 45.695Z"
    fill="black"
  />
  <path
    d="M180.527 36.444C181.232 36.3202 181.702 35.6496 181.578 34.9462C181.453 34.2429 180.781 33.7731 180.076 33.8969C179.371 34.0207 178.9 34.6913 179.025 35.3947C179.149 36.098 179.822 36.5678 180.527 36.444Z"
    fill="white"
  />
  <path d="M131.223 305.349L319.333 272.261L319.784 274.812L131.674 307.9L131.223 305.349Z" fill="black" />
  <path
    fill-rule="evenodd"
    clip-rule="evenodd"
    d="M251.033 430.498C235.081 421.793 214.802 425.993 203.892 440.973C192.982 455.954 195.244 476.494 208.472 488.938L205.755 492.67C187.419 479.38 183.356 453.775 196.68 435.48C210.003 417.185 235.669 413.127 254.005 426.418L251.033 430.498Z"
    fill="white"
  />
  <path
    fill-rule="evenodd"
    clip-rule="evenodd"
    d="M200.573 478.518C202.486 481.763 205.454 485.728 208.554 488.841L205.764 492.672C202.98 490.654 208.652 497.674 196.839 483.615L200.573 478.518ZM238.746 426.404L242.913 420.716C246.785 422.009 250.527 423.906 254.005 426.427L251.034 430.507C247.649 428.66 244.07 427.394 240.426 426.689C239.867 426.58 239.307 426.486 238.746 426.404Z"
    fill="black"
  />
  <path
    d="M189.94 441.776C194.573 445.134 201.057 444.109 204.424 439.487C207.79 434.864 206.764 428.395 202.131 425.037C197.498 421.679 191.013 422.704 187.647 427.327C184.28 431.949 185.307 438.418 189.94 441.776Z"
    fill="white"
  />
  <path
    d="M192.458 435.366C194.195 436.625 196.627 436.241 197.889 434.507C199.152 432.774 198.767 430.348 197.029 429.089C195.292 427.829 192.86 428.214 191.598 429.947C190.336 431.681 190.721 434.107 192.458 435.366Z"
    fill="black"
  />
  <path
    d="M618.551 327.344H733.55V359.198H582.523V102.914H618.551V327.344ZM800.919 359.937H766.864V187.85H800.919V359.937ZM1687.09 273.531C1687.09 286.801 1684.73 298.985 1680 310.083C1675.27 321.181 1668.73 330.772 1660.36 338.854C1652 346.937 1642.12 353.209 1630.73 357.673C1619.33 362.136 1607.09 364.368 1594 364.368C1580.91 364.368 1568.66 362.136 1557.27 357.673C1545.87 353.209 1536.06 346.937 1527.81 338.854C1519.57 330.772 1513.09 321.181 1508.36 310.083C1503.63 298.985 1501.27 286.801 1501.27 273.531C1501.27 260.262 1503.63 248.138 1508.36 237.16C1513.09 226.183 1519.57 216.713 1527.81 208.751C1536.06 200.789 1545.87 194.577 1557.27 190.113C1568.66 185.65 1580.91 183.418 1594 183.418C1607.09 183.418 1619.33 185.65 1630.73 190.113C1642.12 194.577 1652 200.789 1660.36 208.751C1668.73 216.713 1675.27 226.183 1680 237.16C1684.73 248.138 1687.09 260.262 1687.09 273.531ZM1651.55 273.343C1651.55 265.143 1650.28 257.306 1647.74 249.829C1645.2 242.353 1641.51 235.781 1636.67 230.114C1631.82 224.447 1625.83 219.925 1618.69 216.548C1611.55 213.172 1603.38 211.484 1594.18 211.484C1584.98 211.484 1576.81 213.172 1569.67 216.548C1562.53 219.925 1556.53 224.447 1551.69 230.114C1546.85 235.781 1543.16 242.353 1540.62 249.829C1538.07 257.306 1536.8 265.143 1536.8 273.343C1536.8 281.543 1538.07 289.381 1540.62 296.857C1543.16 304.333 1546.85 310.965 1551.69 316.753C1556.53 322.541 1562.53 327.123 1569.67 330.499C1576.81 333.876 1584.98 335.564 1594.18 335.564C1603.38 335.564 1611.55 333.876 1618.69 330.499C1625.83 327.123 1631.82 322.541 1636.67 316.753C1641.51 310.965 1645.2 304.333 1647.74 296.857C1650.28 289.381 1651.55 281.543 1651.55 273.343Z"
    fill="white"
  />
  <path
    d="M1208.79 348.15C1201.91 353.575 1194.17 357.973 1185.57 361.343C1174.13 365.825 1161.83 368.066 1148.69 368.066C1135.55 368.066 1123.26 365.825 1111.82 361.343C1100.38 356.861 1090.52 350.563 1082.24 342.447C1073.97 334.332 1067.46 324.703 1062.71 313.559C1057.97 302.415 1055.59 290.182 1055.59 276.858C1055.59 263.534 1057.97 251.361 1062.71 240.338C1067.46 229.316 1073.97 219.808 1082.24 211.813C1090.52 203.819 1100.38 197.581 1111.82 193.099C1123.26 188.618 1135.55 186.377 1148.69 186.377C1161.83 186.377 1174.13 188.618 1185.57 193.099C1194.62 196.649 1202.73 201.299 1209.88 207.051V189.615H1242.9V352.822C1242.9 365.395 1241.32 377.424 1238.18 388.909C1235.03 400.394 1229.71 410.549 1222.22 419.374C1214.72 428.199 1204.92 435.271 1192.83 440.591C1180.74 445.91 1165.74 448.57 1147.84 448.57C1132.85 448.57 1117.79 445.85 1102.68 440.409C1087.56 434.969 1074.56 427.292 1063.68 417.379L1085.44 390.903C1092.94 399.366 1102.31 406.136 1113.56 411.214C1124.81 416.291 1136.36 418.83 1148.21 418.83C1159.57 418.83 1169.13 417.198 1176.87 413.934C1184.61 410.669 1190.83 406.196 1195.55 400.514C1200.27 394.832 1203.65 388.123 1205.71 380.386C1207.77 372.648 1208.79 364.307 1208.79 355.36V348.15ZM1206.62 277.04C1206.62 268.841 1205.34 261.003 1202.78 253.527C1200.22 246.05 1196.51 239.479 1191.63 233.811C1186.76 228.144 1180.73 223.622 1173.54 220.246C1166.36 216.869 1158.13 215.181 1148.87 215.181C1139.61 215.181 1131.39 216.869 1124.2 220.246C1117.02 223.622 1110.99 228.144 1106.11 233.811C1101.24 239.479 1097.52 246.05 1094.97 253.527C1092.41 261.003 1091.13 268.841 1091.13 277.04C1091.13 285.24 1092.41 293.078 1094.97 300.554C1097.52 308.03 1101.24 314.662 1106.11 320.45C1110.99 326.238 1117.02 330.82 1124.2 334.197C1131.39 337.573 1139.61 339.261 1148.87 339.261C1158.13 339.261 1166.36 337.573 1173.54 334.197C1180.73 330.82 1186.76 326.238 1191.63 320.45C1196.51 314.662 1200.22 308.03 1202.78 300.554C1205.34 293.078 1206.62 285.24 1206.62 277.04Z"
    fill="white"
  />
  <path fill-rule="evenodd" clip-rule="evenodd" d="M860.885 248.404H890.499V359.19H860.885V248.404Z" fill="white" />
  <path fill-rule="evenodd" clip-rule="evenodd" d="M984.52 248.404H1014.13V359.19H984.52V248.404Z" fill="white" />
  <path
    fill-rule="evenodd"
    clip-rule="evenodd"
    d="M984.469 252.475C983.309 227.602 962.728 207.792 937.509 207.792C912.291 207.792 891.71 227.602 890.55 252.475H860.885C860.885 210.257 895.191 176.033 937.509 176.033C979.828 176.033 1014.13 210.257 1014.13 252.475H984.469Z"
    fill="white"
  />
  <path fill-rule="evenodd" clip-rule="evenodd" d="M1454.38 297.891H1424.77V187.105H1454.38V297.891Z" fill="white" />
  <path fill-rule="evenodd" clip-rule="evenodd" d="M1330.75 297.891H1301.14V187.105H1330.75V297.891Z" fill="white" />
  <path
    fill-rule="evenodd"
    clip-rule="evenodd"
    d="M1330.8 293.818C1331.96 318.691 1352.54 338.501 1377.76 338.501C1402.98 338.501 1423.56 318.691 1424.72 293.818H1454.38C1454.38 336.035 1420.08 370.26 1377.76 370.26C1335.44 370.26 1301.14 336.035 1301.14 293.818H1330.8Z"
    fill="white"
  />
  <path
    d="M1593.41 295.701C1605.97 295.701 1616.15 285.547 1616.15 273.02C1616.15 260.494 1605.97 250.34 1593.41 250.34C1580.86 250.34 1570.68 260.494 1570.68 273.02C1570.68 285.547 1580.86 295.701 1593.41 295.701Z"
    fill="black"
  />
  <path
    d="M785.337 148.275C797.895 148.275 808.074 138.121 808.074 125.595C808.074 113.068 797.895 102.914 785.337 102.914C772.78 102.914 762.6 113.068 762.6 125.595C762.6 138.121 772.78 148.275 785.337 148.275Z"
    fill="black"
  />
</svg>
