<svg viewBox="0 0 212 28" fill="none" xmlns="http://www.w3.org/2000/svg">
<g clip-path="url(#clip0_2_342)">
<path
      fill-rule="evenodd"
      clip-rule="evenodd"
      d="M6.63979 16.1706C6.63979 17.0787 6.30638 17.7913 5.63958 18.3083C4.97276 18.8252 4.05293 19.0836 2.88009 19.0836C1.70725 19.0836 0.747214 18.9043 0 18.5458V16.967C0.472919 17.1859 0.974215 17.3583 1.5039 17.484C2.03829 17.6097 2.53484 17.6726 2.99358 17.6726C3.66514 17.6726 4.15933 17.5469 4.4762 17.2954C4.79777 17.0438 4.95857 16.7062 4.95857 16.2824C4.95857 15.9006 4.81196 15.5769 4.51875 15.3113C4.22554 15.046 3.6202 14.7316 2.70274 14.3683C1.75689 13.9911 1.09008 13.5604 0.702286 13.076C0.314492 12.5917 0.120595 12.0095 0.120595 11.3295C0.120595 10.4774 0.427992 9.80676 1.04279 9.31772C1.65759 8.82868 2.48284 8.58423 3.51852 8.58423C4.51166 8.58423 5.50005 8.79849 6.48374 9.22686L5.9446 10.5891C5.02241 10.2073 4.19953 10.0163 3.47596 10.0163C2.92738 10.0163 2.51121 10.135 2.22746 10.3725C1.9437 10.6055 1.80183 10.9152 1.80183 11.3017C1.80183 11.5671 1.85858 11.7954 1.97207 11.9863C2.08557 12.1727 2.27238 12.3494 2.53248 12.5172C2.79258 12.6847 3.26078 12.9061 3.93705 13.1809C4.69846 13.4927 5.25651 13.7839 5.61119 14.0539C5.96588 14.3242 6.226 14.6292 6.39152 14.9692C6.55703 15.309 6.63979 15.7095 6.63979 16.1706ZM14.5142 18.9445H8.6476V8.73145H14.5142V10.1426H10.343V12.9228H14.2517V14.32H10.343V17.5264H14.5142V18.9445ZM18.8776 11.0362C19.4357 10.3563 20.2018 10.0163 21.1761 10.0163C21.6064 10.0163 22.0153 10.0792 22.4033 10.2049C22.7958 10.326 23.167 10.4681 23.5168 10.631L24.127 9.24085C23.2284 8.80305 22.2496 8.58423 21.1902 8.58423C20.1828 8.58423 19.3056 8.79613 18.5584 9.21993C17.8111 9.64375 17.2389 10.2538 16.8417 11.0502C16.4492 11.8466 16.2529 12.7756 16.2529 13.8375C16.2529 15.5233 16.6595 16.8203 17.4731 17.7284C18.2865 18.6319 19.4521 19.0836 20.9702 19.0836C22.0012 19.0836 22.9234 18.9323 23.7369 18.6297V17.1976C23.2923 17.3327 22.8643 17.4445 22.4529 17.5329C22.0414 17.6167 21.6158 17.6587 21.1761 17.6587C20.1592 17.6587 19.3813 17.3373 18.8422 16.6945C18.3078 16.0519 18.0405 15.1042 18.0405 13.8515C18.0405 12.6546 18.3195 11.7161 18.8776 11.0362ZM34.102 8.73145V15.3399C34.102 16.0943 33.9365 16.7557 33.6054 17.324C33.2791 17.8873 32.8037 18.3227 32.1796 18.6303C31.56 18.9329 30.8176 19.0842 29.952 19.0842C28.6658 19.0842 27.6655 18.7489 26.9515 18.0783C26.2373 17.4077 25.8803 16.4856 25.8803 15.3119V8.73145H27.5829V15.1933C27.5829 16.0362 27.7814 16.6579 28.1787 17.0584C28.5759 17.4589 29.186 17.6593 30.0089 17.6593C31.6073 17.6593 32.4066 16.8326 32.4066 15.1793V8.73145H34.102ZM39.6259 13.4817H38.4483V10.1426H39.5691C40.34 10.1426 40.9169 10.2684 41.3001 10.5197C41.683 10.7713 41.8746 11.1858 41.8746 11.7631C41.8746 12.3314 41.6972 12.7598 41.3426 13.0486C40.9879 13.3373 40.4157 13.4817 39.6259 13.4817ZM38.4483 18.9445V14.8649H40.1225L42.6053 18.9445H44.5349L41.6052 14.4249C42.9481 13.8846 43.6197 12.9788 43.6197 11.7074C43.6197 10.7107 43.2982 9.96561 42.6549 9.472C42.0118 8.97825 41.021 8.73145 39.6827 8.73145H36.753V18.9445H38.4483ZM51.9112 18.9445H46.0446V8.73145H51.9112V10.1426H47.7401V12.9228H51.6486V14.32H47.7401V17.5264H51.9112V18.9445ZM61.1714 17.6101C62.1219 16.716 62.5971 15.426 62.5971 13.7403C62.5971 12.1521 62.1384 10.9203 61.221 10.0448C60.3036 9.16924 59.0195 8.73145 57.3691 8.73145H54.1627V18.9445H57.064C58.8516 18.9445 60.2207 18.4997 61.1714 17.6101ZM57.3265 10.1286C59.6484 10.1286 60.8094 11.3512 60.8094 13.7961C60.8094 16.2923 59.561 17.5404 57.064 17.5404H55.858V10.1286H57.3265ZM68.6604 8.73145H71.59C72.9663 8.73145 73.9617 8.93408 74.5766 9.33918C75.1913 9.74443 75.4988 10.3847 75.4988 11.2603C75.4988 11.8657 75.3261 12.3663 74.981 12.7622C74.6403 13.1535 74.1415 13.4072 73.4841 13.5236V13.5934C75.0589 13.859 75.8464 14.674 75.8464 16.0385C75.8464 16.9512 75.5318 17.6638 74.9029 18.1761C74.2786 18.6884 73.4036 18.9445 72.2781 18.9445H68.6604V8.73145ZM69.8662 13.1046H71.8525C72.7038 13.1046 73.3162 12.974 73.6899 12.7133C74.0634 12.4478 74.2502 12.003 74.2502 11.379C74.2502 10.8062 74.0421 10.3941 73.6261 10.1426C73.2099 9.88639 72.5477 9.75842 71.6398 9.75842H69.8662V13.1046ZM69.8662 14.1105V17.9317H72.0299C72.867 17.9317 73.4959 17.7732 73.9168 17.4566C74.3425 17.1353 74.5552 16.6346 74.5552 15.9548C74.5552 15.3213 74.3376 14.8556 73.9026 14.5575C73.4723 14.2595 72.8149 14.1105 71.9305 14.1105H69.8662ZM83.4861 8.73145L80.7195 13.8381L77.9743 8.73145H76.6548L80.1095 15.0395V18.9445H81.3296V14.9837L84.7914 8.73145H83.4861Z"
      fill="#00AAFF"
    />
<path
      fill-rule="evenodd"
      clip-rule="evenodd"
      d="M108.402 0L124.495 0.708524L131.011 14.968L121.818 28L105.637 26.9794L99.0038 11.5294L108.402 0ZM120.2 8.21943L108.537 13.2387L118.508 20.8326L120.2 8.21943ZM118.85 5.70432L109.529 1.75126L107.571 10.0628L118.85 5.70432ZM116.487 22.7434L106.357 15.6185L106.602 25.273L116.487 22.7434ZM129.393 14.9365L122.49 8.03681L120.667 21.3045L129.393 14.9365ZM118.862 24.2952L110.319 26.4946L120.366 27.1283L118.862 24.2952ZM128.043 18.0668L120.565 23.5542L122.052 26.4146L128.043 18.0668ZM124.507 2.70083L123.054 5.63794L128.46 11.0513L124.507 2.70083ZM122.697 1.29533L113.202 0.915738L121.034 4.28976L122.697 1.29533ZM107.015 2.65356L100.365 10.9245L104.811 11.8522L107.015 2.65356ZM104.543 13.4746L100.075 12.5429L104.737 23.3598L104.543 13.4746Z"
      fill="#00AAFF"
    />
<path
      fill-rule="evenodd"
      clip-rule="evenodd"
      d="M142.093 13.0133H141.553V8.27797H140.106V19.3904H141.553V14.1859H142.051L146.609 19.6676L147.711 18.7505L143.325 13.5249L147.063 8.85409L145.96 8.00098L142.093 13.0133ZM154.69 8.27787H153.242V19.3904H160.586V18.1105H154.69V8.27787ZM165.921 8.27787H172.942V9.55759H167.369V12.8852H171.97V14.1648H167.369V18.1106H172.942V19.3905H165.921V8.27787ZM182.534 8.27787H178.71V19.3902H180.159V14.6336H182.254L185.126 19.6674L186.379 18.9208L183.615 14.4205C184.974 14.0151 185.903 12.6715 185.903 11.3066C185.903 9.15239 184.413 8.27787 182.534 8.27787ZM184.39 11.3066C184.39 12.5652 183.462 13.3542 182.059 13.3542H180.159V9.55759H182.489C183.786 9.55759 184.39 10.3042 184.39 11.3066ZM198.932 13.8442C198.932 14.7401 198.867 19.5818 194.935 19.5818C193.12 19.5818 190.939 18.3022 190.939 13.8442C190.939 9.40777 193.078 8.08548 194.935 8.08548C196.728 8.08548 198.932 9.36522 198.932 13.8442ZM192.451 13.8442C192.451 15.4652 192.753 18.238 194.935 18.238C197.117 18.238 197.419 15.4652 197.419 13.8442C197.419 12.202 197.117 9.4292 194.935 9.4292C192.753 9.4292 192.451 12.202 192.451 13.8442ZM208.005 18.238C206.493 18.238 205.822 17.2358 205.542 15.8706L204.246 16.2757C204.592 18.2591 205.909 19.5816 208.005 19.5816C210.079 19.5816 211.57 18.3871 211.57 16.2757C211.57 15.124 211.029 14.2282 210.014 13.6735L207.616 12.6284C206.752 12.2447 206.103 11.946 206.103 10.9008C206.103 9.89856 207.011 9.4292 207.94 9.4292C209.172 9.4292 209.754 10.1971 210.014 11.2847L211.397 10.8795C210.944 9.15197 209.841 8.08548 207.961 8.08548C206.19 8.08548 204.656 9.13069 204.656 11.0075C204.656 12.9138 205.95 13.4363 207.424 14.0313C207.566 14.0887 207.709 14.1468 207.854 14.2069C207.944 14.2436 208.035 14.2795 208.125 14.3153C209.139 14.7175 210.122 15.1077 210.122 16.3611C210.122 17.5983 209.193 18.238 208.005 18.238Z"
      fill="#00AAFF"
    />
</g>
<defs>
<clipPath id="clip0_2_342">
<rect width="212" height="28" fill="white" />
</clipPath>
</defs>
</svg>
