<svg viewBox="0 0 453 453" fill="none" xmlns="http://www.w3.org/2000/svg">
<path
    fill-rule="evenodd"
    clip-rule="evenodd"
    d="M225.5 402C322.426 402 401 323.426 401 226.5C401 129.574 322.426 51 225.5 51C128.574 51 50 129.574 50 226.5C50 323.426 128.574 402 225.5 402ZM225.5 405C324.083 405 404 325.083 404 226.5C404 127.917 324.083 48 225.5 48C126.917 48 47 127.917 47 226.5C47 325.083 126.917 405 225.5 405Z"
    fill="#E6F6FF"
  />
<path
    fill-rule="evenodd"
    clip-rule="evenodd"
    d="M226.5 450C349.936 450 450 349.936 450 226.5C450 103.064 349.936 3 226.5 3C103.064 3 3 103.064 3 226.5C3 349.936 103.064 450 226.5 450ZM226.5 453C351.592 453 453 351.592 453 226.5C453 101.408 351.592 0 226.5 0C101.408 0 0 101.408 0 226.5C0 351.592 101.408 453 226.5 453Z"
    fill="#ECF8FF"
  />
<path
    d="M227 326.603C282.812 326.603 328.057 281.43 328.057 225.706C328.057 169.983 282.812 124.81 227 124.81C171.188 124.81 125.943 169.983 125.943 225.706C125.943 281.43 171.188 326.603 227 326.603Z"
    fill="#5FCAFF"
  />
<path
    d="M175.157 267.291V262.889C175.157 261.061 176.639 259.579 178.467 259.579H221.928V230.927H229.972V259.579H273.246C275.074 259.579 276.556 261.061 276.556 262.889V267.291H280.368V285.023H276.556V313.856C261.938 322.091 245.061 326.79 227.088 326.79C208.096 326.79 190.329 321.544 175.157 312.422V285.023H170.854V267.291H175.157Z"
    fill="white"
  />
<path
    fill-rule="evenodd"
    clip-rule="evenodd"
    d="M259.726 181.487L269.746 238.293L255.759 240.758C250.155 252.755 240.841 261.239 229.236 263.284C217.63 265.33 205.975 260.542 196.605 251.185L182.591 253.655L172.572 196.851L167.47 197.751L163.406 174.71L171.66 173.255C174.444 154.444 186.333 142.059 202.293 137.567L201.68 128.078C199.542 127.212 197.884 125.298 197.453 122.858C196.789 119.092 199.304 115.5 203.07 114.836C206.837 114.172 210.429 116.688 211.094 120.454C211.521 122.876 210.634 125.225 208.945 126.77L211.615 135.895C228.226 134.555 243.561 142.153 252.565 158.992L261.035 157.499L265.099 180.54L259.726 181.487Z"
    fill="white"
  />
<path
    d="M274.542 278.072C283.351 277.353 288.006 273.744 288.006 267.314C288.006 265.915 287.709 264.478 287.138 262.844C286.732 261.68 286.485 261.108 285.333 258.54C283.373 254.172 282.684 251.851 282.886 249.079C283.15 245.44 285.278 241.861 289.923 238.006L288.488 236.278C283.405 240.497 280.959 244.612 280.645 248.916C280.513 250.732 280.759 252.548 281.336 254.494C281.773 255.964 282.293 257.253 283.284 259.459C284.404 261.956 284.641 262.508 285.018 263.585C285.512 264.999 285.76 266.199 285.76 267.314C285.76 272.383 282.127 275.2 274.359 275.834L274.542 278.072Z"
    fill="black"
  />
<path d="M277.795 270.496H267.126V281.726H277.795V270.496Z" fill="#00AAFF" />
<path
    fill-rule="evenodd"
    clip-rule="evenodd"
    d="M305.585 217.167C298.197 219.902 293.809 227.729 295.618 235.564C297.428 243.399 304.804 248.511 312.643 247.731L313.094 249.683C303.525 251.892 293.977 245.925 291.767 236.357C289.558 226.789 295.524 217.242 305.093 215.033L305.585 217.167Z"
    fill="white"
  />
<path
    fill-rule="evenodd"
    clip-rule="evenodd"
    d="M306.978 247.348C308.586 247.646 310.73 247.806 312.631 247.679L313.094 249.683C311.641 250.018 315.555 250.164 307.588 250.021L306.978 247.348ZM300.747 220.016L300.067 217.033C301.592 216.135 303.277 215.452 305.093 215.033L305.586 217.167C304.018 217.748 302.585 218.557 301.318 219.548C301.124 219.7 300.933 219.856 300.747 220.016Z"
    fill="black"
  />
<path
    d="M291.922 240.356C294.339 239.798 295.846 237.386 295.288 234.968C294.73 232.551 292.318 231.044 289.9 231.602C287.483 232.16 285.976 234.572 286.534 236.989C287.092 239.406 289.504 240.914 291.922 240.356Z"
    fill="white"
  />
<path
    d="M290.532 237.703C291.439 237.494 292.004 236.59 291.795 235.683C291.586 234.777 290.681 234.211 289.774 234.421C288.868 234.63 288.303 235.534 288.512 236.441C288.721 237.347 289.626 237.913 290.532 237.703Z"
    fill="black"
  />
<path
    fill-rule="evenodd"
    clip-rule="evenodd"
    d="M177.651 313.873V265.758C177.651 263.93 179.133 262.448 180.962 262.448H270.367C272.195 262.448 273.677 263.93 273.677 265.758V315.416C259.739 322.682 243.893 326.79 227.088 326.79C209.127 326.79 192.263 322.098 177.651 313.873L177.651 313.873Z"
    fill="#0043C5"
  />
<path
    d="M210.573 292.902C201.064 286.396 193.257 285.089 187.305 289.237C181.221 293.477 174.976 295.963 170.301 295.07C165.718 294.195 162.517 289.618 163.825 285.371C165.892 278.664 170.122 276.047 176.895 277.274L177.316 274.948C169.359 273.506 163.983 276.831 161.567 284.675C159.819 290.345 163.96 296.266 169.858 297.392C172.881 297.97 176.322 297.4 180.038 295.921C182.949 294.763 185.909 293.092 188.656 291.177C193.643 287.702 200.452 288.842 209.238 294.853L210.573 292.902Z"
    fill="black"
  />
<path d="M177.697 270.496H173.391V281.726H177.697V270.496Z" fill="#00AAFF" />
<path d="M199.178 268.171H185.887V281.46H199.178V268.171Z" fill="white" />
<path d="M216.399 268.171H203.108V281.46H216.399V268.171Z" fill="white" />
<path d="M232.871 268.171H219.581V281.46H232.871V268.171Z" fill="white" />
<path d="M249.343 268.171H236.053V281.46H249.343V268.171Z" fill="white" />
<path d="M265.815 268.171H252.525V281.46H265.815V268.171Z" fill="white" />
<path d="M265.815 262.369H185.513V265.738H265.815V262.369Z" fill="black" />
<path
    d="M192.031 270.807H193.255L196.681 278.758H195.063L194.322 276.938H190.874L190.155 278.758H188.572L192.031 270.807ZM193.828 275.726L192.604 272.491L191.357 275.726H193.828Z"
    fill="black"
  />
<path
    d="M207.09 270.807H210.19C210.489 270.807 210.785 270.842 211.077 270.914C211.369 270.985 211.629 271.101 211.857 271.262C212.086 271.423 212.271 271.63 212.413 271.885C212.556 272.139 212.627 272.446 212.627 272.806C212.627 273.255 212.499 273.626 212.245 273.918C211.99 274.21 211.657 274.419 211.245 274.546V274.569C211.747 274.636 212.159 274.831 212.481 275.153C212.803 275.475 212.964 275.905 212.964 276.444C212.964 276.878 212.878 277.243 212.705 277.539C212.533 277.835 212.307 278.073 212.026 278.252C211.745 278.432 211.423 278.561 211.06 278.64C210.697 278.718 210.328 278.758 209.954 278.758H207.09V270.807ZM208.505 274.041H209.763C210.235 274.041 210.594 273.947 210.841 273.76C211.088 273.573 211.212 273.307 211.212 272.963C211.212 272.604 211.084 272.349 210.83 272.199C210.575 272.05 210.178 271.975 209.639 271.975H208.505V274.041ZM208.505 277.567H209.774C209.954 277.567 210.148 277.554 210.358 277.528C210.568 277.502 210.761 277.447 210.936 277.365C211.112 277.283 211.258 277.163 211.375 277.006C211.491 276.849 211.549 276.639 211.549 276.377C211.549 275.958 211.406 275.666 211.122 275.501C210.837 275.336 210.407 275.254 209.83 275.254H208.505V277.567Z"
    fill="black"
  />
<path
    d="M228.652 272.671C228.442 272.387 228.169 272.179 227.832 272.048C227.495 271.917 227.165 271.851 226.844 271.851C226.432 271.851 226.057 271.926 225.72 272.076C225.383 272.226 225.093 272.431 224.85 272.693C224.607 272.956 224.419 273.262 224.288 273.614C224.157 273.966 224.092 274.348 224.092 274.76C224.092 275.194 224.156 275.591 224.283 275.95C224.41 276.309 224.592 276.618 224.828 276.877C225.063 277.135 225.346 277.335 225.675 277.477C226.005 277.62 226.376 277.691 226.787 277.691C227.214 277.691 227.592 277.607 227.922 277.438C228.251 277.27 228.517 277.047 228.719 276.77L229.853 277.567C229.502 278.009 229.071 278.351 228.562 278.595C228.053 278.838 227.457 278.96 226.776 278.96C226.155 278.96 225.584 278.857 225.063 278.651C224.543 278.445 224.096 278.157 223.721 277.786C223.347 277.416 223.055 276.974 222.845 276.461C222.636 275.948 222.531 275.381 222.531 274.76C222.531 274.123 222.641 273.549 222.862 273.036C223.083 272.523 223.386 272.087 223.772 271.728C224.157 271.368 224.612 271.091 225.136 270.897C225.66 270.702 226.23 270.605 226.844 270.605C227.098 270.605 227.364 270.629 227.641 270.678C227.918 270.726 228.184 270.801 228.438 270.902C228.693 271.003 228.932 271.129 229.157 271.279C229.382 271.428 229.573 271.608 229.73 271.818L228.652 272.671Z"
    fill="black"
  />
<path
    d="M239.377 270.807H242.196C242.713 270.807 243.233 270.874 243.758 271.009C244.282 271.144 244.753 271.367 245.173 271.677C245.592 271.988 245.933 272.396 246.195 272.901C246.457 273.407 246.588 274.034 246.588 274.782C246.588 275.478 246.457 276.077 246.195 276.579C245.933 277.081 245.592 277.492 245.173 277.814C244.753 278.136 244.282 278.374 243.758 278.527C243.233 278.681 242.713 278.758 242.196 278.758H239.377V270.807ZM241.972 277.522C242.339 277.522 242.706 277.479 243.072 277.393C243.439 277.307 243.771 277.161 244.066 276.955C244.362 276.749 244.604 276.47 244.791 276.119C244.978 275.767 245.072 275.321 245.072 274.782C245.072 274.213 244.978 273.749 244.791 273.39C244.604 273.03 244.362 272.75 244.066 272.548C243.771 272.345 243.439 272.207 243.072 272.132C242.706 272.057 242.339 272.02 241.972 272.02H240.793V277.522H241.972Z"
    fill="black"
  />
<path
    d="M256.714 270.807H261.982V272.042H258.13V274.064H261.78V275.254H258.13V277.5H262.184V278.758H256.714V270.807Z"
    fill="black"
  />
<path d="M229.501 253.464H221.827V262.448H229.501V253.464Z" fill="black" />
<path d="M258.389 160.874L247.882 162.726L250.938 180.053L261.445 178.2L258.389 160.874Z" fill="#CDDEFF" />
<path d="M177.463 175.141L166.956 176.993L170.012 194.32L180.519 192.468L177.463 175.141Z" fill="#CDDEFF" />
<path
    fill-rule="evenodd"
    clip-rule="evenodd"
    d="M256.099 179.145C250.658 148.299 229.87 135.259 207.523 139.198C185.176 143.137 169.734 162.564 175.175 193.41L256.099 179.145Z"
    fill="#0043C5"
    stroke="#979797"
    stroke-width="0.95"
  />
<path
    fill-rule="evenodd"
    clip-rule="evenodd"
    d="M180.961 213.293C186.114 242.51 207.417 263.176 228.542 259.452C249.666 255.729 262.614 229.025 257.461 199.808L180.961 213.293Z"
    fill="#0043C5"
  />
<path
    fill-rule="evenodd"
    clip-rule="evenodd"
    d="M188.725 214.205C192.89 237.823 210.091 254.532 227.144 251.526C244.196 248.521 254.643 226.938 250.477 203.32L188.725 214.205Z"
    fill="black"
  />
<path
    fill-rule="evenodd"
    clip-rule="evenodd"
    d="M203.05 124.068L206.183 123.515L211.104 142.794L205.021 143.866L203.05 124.068Z"
    fill="#00AAFF"
  />
<path d="M256.097 179.143L175.173 193.407L185.024 249.259L265.948 234.994L256.097 179.143Z" fill="#00AAFF" />
<path
    fill-rule="evenodd"
    clip-rule="evenodd"
    d="M224.239 233.982L230.533 238.955L220.026 240.807L224.239 233.982Z"
    fill="white"
  />
<path d="M257.425 231.933L191.984 243.469L192.765 247.894L258.206 236.357L257.425 231.933Z" fill="#CDDEFF" />
<path
    d="M234.905 189.912C243.609 188.377 249.421 180.078 247.886 171.374C246.351 162.67 238.05 156.858 229.345 158.392C220.641 159.926 214.829 168.226 216.365 176.93C217.9 185.634 226.201 191.446 234.905 189.912Z"
    fill="white"
  />
<path
    d="M239.465 183.976C242.417 183.455 244.388 180.64 243.868 177.688C243.347 174.736 240.531 172.765 237.579 173.285C234.627 173.805 232.656 176.621 233.176 179.573C233.697 182.525 236.512 184.496 239.465 183.976Z"
    fill="black"
  />
<path d="M245.982 176.745L231.788 179.247L231.983 180.353L246.177 177.851L245.982 176.745Z" fill="white" />
<path
    d="M199.327 196.184C208.032 194.65 213.843 186.35 212.308 177.646C210.773 168.942 202.472 163.13 193.767 164.664C185.063 166.199 179.251 174.498 180.787 183.202C182.322 191.906 190.623 197.718 199.327 196.184Z"
    fill="white"
  />
<path
    d="M203.887 190.248C206.839 189.728 208.81 186.913 208.29 183.961C207.769 181.008 204.954 179.037 202.001 179.557C199.049 180.078 197.078 182.893 197.598 185.845C198.119 188.797 200.935 190.769 203.887 190.248Z"
    fill="black"
  />
<path d="M210.405 183.017L196.21 185.52L196.405 186.626L210.6 184.123L210.405 183.017Z" fill="white" />
<path
    d="M221.184 216.657C226.936 215.643 230.777 210.158 229.762 204.406C228.748 198.655 223.263 194.814 217.51 195.828C211.758 196.842 207.918 202.327 208.932 208.078C209.947 213.83 215.432 217.671 221.184 216.657Z"
    fill="white"
    stroke="white"
    stroke-width="3.8"
  />
<path
    d="M220.371 212.049C223.578 211.483 225.719 208.425 225.154 205.219C224.588 202.012 221.53 199.871 218.323 200.436C215.116 201.001 212.975 204.059 213.541 207.266C214.106 210.473 217.164 212.614 220.371 212.049Z"
    fill="black"
  />
<path
    d="M205.007 126.004C207.501 125.564 209.167 123.186 208.727 120.691C208.287 118.197 205.908 116.532 203.414 116.972C200.92 117.411 199.254 119.79 199.694 122.284C200.134 124.778 202.513 126.443 205.007 126.004Z"
    fill="black"
  />
<path
    d="M204.329 121.988C204.634 121.935 204.838 121.643 204.784 121.338C204.73 121.033 204.439 120.829 204.134 120.882C203.828 120.936 203.624 121.228 203.678 121.533C203.732 121.838 204.023 122.042 204.329 121.988Z"
    fill="white"
  />
<path d="M182.985 238.785L264.464 224.42L264.659 225.526L183.18 239.891L182.985 238.785Z" fill="black" />
<path
    fill-rule="evenodd"
    clip-rule="evenodd"
    d="M234.883 293.128C227.971 289.348 219.184 291.171 214.457 297.677C209.73 304.182 210.711 313.101 216.443 318.506L215.265 320.126C207.32 314.355 205.559 303.235 211.332 295.291C217.105 287.346 228.226 285.585 236.171 291.356L234.883 293.128Z"
    fill="white"
  />
<path
    fill-rule="evenodd"
    clip-rule="evenodd"
    d="M213.016 313.979C213.845 315.389 215.131 317.111 216.474 318.462L215.265 320.126C214.059 319.25 216.517 322.299 211.397 316.193L213.016 313.979ZM229.558 291.346L231.364 288.876C233.042 289.438 234.663 290.262 236.171 291.357L234.883 293.128C233.416 292.326 231.865 291.776 230.286 291.47C230.044 291.423 229.801 291.382 229.558 291.346Z"
    fill="black"
  />
<path
    d="M208.415 298.031C210.423 299.489 213.232 299.044 214.691 297.037C216.149 295.03 215.704 292.221 213.697 290.762C211.69 289.304 208.88 289.749 207.422 291.756C205.963 293.763 206.408 296.573 208.415 298.031Z"
    fill="white"
  />
<path
    d="M209.506 295.242C210.259 295.789 211.312 295.622 211.859 294.87C212.406 294.117 212.239 293.064 211.486 292.517C210.734 291.97 209.68 292.137 209.133 292.89C208.586 293.642 208.753 294.696 209.506 295.242Z"
    fill="black"
  />
<path
    d="M117.344 392.199H141.803V398.996H109.681V344.314H117.344V392.199ZM156.131 399.153H148.888V362.437H156.131V399.153ZM344.609 380.718C344.609 383.549 344.106 386.149 343.101 388.517C342.096 390.884 340.703 392.931 338.924 394.655C337.146 396.38 335.044 397.718 332.621 398.67C330.198 399.623 327.594 400.099 324.809 400.099C322.025 400.099 319.421 399.623 316.998 398.67C314.574 397.718 312.486 396.38 310.733 394.655C308.98 392.931 307.601 390.884 306.595 388.517C305.59 386.149 305.087 383.549 305.087 380.718C305.087 377.886 305.59 375.3 306.595 372.958C307.601 370.615 308.98 368.595 310.733 366.896C312.486 365.197 314.574 363.872 316.998 362.92C319.421 361.967 322.025 361.491 324.809 361.491C327.594 361.491 330.198 361.967 332.621 362.92C335.044 363.872 337.146 365.197 338.924 366.896C340.703 368.595 342.096 370.615 343.101 372.958C344.106 375.3 344.609 377.886 344.609 380.718ZM337.051 380.678C337.051 378.928 336.781 377.256 336.24 375.661C335.7 374.066 334.914 372.663 333.885 371.454C332.855 370.245 331.58 369.28 330.061 368.56C328.543 367.839 326.805 367.479 324.848 367.479C322.892 367.479 321.154 367.839 319.635 368.56C318.116 369.28 316.842 370.245 315.812 371.454C314.782 372.663 313.997 374.066 313.456 375.661C312.915 377.256 312.645 378.928 312.645 380.678C312.645 382.427 312.915 384.099 313.456 385.695C313.997 387.29 314.782 388.705 315.812 389.94C316.842 391.175 318.116 392.152 319.635 392.873C321.154 393.593 322.892 393.953 324.848 393.953C326.805 393.953 328.543 393.593 330.061 392.873C331.58 392.152 332.855 391.175 333.885 389.94C334.914 388.705 335.7 387.29 336.24 385.695C336.781 384.099 337.051 382.427 337.051 380.678Z"
    fill="#00AAFF"
  />
<path
    d="M242.881 396.638C241.417 397.795 239.77 398.733 237.941 399.452C235.508 400.409 232.893 400.887 230.098 400.887C227.303 400.887 224.688 400.409 222.255 399.452C219.822 398.496 217.726 397.152 215.966 395.421C214.206 393.689 212.821 391.635 211.811 389.257C210.802 386.88 210.297 384.269 210.297 381.427C210.297 378.584 210.802 375.986 211.811 373.635C212.821 371.283 214.206 369.254 215.966 367.549C217.726 365.843 219.822 364.512 222.255 363.556C224.688 362.599 227.303 362.121 230.098 362.121C232.893 362.121 235.508 362.599 237.941 363.556C239.868 364.313 241.591 365.305 243.112 366.532V362.812H250.134V397.634C250.134 400.317 249.8 402.883 249.131 405.334C248.462 407.784 247.331 409.951 245.736 411.834C244.141 413.717 242.058 415.226 239.486 416.361C236.914 417.496 233.725 418.063 229.918 418.063C226.729 418.063 223.526 417.483 220.311 416.322C217.096 415.162 214.331 413.524 212.017 411.408L216.646 405.76C218.241 407.565 220.234 409.01 222.626 410.093C225.018 411.176 227.475 411.718 229.995 411.718C232.413 411.718 234.445 411.37 236.091 410.673C237.737 409.977 239.062 409.023 240.065 407.81C241.068 406.598 241.788 405.166 242.225 403.515C242.662 401.865 242.881 400.085 242.881 398.176V396.638ZM242.419 381.465C242.419 379.716 242.147 378.044 241.602 376.449C241.058 374.853 240.268 373.451 239.232 372.242C238.195 371.033 236.913 370.068 235.384 369.348C233.855 368.627 232.106 368.267 230.137 368.267C228.168 368.267 226.419 368.627 224.89 369.348C223.361 370.068 222.079 371.033 221.042 372.242C220.006 373.451 219.215 374.853 218.671 376.449C218.127 378.044 217.855 379.716 217.855 381.465C217.855 383.215 218.127 384.887 218.671 386.482C219.215 388.078 220.006 389.493 221.042 390.728C222.079 391.962 223.361 392.94 224.89 393.66C226.419 394.381 228.168 394.741 230.137 394.741C232.106 394.741 233.855 394.381 235.384 393.66C236.913 392.94 238.195 391.962 239.232 390.728C240.268 389.493 241.058 388.078 241.602 386.482C242.147 384.887 242.419 383.215 242.419 381.465Z"
    fill="#00AAFF"
  />
<path fill-rule="evenodd" clip-rule="evenodd" d="M168.886 375.358H175.184V398.996H168.886V375.358Z" fill="#00AAFF" />
<path fill-rule="evenodd" clip-rule="evenodd" d="M195.181 375.358H201.479V398.996H195.181V375.358Z" fill="#00AAFF" />
<path
    fill-rule="evenodd"
    clip-rule="evenodd"
    d="M195.17 376.225C194.924 370.918 190.546 366.691 185.183 366.691C179.819 366.691 175.441 370.918 175.195 376.225H168.886C168.886 367.217 176.182 359.915 185.183 359.915C194.183 359.915 201.479 367.217 201.479 376.225H195.17Z"
    fill="#00AAFF"
  />
<path fill-rule="evenodd" clip-rule="evenodd" d="M295.116 385.91H288.817V362.273H295.116V385.91Z" fill="#00AAFF" />
<path fill-rule="evenodd" clip-rule="evenodd" d="M268.82 385.91H262.522V362.273H268.82V385.91Z" fill="#00AAFF" />
<path
    fill-rule="evenodd"
    clip-rule="evenodd"
    d="M268.831 385.044C269.078 390.351 273.455 394.577 278.819 394.577C284.182 394.577 288.56 390.351 288.806 385.044H295.116C295.116 394.051 287.819 401.354 278.819 401.354C269.818 401.354 262.522 394.051 262.522 385.044H268.831Z"
    fill="#00AAFF"
  />
<path
    d="M324.802 385.527C327.469 385.527 329.631 383.364 329.631 380.696C329.631 378.028 327.469 375.865 324.802 375.865C322.135 375.865 319.973 378.028 319.973 380.696C319.973 383.364 322.135 385.527 324.802 385.527Z"
    fill="black"
  />
<path
    d="M152.745 353.977C155.412 353.977 157.573 351.814 157.573 349.146C157.573 346.477 155.412 344.314 152.745 344.314C150.078 344.314 147.916 346.477 147.916 349.146C147.916 351.814 150.078 353.977 152.745 353.977Z"
    fill="black"
  />
<path
    fill-rule="evenodd"
    clip-rule="evenodd"
    d="M198.116 56.9069L205.893 55.5356C205.888 55.6383 205.883 55.7407 205.877 55.843C204.288 87.351 203.273 104.313 202.832 106.728C202.83 106.737 202.828 106.746 202.827 106.755C202.793 106.933 202.763 107.024 202.736 107.029C202.675 107.04 202.609 106.966 202.537 106.808C202.531 106.794 202.525 106.78 202.519 106.765C201.788 105.019 200.535 94.6376 198.757 75.6209C198.748 75.5212 198.739 75.4214 198.729 75.3212L190.73 76.7317C190.081 76.8461 188.075 64.413 184.71 39.4325C184.697 39.3334 184.684 39.2341 184.67 39.1346L197.775 38.1842L198.116 56.9069ZM198.461 75.6732L190.782 77.0272C190.63 77.0539 190.518 76.9776 190.462 76.9266C190.405 76.8742 190.362 76.8092 190.33 76.7518C190.264 76.634 190.2 76.4705 190.136 76.275C190.007 75.8789 189.859 75.288 189.691 74.5096C189.356 72.9495 188.935 70.6006 188.43 67.4663C187.42 61.1961 186.067 51.765 184.373 39.1746L184.33 38.8585L198.069 37.8621L198.409 56.5505L206.211 55.1748L206.193 55.5507C205.329 72.6822 204.634 85.5402 204.108 94.1241C203.845 98.4157 203.624 101.641 203.445 103.798C203.355 104.876 203.276 105.691 203.207 106.24C203.172 106.513 203.14 106.728 203.108 106.878C203.093 106.951 203.076 107.02 203.055 107.077C203.045 107.104 203.029 107.142 203.004 107.179C202.989 107.203 202.922 107.301 202.788 107.324C202.662 107.347 202.557 107.3 202.489 107.249C202.426 107.201 202.379 107.14 202.346 107.087C202.278 106.98 202.219 106.834 202.163 106.668C202.051 106.33 201.931 105.828 201.804 105.172C201.55 103.856 201.255 101.874 200.921 99.2306C200.26 93.9948 199.439 86.1416 198.461 75.6732ZM229.062 81.6811L233.036 82.8963C232.985 82.9854 232.933 83.0742 232.882 83.1627C225.243 96.2971 220.856 103.694 219.72 105.353C219.685 105.404 219.653 105.45 219.624 105.49C219.513 105.645 219.448 105.719 219.428 105.713C219.383 105.699 219.375 105.599 219.404 105.414C219.412 105.361 219.424 105.3 219.439 105.233C219.761 103.751 221.582 98.8508 224.902 90.5328C224.939 90.4401 224.976 90.3469 225.014 90.2533L220.925 89.0033C220.595 88.9023 222.564 82.7831 226.834 70.6458C226.867 70.5516 226.9 70.4571 226.933 70.3623L233.31 73.0324L229.062 81.6811ZM224.614 90.4448L220.838 89.2902C220.703 89.2489 220.643 89.1417 220.621 89.084C220.598 89.0254 220.592 88.9675 220.591 88.9268C220.587 88.8421 220.597 88.7403 220.613 88.633C220.647 88.4131 220.718 88.1014 220.823 87.7043C221.034 86.9069 221.391 85.7292 221.892 84.1747C222.895 81.0639 224.481 76.426 226.65 70.2627L226.756 69.9628L233.72 72.8787L229.486 81.4972L233.486 82.7201L233.296 83.0471C228.856 90.6823 225.502 96.4023 223.233 100.207C222.099 102.108 221.235 103.533 220.642 104.479C220.346 104.952 220.115 105.308 219.952 105.546C219.87 105.664 219.802 105.758 219.748 105.824C219.722 105.856 219.692 105.89 219.661 105.918C219.646 105.932 219.62 105.954 219.585 105.973C219.564 105.984 219.466 106.038 219.341 106C219.231 105.966 219.166 105.887 219.134 105.823C219.104 105.764 219.094 105.705 219.09 105.664C219.082 105.58 219.09 105.485 219.104 105.392C219.132 105.201 219.196 104.935 219.292 104.603C219.483 103.936 219.813 102.955 220.279 101.665C221.193 99.1353 222.639 95.3944 224.614 90.4448ZM219.687 105.603C219.687 105.603 219.687 105.603 219.687 105.603V105.603ZM161.657 95.3855L164.997 92.8685L158.071 86.2177L163.618 81.0957L163.82 81.3414C167.966 86.3911 171.043 90.2068 173.049 92.787C174.052 94.0765 174.79 95.0611 175.26 95.7383C175.495 96.0756 175.668 96.3441 175.775 96.5392C175.828 96.6344 175.872 96.7265 175.897 96.8074C175.91 96.8463 175.924 96.9028 175.923 96.9656C175.921 97.0274 175.902 97.1484 175.79 97.2334L172.636 99.61C176.185 103.585 178.823 106.606 180.547 108.671C181.426 109.724 182.071 110.532 182.48 111.094C182.683 111.373 182.834 111.601 182.926 111.771C182.971 111.854 183.011 111.94 183.032 112.022C183.042 112.062 183.053 112.121 183.045 112.186C183.036 112.258 183.003 112.354 182.911 112.423C182.807 112.502 182.696 112.485 182.672 112.482C182.633 112.476 182.601 112.464 182.583 112.456C182.544 112.44 182.504 112.418 182.469 112.397C182.395 112.354 182.298 112.288 182.182 112.206C181.947 112.038 181.608 111.782 181.169 111.439C180.288 110.753 178.989 109.71 177.272 108.311C173.839 105.512 168.731 101.284 161.947 95.6278L161.657 95.3855ZM172.395 99.7912C172.329 99.7167 172.262 99.6418 172.195 99.5667L175.609 96.9938C175.885 96.7859 171.941 91.7093 163.778 81.7641C163.715 81.6869 163.652 81.6095 163.588 81.5318L158.509 86.222L165.459 92.896L162.14 95.3974C162.219 95.4633 162.298 95.5291 162.376 95.5947C174.046 105.324 180.699 110.775 182.334 111.945C182.384 111.981 182.43 112.013 182.471 112.041C182.627 112.149 182.714 112.196 182.731 112.184C182.769 112.155 182.742 112.059 182.652 111.895C182.625 111.847 182.594 111.794 182.557 111.736C181.747 110.453 178.36 106.472 172.395 99.7912Z"
    fill="#0043C5"
  />
<path
    fill-rule="evenodd"
    clip-rule="evenodd"
    d="M205.893 55.5355L198.116 56.9068L197.775 38.1841L184.67 39.1345C188.059 64.3141 190.078 76.8465 190.73 76.7316L198.729 75.3211C200.713 96.5808 202.049 107.15 202.736 107.029C203.113 106.962 204.166 89.7979 205.893 55.5355ZM233.036 82.8962L229.062 81.681L233.31 73.0323L226.933 70.3622C222.595 82.6878 220.592 88.9014 220.925 89.0032L225.014 90.2532C220.939 100.452 219.077 105.605 219.428 105.713C219.621 105.772 224.157 98.1661 233.036 82.8962ZM165.459 92.8959L162.14 95.3973C175.706 106.709 182.569 112.305 182.731 112.184C183.024 111.962 179.512 107.757 172.195 99.5665L175.609 96.9937C175.887 96.7842 171.88 91.6302 163.588 81.5317L158.508 86.2219L165.459 92.8959Z"
    fill="white"
  />
</svg>
