<svg xmlns="http://www.w3.org/2000/svg" viewBox="0 0 300 300"><defs><style
    >.a,.g{fill:#7bc8f9;}.a,.b,.c,.d{fill-rule:evenodd;}.b,.f{fill:#fff;}.c{fill:#4aa8f7;}.d,.e{fill:#1746bd;}</style></defs><title
  >linguo new vertical</title><path
    class="a"
    d="M197.18,118.16h0v0Zm-.93-5.71.06.39h0ZM134.31,81c-1.39-2.63-5.73-7.31-12.2-6.2a11.18,11.18,0,0,0-9.54,10.11,1.71,1.71,0,0,0,1.6,1.82h.12A1.71,1.71,0,0,0,116,85.09a7.8,7.8,0,0,1,6.69-7c5.61-1,8.47,4.21,8.58,4.42a1.72,1.72,0,1,0,3-1.61Zm36.62-7.07c-1.39-2.63-5.73-7.31-12.2-6.21a11.21,11.21,0,0,0-9.55,10.12,1.73,1.73,0,0,0,1.62,1.82h.1A1.73,1.73,0,0,0,152.62,78a8.3,8.3,0,0,1,1-3,7.55,7.55,0,0,1,5.71-3.88c5.61-1,8.46,4.2,8.58,4.42a1.72,1.72,0,0,0,3-1.61ZM150,17.35a92.19,92.19,0,0,0-11.46.71,8,8,0,0,1-2.14,3.23l3.08,10.56q2.16-.18,4.29-.18c17.54,0,33.44,8.87,43.07,26.89,0,0,4.14,7.42,7.1,20.25,5.56-.3,10.69,4.48,11.67,11.1.93,6.28-2.18,12.07-7.13,13.78l3,16.76a4.3,4.3,0,0,1-3,4.85C150.62,143.61,105.22,143,105.22,143a4.14,4.14,0,0,1-4.35-3.41l-3.1-17.63a9.17,9.17,0,0,1-1.73-.09c-5.89-.88-9.83-7.24-8.8-14.2a13.42,13.42,0,0,1,6.45-9.85c-.64-5.15-1.45-13.59-.88-19.67l.09-.79a22.23,22.23,0,0,1,.37-2.26c3.22-21.76,17-36.08,35.43-41.28l-.71-11a8.1,8.1,0,0,1-2.93-2h0a91.95,91.95,0,0,0-36,157.57C98,164.94,109.32,158.08,116.14,162a2.26,2.26,0,0,1,.26.16,37.38,37.38,0,0,1,14.9-12.84,67.78,67.78,0,0,1,58.36,1.24,66.13,66.13,0,0,1,4.67-9.86c4.15-7.19,9.35-13.24,14.63-17,5.7-4.09,10.93-5.13,14.75-2.93s5.53,7.26,4.84,14.23c-.65,6.47-3.28,14-7.44,21.19a56.13,56.13,0,0,1-13.78,16.4,35,35,0,0,1,1.27,7.7A91.94,91.94,0,0,0,150,17.35Zm9.12,83.32a1.71,1.71,0,0,0-2.43,0s-2.94,2.76-8.9,3.82a22.89,22.89,0,0,1-10.44-.44,1.7,1.7,0,0,0-2.19,1,1.72,1.72,0,0,0,1.05,2.2,23.67,23.67,0,0,0,7.22,1,28.19,28.19,0,0,0,5-.44c7-1.24,10.53-4.59,10.68-4.73A1.71,1.71,0,0,0,159.12,100.67Zm6.37-60.1a23.26,23.26,0,0,1-3.67,11.89,98.27,98.27,0,0,1,20,4.27A46.41,46.41,0,0,0,165.49,40.57ZM114,194l-.54-.23.56.24Zm.33-28.94a5.16,5.16,0,0,0-2.61-.65c-5.47,0-13.66,6.64-19.91,16.14l0,.06a92,92,0,0,0,18,11.49v-8.66a38,38,0,0,1,4.69-18.27Z"
  /><path
    class="b"
    d="M115.57,60.44A86.74,86.74,0,0,0,97.11,73a46.53,46.53,0,0,1,11.68-23.75A24.18,24.18,0,0,0,115.57,60.44Z"
  /><path
    class="b"
    d="M181.82,56.73a98.27,98.27,0,0,0-20-4.27,23.26,23.26,0,0,0,3.67-11.89A46.41,46.41,0,0,1,181.82,56.73Z"
  /><path
    class="b"
    d="M205.61,89.91c-1-6.62-6.11-11.4-11.67-11.1-3-12.83-7.1-20.25-7.1-20.25-9.63-18-25.53-26.89-43.07-26.89q-2.13,0-4.29.18L136.4,21.29a8,8,0,1,0-13.36-5,7.89,7.89,0,0,0,1.63,4,6.08,6.08,0,0,0,.39.47h0a8.1,8.1,0,0,0,2.93,2l.71,11C110.24,39,96.49,53.3,93.27,75.06a22.23,22.23,0,0,0-.37,2.26l-.09.79c-.57,6.08.24,14.52.88,19.67a13.42,13.42,0,0,0-6.45,9.85c-1,7,2.91,13.32,8.8,14.2a9.17,9.17,0,0,0,1.73.09l3.1,17.63a4.14,4.14,0,0,0,4.35,3.41s45.4.65,93.26-17.66a4.3,4.3,0,0,0,3-4.85l-3-16.76C203.43,102,206.54,96.19,205.61,89.91ZM181.82,56.73a98.27,98.27,0,0,0-20-4.27,23.26,23.26,0,0,0,3.67-11.89A46.41,46.41,0,0,1,181.82,56.73ZM131.39,36.37l-1.6-16a5.58,5.58,0,0,1-1.33-.49h0A5.31,5.31,0,1,1,135,18.56a5.16,5.16,0,0,1-1.26,1.11l4,15.56a45.26,45.26,0,0,1,24.22,3.51c.23,1.53.58,6.79-4,13.39a86.79,86.79,0,0,0-21.46,1.18,77.36,77.36,0,0,0-17.57,5.53c-6.51-5.79-7.06-11.58-7.11-12.49A46.09,46.09,0,0,1,131.39,36.37Zm-22.6,12.86a24.18,24.18,0,0,0,6.78,11.21A86.74,86.74,0,0,0,97.11,73,46.53,46.53,0,0,1,108.79,49.23ZM197.15,119c0,.06,0,.12,0,.18a4.94,4.94,0,0,1-2.91,3.87,7.52,7.52,0,0,1-.95.38h0A255.22,255.22,0,0,1,168.35,131a275.68,275.68,0,0,1-31.24,5.91,211.38,211.38,0,0,1-28.54,2H108l-.2,0a1.5,1.5,0,0,1-.29-.06,1.37,1.37,0,0,1-.29-.07l-.28-.08-.28-.11-.28-.13-.18-.1-.14-.07-.14-.09-.16-.11-.25-.19a3.17,3.17,0,0,1-.39-.34l-.29-.31-.09-.12a.64.64,0,0,1-.1-.13,1,1,0,0,1-.12-.17,1,1,0,0,1-.14-.22l-.08-.13a.76.76,0,0,1-.09-.18A2.39,2.39,0,0,1,104,136a.61.61,0,0,1,0-.12.94.94,0,0,1-.06-.15.88.88,0,0,1,0-.15c0-.09-.06-.19-.08-.28v0c0-.11,0-.23-.07-.34l-.81-4.69a497.71,497.71,0,0,0,49.89-6.69c24-4.41,38.37-9,43.52-10.74l-.06-.39.06.39.77,4.38a7.39,7.39,0,0,1,.1.92h0v.21C197.18,118.58,197.17,118.79,197.15,119Zm.63-19.31a6.41,6.41,0,0,1-3.69.4l.72,4.1.88,5-.06,0c-2.33.82-8.55,2.89-18.59,5.41-6.64,1.67-14.95,3.53-24.9,5.36-17.31,3.19-32,5-41.19,5.9-4,.41-7,.65-8.64.78h0l-1-5.61-.68-3.93a6.53,6.53,0,0,1-3.55.74l-.42-.05c-4-.6-6.73-4.95-6-9.71a9.32,9.32,0,0,1,3.64-6.25h0a6.88,6.88,0,0,1,3.46-1.33l-.38-2.2c-.11-.58-.2-1.16-.29-1.74a73.78,73.78,0,0,1-.71-18.14c3-3.08,18.27-17.63,40.75-21.78,24.14-4.46,45.52,3.91,47.28,4.63h0a73.46,73.46,0,0,1,6.12,18.33c.15.73.29,1.46.42,2.2l.33,1.89a6.22,6.22,0,0,1,3.54-.94c3.6.12,6.81,3.29,7.45,7.6C202.85,94.53,200.92,98.34,197.78,99.68Z"
  /><path
    class="b"
    d="M159.07,103.1c-.15.14-3.7,3.49-10.68,4.73a28.19,28.19,0,0,1-5,.44,23.67,23.67,0,0,1-7.22-1,1.72,1.72,0,0,1-1.05-2.2,1.7,1.7,0,0,1,2.19-1,22.89,22.89,0,0,0,10.44.44c6-1.06,8.87-3.8,8.9-3.82a1.72,1.72,0,0,1,2.38,2.48Z"
  /><path
    class="b"
    d="M133.6,83.28a1.73,1.73,0,0,1-2.33-.72c-.11-.21-3-5.38-8.58-4.42a7.8,7.8,0,0,0-6.69,7,1.71,1.71,0,0,1-1.71,1.59h-.12a1.71,1.71,0,0,1-1.6-1.82,11.18,11.18,0,0,1,9.54-10.11c6.47-1.11,10.81,3.57,12.2,6.2A1.72,1.72,0,0,1,133.6,83.28Z"
  /><path
    class="b"
    d="M170.22,76.2a1.71,1.71,0,0,1-2.33-.71c-.12-.22-3-5.38-8.58-4.42A7.55,7.55,0,0,0,153.6,75a8.3,8.3,0,0,0-1,3,1.73,1.73,0,0,1-1.72,1.62h-.1a1.73,1.73,0,0,1-1.62-1.82,11.21,11.21,0,0,1,9.55-10.12c6.47-1.1,10.81,3.58,12.2,6.21A1.71,1.71,0,0,1,170.22,76.2Z"
  /><polygon class="b" points="196.31 112.84 196.31 112.84 196.25 112.45 196.31 112.84" /><path
    class="b"
    d="M197.18,118.37v-.22h0Z"
  /><path
    class="c"
    d="M115.57,60.44A86.74,86.74,0,0,0,97.11,73a46.53,46.53,0,0,1,11.68-23.75A24.18,24.18,0,0,0,115.57,60.44Z"
  /><path
    class="c"
    d="M181.82,56.73a98.27,98.27,0,0,0-20-4.27,23.26,23.26,0,0,0,3.67-11.89A46.41,46.41,0,0,1,181.82,56.73Z"
  /><path
    class="a"
    d="M202.24,90.41c-.64-4.31-3.85-7.48-7.45-7.6a6.22,6.22,0,0,0-3.54.94l-.33-1.89c-.13-.74-.27-1.47-.42-2.2a73.46,73.46,0,0,0-6.12-18.33h0c-1.76-.72-23.14-9.09-47.28-4.63-22.48,4.15-37.73,18.7-40.75,21.78a73.78,73.78,0,0,0,.71,18.14c.09.58.18,1.16.29,1.74l.38,2.2a6.88,6.88,0,0,0-3.46,1.33h0a9.32,9.32,0,0,0-3.64,6.25c-.71,4.76,2,9.11,6,9.71l.42.05a6.53,6.53,0,0,0,3.55-.74l.68,3.93,1,5.61h0c1.65-.13,4.61-.37,8.64-.78,9.18-.93,23.88-2.71,41.19-5.9,10-1.83,18.26-3.69,24.9-5.36,10-2.52,16.26-4.59,18.59-5.41l.06,0-.88-5-.72-4.1a6.41,6.41,0,0,0,3.69-.4C200.92,98.34,202.85,94.53,202.24,90.41ZM133.6,83.28a1.73,1.73,0,0,1-2.33-.72c-.11-.21-3-5.38-8.58-4.42a7.8,7.8,0,0,0-6.69,7,1.71,1.71,0,0,1-1.71,1.59h-.12a1.71,1.71,0,0,1-1.6-1.82,11.18,11.18,0,0,1,9.54-10.11c6.47-1.11,10.81,3.57,12.2,6.2A1.72,1.72,0,0,1,133.6,83.28Zm25.47,19.82c-.15.14-3.7,3.49-10.68,4.73a28.19,28.19,0,0,1-5,.44,23.67,23.67,0,0,1-7.22-1,1.72,1.72,0,0,1-1.05-2.2,1.7,1.7,0,0,1,2.19-1,22.89,22.89,0,0,0,10.44.44c6-1.06,8.87-3.8,8.9-3.82a1.72,1.72,0,0,1,2.38,2.48Zm11.15-26.9a1.71,1.71,0,0,1-2.33-.71c-.12-.22-3-5.38-8.58-4.42A7.55,7.55,0,0,0,153.6,75a8.3,8.3,0,0,0-1,3,1.73,1.73,0,0,1-1.72,1.62h-.1a1.73,1.73,0,0,1-1.62-1.82,11.21,11.21,0,0,1,9.55-10.12c6.47-1.1,10.81,3.58,12.2,6.21A1.71,1.71,0,0,1,170.22,76.2Z"
  /><path
    class="c"
    d="M133.6,83.28a1.73,1.73,0,0,1-2.33-.72c-.11-.21-3-5.38-8.58-4.42a7.8,7.8,0,0,0-6.69,7,1.71,1.71,0,0,1-1.71,1.59h-.12a1.71,1.71,0,0,1-1.6-1.82,11.18,11.18,0,0,1,9.54-10.11c6.47-1.11,10.81,3.57,12.2,6.2A1.72,1.72,0,0,1,133.6,83.28Z"
  /><path
    class="c"
    d="M170.22,76.2a1.71,1.71,0,0,1-2.33-.71c-.12-.22-3-5.38-8.58-4.42A7.55,7.55,0,0,0,153.6,75a8.3,8.3,0,0,0-1,3,1.73,1.73,0,0,1-1.72,1.62h-.1a1.73,1.73,0,0,1-1.62-1.82,11.21,11.21,0,0,1,9.55-10.12c6.47-1.1,10.81,3.58,12.2,6.21A1.71,1.71,0,0,1,170.22,76.2Z"
  /><path
    class="d"
    d="M181.82,56.73a98.27,98.27,0,0,0-20-4.27,23.26,23.26,0,0,0,3.67-11.89A46.41,46.41,0,0,1,181.82,56.73Z"
  /><path
    class="d"
    d="M115.57,60.44A86.74,86.74,0,0,0,97.11,73a46.53,46.53,0,0,1,11.68-23.75A24.18,24.18,0,0,0,115.57,60.44Z"
  /><path class="c" d="M191.94,155.24l-.09.32a2.61,2.61,0,0,0-.27-.19l.09-.31A2.53,2.53,0,0,1,191.94,155.24Z" /><path
    class="c"
    d="M224.16,139.15A56.7,56.7,0,0,1,218,154.36a54.05,54.05,0,0,1-11.87,14.56,35.85,35.85,0,0,0-13.23-16.44,61,61,0,0,1,4.64-9.93A58.86,58.86,0,0,1,206.11,131,42.66,42.66,0,0,0,224.16,139.15Z"
  /><path
    class="c"
    d="M224.91,134.63c0,.37-.08.75-.13,1.13a40,40,0,0,1-16.13-7.18c.81-.7,1.63-1.35,2.44-1.93,3.07-2.2,5.91-3.36,8.22-3.36a5,5,0,0,1,2.57.63C224.35,125.34,225.45,129.25,224.91,134.63Z"
  /><path
    class="e"
    d="M224.91,134.63c0,.37-.08.75-.13,1.13a40,40,0,0,1-16.13-7.18c.81-.7,1.63-1.35,2.44-1.93,3.07-2.2,5.91-3.36,8.22-3.36a5,5,0,0,1,2.57.63C224.35,125.34,225.45,129.25,224.91,134.63Z"
  /><path
    class="f"
    d="M191.67,155.06l-.09.31a2.61,2.61,0,0,1,.27.19l.09-.32A2.53,2.53,0,0,0,191.67,155.06Zm0,0-.09.31a2.61,2.61,0,0,1,.27.19l.09-.32A2.53,2.53,0,0,0,191.67,155.06Zm0,0-.09.31a2.61,2.61,0,0,1,.27.19l.09-.32A2.53,2.53,0,0,0,191.67,155.06Zm0,0-.09.31a2.61,2.61,0,0,1,.27.19l.09-.32A2.53,2.53,0,0,0,191.67,155.06Zm0,0-.09.31a2.61,2.61,0,0,1,.27.19l.09-.32A2.53,2.53,0,0,0,191.67,155.06Zm0,0-.09.31a2.61,2.61,0,0,1,.27.19l.09-.32A2.53,2.53,0,0,0,191.67,155.06Zm0,0-.09.31a2.61,2.61,0,0,1,.27.19l.09-.32A2.53,2.53,0,0,0,191.67,155.06Zm0,0-.09.31a2.61,2.61,0,0,1,.27.19l.09-.32A2.53,2.53,0,0,0,191.67,155.06Zm0,0-.09.31a2.61,2.61,0,0,1,.27.19l.09-.32A2.53,2.53,0,0,0,191.67,155.06Zm0,0-.09.31a2.61,2.61,0,0,1,.27.19l.09-.32A2.53,2.53,0,0,0,191.67,155.06Z"
  /><path
    class="c"
    d="M114.55,165.2a38,38,0,0,0-4.69,18.27v8.66a92,92,0,0,1-18-11.49l0-.06c6.25-9.5,14.44-16.14,19.91-16.14a5.16,5.16,0,0,1,2.61.65Z"
  /><path class="f" d="M114,194l-.54-.23.56.24Z" /><path class="f" d="M114,194l-.54-.23.56.24Z" /><path
    class="e"
    d="M117.63,195.46l-.5-.18-.81-.32-.73-.29C116.27,194.94,117,195.21,117.63,195.46Z"
  /><path class="e" d="M118.67,195.85l-.11,0-.35-.13Z" /><path
    class="e"
    d="M145.32,201.19c-.78,0-1.55-.08-2.32-.14C143.77,201.11,144.54,201.16,145.32,201.19Z"
  /><path
    class="e"
    d="M153,201.26c-1,0-2,.05-3,.05q-1.16,0-2.31,0,1.16,0,2.31,0C151,201.31,152,201.29,153,201.26Z"
  /><path class="e" d="M160.92,200.67c-1.3.16-2.61.28-3.93.38C158.31,201,159.62,200.82,160.92,200.67Z" /><path
    class="e"
    d="M173.33,198.33c-1,.28-2.09.53-3.15.77C171.24,198.86,172.29,198.6,173.33,198.33Z"
  /><path
    class="e"
    d="M205.22,181v2l-.34.26-.12.09-.12.09h0c-1,.7-1.92,1.39-2.91,2.05-.17.12-.34.24-.52.35l-.45.31-.66.43-.79.5-.92.58-.68.41-.49.3c-.23.14-.46.28-.7.41-.44.26-.88.52-1.33.76-.24.14-.48.28-.73.41l-.74.41-1.29.68-.7.36-1.6.8-.81.38-1.64.76c-.56.25-1.13.5-1.71.74l-.87.37-1.76.7-.89.34c-.89.33-1.79.66-2.69,1l-.91.31-.91.29-.91.29-.92.27-.92.27-.93.25-.93.25c-1,.27-2.09.53-3.15.77h0l-1.32.29-1.22.24-1.11.21-.69.12-1,.17-1,.15-1.13.16-.74.1-.19,0-.86.1c-1.3.15-2.61.28-3.93.38l-2,.13-1,0-1,0c-1,0-2,.05-3,.05q-1.16,0-2.31,0h-.19c-.73,0-1.46-.05-2.18-.09s-1.55-.08-2.32-.14l-1.13-.09h0l-1.14-.1-1.14-.13c-.58-.06-1.15-.13-1.72-.21l-.72-.09-1-.15-.86-.13-1.39-.23-1.12-.21-1.12-.22-.76-.16-.38-.08-1.18-.26c-.33-.08-.67-.15-1-.24q-3.16-.75-6.24-1.74l-.24-.07-.93-.3-.72-.25-.81-.28-.71-.25-.46-.17-.46-.17-.12,0c-.68-.25-1.36-.52-2-.79l-.4-.16-.08,0-.58-.24-.42-.18,0,0h0l-.54-.23h0l-.2-.09V183.47a34.22,34.22,0,0,1,1.86-11.17.76.76,0,0,0,0-.11h0l.26-.72a33.1,33.1,0,0,1,1.37-3.18l.37-.74.37-.68c.1-.19.21-.38.32-.56l.31-.53c.11-.2.24-.39.36-.59l.37-.59a34.36,34.36,0,0,1,13.86-12.17,62,62,0,0,1,26.49-5.67c10.67,0,21.05,2.52,29.3,7.11l.28.16.28.16h0c.35.2.69.41,1,.63l1,.68.27.19.27.19c.7.5,1.37,1,2,1.57l.59.51.12.11A32.38,32.38,0,0,1,203.25,171c0,.1.07.2.1.3s.08.2.11.3c.14.38.26.78.38,1.17s.24.8.34,1.2c0,.11.06.21.08.32s.06.21.08.31A31.63,31.63,0,0,1,205.22,181Z"
  /><path
    class="c"
    d="M157.93,52.13a86.79,86.79,0,0,0-21.46,1.18,77.36,77.36,0,0,0-17.57,5.53c-6.51-5.79-7.06-11.58-7.11-12.49a46.09,46.09,0,0,1,19.6-10l-1.6-16a5.42,5.42,0,0,0,2.05,0,5.28,5.28,0,0,0,1.9-.74l4,15.56a45.26,45.26,0,0,1,24.22,3.51C162.17,40.27,162.52,45.53,157.93,52.13Z"
  /><path
    class="c"
    d="M197.18,118.16h0v0Zm-38.06-17.49a1.71,1.71,0,0,0-2.43,0s-2.94,2.76-8.9,3.82a22.89,22.89,0,0,1-10.44-.44,1.7,1.7,0,0,0-2.19,1,1.72,1.72,0,0,0,1.05,2.2,23.67,23.67,0,0,0,7.22,1,28.19,28.19,0,0,0,5-.44c7-1.24,10.53-4.59,10.68-4.73A1.71,1.71,0,0,0,159.12,100.67Z"
  /><path
    class="d"
    d="M136.14,14.26a5.31,5.31,0,1,0-7.69,5.62h0a5.58,5.58,0,0,0,1.33.49,5.42,5.42,0,0,0,2.05,0,5.28,5.28,0,0,0,1.9-.74A5.16,5.16,0,0,0,135,18.56,5.27,5.27,0,0,0,136.14,14.26Zm-5.09,1.5a.64.64,0,0,1-.75-.53.65.65,0,1,1,1.28-.22A.65.65,0,0,1,131.05,15.76Z"
  /><path
    class="c"
    d="M159.07,103.1c-.15.14-3.7,3.49-10.68,4.73a28.19,28.19,0,0,1-5,.44,23.67,23.67,0,0,1-7.22-1,1.72,1.72,0,0,1-1.05-2.2,1.7,1.7,0,0,1,2.19-1,22.89,22.89,0,0,0,10.44.44c6-1.06,8.87-3.8,8.9-3.82a1.72,1.72,0,0,1,2.38,2.48Z"
  /><path
    class="f"
    d="M133.6,83.28a1.73,1.73,0,0,1-2.33-.72c-.11-.21-3-5.38-8.58-4.42a7.8,7.8,0,0,0-6.69,7,1.71,1.71,0,0,1-1.71,1.59h-.12a1.71,1.71,0,0,1-1.6-1.82,11.18,11.18,0,0,1,9.54-10.11c6.47-1.11,10.81,3.57,12.2,6.2A1.72,1.72,0,0,1,133.6,83.28Z"
  /><path
    class="f"
    d="M170.22,76.2a1.71,1.71,0,0,1-2.33-.71c-.12-.22-3-5.38-8.58-4.42A7.55,7.55,0,0,0,153.6,75a8.3,8.3,0,0,0-1,3,1.73,1.73,0,0,1-1.72,1.62h-.1a1.73,1.73,0,0,1-1.62-1.82,11.21,11.21,0,0,1,9.55-10.12c6.47-1.1,10.81,3.58,12.2,6.21A1.71,1.71,0,0,1,170.22,76.2Z"
  /><path
    class="f"
    d="M159.07,103.1c-.15.14-3.7,3.49-10.68,4.73a28.19,28.19,0,0,1-5,.44,23.67,23.67,0,0,1-7.22-1,1.72,1.72,0,0,1-1.05-2.2,1.7,1.7,0,0,1,2.19-1,22.89,22.89,0,0,0,10.44.44c6-1.06,8.87-3.8,8.9-3.82a1.72,1.72,0,0,1,2.38,2.48Z"
  /><path class="f" d="M92.9,77.32l-.09.79A1.79,1.79,0,0,1,92.9,77.32Z" /><path
    class="d"
    d="M197.18,118.37c0,.21,0,.42,0,.62s0,.12,0,.18a4.94,4.94,0,0,1-2.91,3.87,7.52,7.52,0,0,1-.95.38h0A255.22,255.22,0,0,1,168.35,131a275.68,275.68,0,0,1-31.24,5.91,211.38,211.38,0,0,1-28.54,2H108l-.2,0c-.09,0-.2,0-.29-.06l-.29-.07-.28-.08-.28-.11-.28-.13-.18-.1-.14-.07-.14-.09-.16-.11-.25-.19a4.32,4.32,0,0,1-.39-.34l-.29-.31-.09-.12a.64.64,0,0,1-.1-.13,1,1,0,0,1-.12-.17,1,1,0,0,1-.14-.22l-.08-.13a.76.76,0,0,1-.09-.18A2.39,2.39,0,0,1,104,136a.61.61,0,0,1,0-.12.94.94,0,0,1-.06-.15.88.88,0,0,1,0-.15c0-.09-.06-.19-.08-.28v0c0-.11,0-.23-.07-.34l-.81-4.69a497.71,497.71,0,0,0,49.89-6.69c24-4.41,38.37-9,43.52-10.74h0l.77,4.38a7.39,7.39,0,0,1,.1.92h0Z"
  /><polygon class="d" points="196.31 112.84 196.31 112.84 196.25 112.45 196.31 112.84" /><path
    class="f"
    d="M196.25,112.45l.06.39h0Z"
  /><path class="d" d="M111.59,193Z" /><path
    class="f"
    d="M207,181.63h0l.22-.18Zm.67-.54c.23-.18.46-.36.68-.55h0Zm-96.05,11.85h0Z"
  /><path class="f" d="M207.17,181.45l-.22.18h0Z" /><path class="f" d="M111.57,192.94h0ZM207,181.63h0l.22-.18Z" /><path
    class="f"
    d="M207.62,181.09c.23-.18.46-.36.68-.55h0Z"
  /><path class="f" d="M191.67,155.06l-.09.31a2.61,2.61,0,0,1,.27.19l.09-.32A2.53,2.53,0,0,0,191.67,155.06Z" /><path
    class="f"
    d="M223.71,120.76c-3.82-2.2-9.05-1.16-14.75,2.93-5.28,3.79-10.48,9.84-14.63,17a66.13,66.13,0,0,0-4.67,9.86,67.78,67.78,0,0,0-58.36-1.24,37.38,37.38,0,0,0-14.9,12.84,2.26,2.26,0,0,0-.26-.16c-6.82-3.94-18.19,2.92-27,16.31l.47.41.88.76.89.74.49.4,0-.06c6.25-9.5,14.44-16.14,19.91-16.14a5.16,5.16,0,0,1,2.61.65l.18.11a38,38,0,0,0-4.69,18.27v8.66l.31.15h0c.46.23.93.44,1.39.66h0l.26.12.57.25.54.24.31.14V183.47a34.22,34.22,0,0,1,1.86-11.17.76.76,0,0,0,0-.11h0l.26-.72a33.1,33.1,0,0,1,1.37-3.18l.37-.74.37-.68c.1-.19.21-.38.32-.56l.31-.53c.11-.2.24-.39.36-.59l.37-.59a34.36,34.36,0,0,1,13.86-12.17,62,62,0,0,1,26.49-5.67c10.67,0,21.05,2.52,29.3,7.11l.28.16.28.16h0c.35.2.69.41,1,.63l1,.68.27.19.27.19c.7.5,1.37,1,2,1.57l.59.51.12.11A32.38,32.38,0,0,1,203.25,171c0,.1.07.2.1.3s.08.2.11.3c.14.38.26.78.38,1.17s.24.8.34,1.2c0,.11.06.21.08.32s.06.21.08.31a31.63,31.63,0,0,1,.88,6.36v2l.31-.23,0,0,0,0,.61-.47.74-.57.22-.18.22-.17h0l.23-.19.68-.56.3-.25a35,35,0,0,0-1.27-7.7,56.13,56.13,0,0,0,13.78-16.4c4.16-7.19,6.79-14.72,7.44-21.19C229.24,128,227.52,123,223.71,120.76Zm-31.86,34.8a2.61,2.61,0,0,0-.27-.19l.09-.31a2.53,2.53,0,0,1,.27.18Zm26.1-1.2a54.05,54.05,0,0,1-11.87,14.56,35.85,35.85,0,0,0-13.23-16.44,61,61,0,0,1,4.64-9.93A58.86,58.86,0,0,1,206.11,131a42.66,42.66,0,0,0,18,8.17A56.7,56.7,0,0,1,218,154.36Zm7-19.73c0,.37-.08.75-.13,1.13a40,40,0,0,1-16.13-7.18c.81-.7,1.63-1.35,2.44-1.93,3.07-2.2,5.91-3.36,8.22-3.36a5,5,0,0,1,2.57.63C224.35,125.34,225.45,129.25,224.91,134.63Z"
  /><path
    class="g"
    d="M31.8,264.78H58.13v7.32H23.55V213.22H31.8Zm41.75,7.49h-7.8V232.74h7.8Zm202.9-19.85a21.32,21.32,0,0,1-1.62,8.4,19.89,19.89,0,0,1-4.5,6.61,20.37,20.37,0,0,1-6.78,4.32,23.73,23.73,0,0,1-16.82,0,20,20,0,0,1-6.75-4.32,20.37,20.37,0,0,1-4.45-6.61,21.32,21.32,0,0,1-1.62-8.4,21.05,21.05,0,0,1,1.62-8.36,19.66,19.66,0,0,1,11.2-10.8,23.73,23.73,0,0,1,16.82,0,20.44,20.44,0,0,1,6.78,4.28,19.51,19.51,0,0,1,4.5,6.52A21.05,21.05,0,0,1,276.45,252.42Zm-8.13,0a16.54,16.54,0,0,0-.88-5.41,13.62,13.62,0,0,0-2.53-4.52,12,12,0,0,0-4.12-3.12,14.15,14.15,0,0,0-11.22,0,12,12,0,0,0-4.12,3.12,13.62,13.62,0,0,0-2.53,4.52,17,17,0,0,0,0,10.81,14.06,14.06,0,0,0,2.53,4.57,12,12,0,0,0,4.12,3.16,14.15,14.15,0,0,0,11.22,0,12,12,0,0,0,4.12-3.16,14.06,14.06,0,0,0,2.53-4.57A16.52,16.52,0,0,0,268.32,252.38Z"
  /><path
    class="g"
    d="M166.94,269.56a20.59,20.59,0,0,1-5.32,3,23.9,23.9,0,0,1-16.88,0,20.07,20.07,0,0,1-6.78-4.34,20.45,20.45,0,0,1-4.47-6.64,21.47,21.47,0,0,1-1.63-8.43,21.21,21.21,0,0,1,1.63-8.39,19.75,19.75,0,0,1,11.25-10.85,23.9,23.9,0,0,1,16.88,0,20.94,20.94,0,0,1,5.57,3.21v-4h7.56v37.49a31.35,31.35,0,0,1-1.08,8.29,18,18,0,0,1-3.66,7,18.4,18.4,0,0,1-6.72,4.88A25.61,25.61,0,0,1,153,292.63a30.29,30.29,0,0,1-10.34-1.88,26.35,26.35,0,0,1-8.93-5.29l5-6.08a18.67,18.67,0,0,0,6.44,4.67,19.08,19.08,0,0,0,7.93,1.75,16.85,16.85,0,0,0,6.56-1.13,11.06,11.06,0,0,0,4.28-3.08,12,12,0,0,0,2.32-4.62,22.48,22.48,0,0,0,.71-5.75Zm-.5-16.34a16.52,16.52,0,0,0-.88-5.4,13.63,13.63,0,0,0-2.55-4.53,12.18,12.18,0,0,0-4.14-3.11,14.23,14.23,0,0,0-11.3,0,12.28,12.28,0,0,0-4.14,3.11,13.63,13.63,0,0,0-2.55,4.53,17,17,0,0,0,0,10.81,14,14,0,0,0,2.55,4.57,12,12,0,0,0,4.14,3.15,14.23,14.23,0,0,0,11.3,0A11.91,11.91,0,0,0,163,263.2a14,14,0,0,0,2.55-4.57A16.54,16.54,0,0,0,166.44,253.22Z"
  /><path class="a" d="M87.31,246.65q0,.47,0,.93v-.93Z" /><path
    class="a"
    d="M122.37,246.65v.93c0-.31,0-.62,0-.93Z"
  /><path
    class="a"
    d="M122.37,247.58V272.1h-6.78V247.58h0a10.77,10.77,0,0,0-21.51,0h0V272.1H87.28V247.58q0-.47,0-.93a17.54,17.54,0,0,1,35,0C122.36,247,122.37,247.27,122.37,247.58Z"
  /><path
    class="a"
    d="M223.17,232.56v24.52c0,.31,0,.62,0,.93a17.54,17.54,0,0,1-35,0q0-.47,0-.93V232.56h6.78v24.52h0a10.76,10.76,0,0,0,21.5,0h0V232.56Z"
  /><path class="a" d="M223.17,257.08V258h0C223.16,257.7,223.17,257.39,223.17,257.08Z" /><path
    class="a"
    d="M188.11,258h0v-.93Q188.08,257.54,188.11,258Z"
  /><circle class="e" cx="255.13" cy="252.4" r="5.2" /><circle class="e" cx="69.91" cy="218.43" r="5.2" /></svg>
