<svg viewBox="0 0 28 24" xmlns="http://www.w3.org/2000/svg">
<path
    fill="currentColor"
    fill-rule="evenodd"
    clip-rule="evenodd"
    d="M8.41523 0L21.8426 0.600108L27.2788 12.6776L19.6093 23.7156L6.10892 22.8511L0.574219 9.76524L8.41523 0ZM18.2593 6.96173L8.52798 11.213L16.8476 17.6449L18.2593 6.96173ZM17.1326 4.83147L9.35571 1.48329L7.72205 8.52299L17.1326 4.83147ZM15.1614 19.2633L6.70946 13.2286L6.91388 21.4059L15.1614 19.2633ZM25.9289 12.6509L20.1692 6.80705L18.649 18.0445L25.9289 12.6509ZM17.1431 20.5777L10.0149 22.4405L18.3976 22.9772L17.1431 20.5777ZM24.8033 15.3023L18.5635 19.95L19.8034 22.3728L24.8033 15.3023ZM21.8519 2.28756L20.6399 4.77524L25.1509 9.36027L21.8519 2.28756ZM20.3419 1.09712L12.4205 0.775615L18.9547 3.63336L20.3419 1.09712ZM7.25843 2.24752L1.71004 9.25289L5.41964 10.0386L7.25843 2.24752ZM5.19592 11.4128L1.46845 10.6236L5.35775 19.7854L5.19592 11.4128Z"
  />
</svg>
