<svg
  xmlns="http://www.w3.org/2000/svg"
  xmlns:xlink="http://www.w3.org/1999/xlink"
  version="1.1"
  x="0px"
  y="0px"
  viewBox="0 0 512 512"
  xml:space="preserve"
  preserveAspectRatio="xMidYMid meet"
>

<rect y="85.331" style="fill:#F0F0F0;" width="512" height="341.337" />
  <g>
    <path
      style="fill:#1a1a1a;"
      d="m 303.36918,211.9473 q 0,19.77366 -14.64252,35.04193 -9.76168,10.13713 -31.78804,22.77725 v 25.28025 H 237.54041 V 261.2563 q 22.15151,-12.51498 28.90959,-18.39701 14.64252,-12.76528 14.64252,-29.28504 0,-25.6557 -31.28743,-25.6557 -21.40061,0 -40.17307,11.63893 h -1.0012 v -22.40181 q 20.39941,-7.75928 42.67606,-7.75928 22.02636,0 36.04313,10.01198 16.01917,11.38862 16.01917,32.53893 z m -42.17547,116.63956 q 0,5.75689 -4.12994,9.88683 -4.12994,4.12994 -9.88683,4.12994 -5.75689,0 -9.88683,-4.12994 -4.12994,-4.12994 -4.12994,-9.88683 0,-5.75689 4.12994,-9.88683 4.12994,-4.12994 9.88683,-4.12994 5.75689,0 9.88683,4.12994 4.12994,4.12994 4.12994,9.88683 z"
    />
  </g>
</svg>
