<svg enable-background="new 0 0 512 512" version="1.1" viewBox="0 0 512 512" xmlns="http://www.w3.org/2000/svg">
  <defs>
    <clipPath id="clipPath547">
      <path d="m512.67 87.104v341.34l-257.11-168.65v-172.88z" fill="#0f0" stroke-width=".7852" />
    </clipPath>
    <clipPath id="clipPath551">
      <path d="m0 85.337-1.6407e-7 341.34 254.89-168.65 2.2e-4 -172.88z" fill="#800080" stroke-width=".7852" />
    </clipPath>
    <clipPath id="clipPath555">
      <path d="m512 426.67h-512l254.89-168.65z" fill="#0af" stroke-width=".77668" />
    </clipPath>
  </defs>
  <g clip-path="url(#clipPath555)">
    <rect y="85.331" width="512" height="341.34" fill="#496e2d" />
    <path
      d="m285.68 248.88c-4.19 0-8.166 0.836-11.861 2.164 2.023-4.509 3.379-9.527 3.379-14.885 0-21.201-21.201-37.101-21.201-37.101s-21.201 15.901-21.201 37.101c0 5.357 1.356 10.375 3.379 14.885-3.693-1.328-7.671-2.164-11.861-2.164-21.201 0-37.101 21.201-37.101 21.201s15.901 21.201 37.101 21.201c12.429 0 23.031-7.286 29.682-13.315 6.65 6.03 17.251 13.315 29.682 13.315 21.201 0 37.101-21.201 37.101-21.201s-15.899-21.201-37.099-21.201z"
      fill="#f0f0f0"
    />
    <g fill="#ffda44">
      <polygon
        points="274.55 165.59 263.09 173.92 267.46 187.4 256 179.06 244.54 187.4 248.91 173.92 237.45 165.59 251.62 165.59 256 152.11 260.38 165.59"
      />
      <polygon
        points="220.36 177.6 215.74 187.96 224.17 195.54 212.89 194.36 208.28 204.71 205.92 193.63 194.65 192.44 204.47 186.77 202.11 175.68 210.54 183.27"
      />
      <polygon
        points="179.42 207.67 180.61 218.95 191.7 221.3 181.34 225.91 182.52 237.19 174.94 228.76 164.58 233.38 170.25 223.56 162.66 215.13 173.75 217.49"
      />
      <polygon
        points="291.65 177.6 296.26 187.96 287.83 195.54 299.11 194.36 303.72 204.71 306.08 193.63 317.35 192.44 307.53 186.77 309.89 175.68 301.46 183.27"
      />
      <polygon
        points="332.58 207.67 331.39 218.95 320.31 221.3 330.66 225.91 329.48 237.19 337.06 228.76 347.42 233.38 341.75 223.56 349.34 215.13 338.25 217.49"
      />
    </g>
    <g fill="#f0f0f0">
      <path d="m256 350.64c16.84 0 32.363-5.619 44.816-15.073h-89.63c12.451 9.454 27.974 15.073 44.814 15.073z" />
      <path d="m187.98 306.12c2.355 5.39 5.341 10.44 8.85 15.073h118.34c3.508-4.632 6.495-9.682 8.85-15.073z" />
    </g>
  </g>
  <g>
    <g transform="translate(0 -.0059968)" clip-path="url(#clipPath551)">
      <rect y="85.337" width="512" height="341.33" fill="#d80027" />
      <rect y="85.337" width="256" height="170.66" fill="#0052b4" />
      <polygon
        points="149.34 141.27 175.27 136.31 162.56 159.44 186.44 170.67 162.56 181.9 175.27 205.02 149.34 200.06 146.06 226.26 128 206.99 109.94 226.26 106.66 200.06 80.728 205.02 93.442 181.9 69.565 170.67 93.442 159.44 80.728 136.31 106.66 141.27 109.94 115.08 128 134.34 146.06 115.08"
        fill="#f0f0f0"
      />
      <circle cx="128" cy="170.67" r="29.006" fill="#0052b4" />
      <path
        d="m128 190.06c-10.692 0-19.391-8.7-19.391-19.391 0-10.692 8.7-19.391 19.391-19.391 10.692 0 19.391 8.7 19.391 19.391s-8.699 19.391-19.391 19.391z"
        fill="#f0f0f0"
      />
    </g>
  </g>
  <g transform="translate(-.671 -1.773)" clip-path="url(#clipPath547)">
    <rect y="85.331" width="512" height="341.34" fill="#d80027" />
    <g fill="#f0f0f0">
      <path
        d="m273.62 214.44c-3.878 16.132-10.77 13.056-14.152 27.125-19.921-4.789-32.191-24.823-27.401-44.747 4.788-19.921 24.823-32.191 44.745-27.402-6.765 28.139 0.277 30.595-3.192 45.024z"
      />
      <path
        d="m221.92 226.39c14.145 8.674 9.088 14.278 21.423 21.842-10.712 17.467-33.555 22.944-51.023 12.232-17.467-10.711-22.945-33.556-12.233-51.023 24.671 15.129 29.181 9.191 41.833 16.949z"
      />
      <path
        d="m217.32 279.26c12.621-10.772 16.387-4.232 27.393-13.626 13.303 15.585 11.452 39.003-4.132 52.306-15.586 13.303-39.004 11.451-52.306-4.133 22.011-18.786 17.757-24.912 29.045-34.547z"
      />
      <path
        d="m266.17 299.97c-6.347-15.331 1.037-16.894-4.494-30.263 18.933-7.835 40.634 1.161 48.471 20.094 7.835 18.933-1.162 40.634-20.095 48.47-11.068-26.74-18.207-24.587-23.882-38.301z"
      />
      <path
        d="m300.97 259.91c-16.542 1.298-15.747-6.209-30.171-5.077-1.602-20.427 13.66-38.286 34.088-39.89 20.427-1.599 38.286 13.663 39.888 34.09-28.851 2.262-29.012 9.718-43.805 10.877z"
      />
    </g>
  </g>
</svg>
