<svg version="1.1" viewBox="0 0 76 54" xmlns="http://www.w3.org/2000/svg" preserveAspectRatio="xMidYMid meet">
  <g fill="#0af">
    <g class="a" transform="matrix(.26136 0 0 .26136 -3.3836 -5.0422)" style="isolation:isolate">
      <path
        d="m256.48 58.53 0.1 1.34a4.2 4.2 0 0 1 3.42-1.56 3.19 3.19 0 0 1 3.17 1.82 4.12 4.12 0 0 1 3.59-1.82 3.56 3.56 0 0 1 2.89 1.13 5.18 5.18 0 0 1 0.95 3.41v7.63h-3.2v-7.62a2.27 2.27 0 0 0-0.4-1.49 1.76 1.76 0 0 0-1.4-0.47 2 2 0 0 0-2 1.37v8.21h-3.2v-7.61a2.26 2.26 0 0 0-0.4-1.5 1.8 1.8 0 0 0-1.4-0.47 2.06 2.06 0 0 0-2 1.13v8.45h-3.19v-12z"
      />
      <path
        d="m280 70.48a3.38 3.38 0 0 1-0.32-1.07 3.88 3.88 0 0 1-3 1.29 4.23 4.23 0 0 1-2.91-1 3.25 3.25 0 0 1-1.15-2.56 3.35 3.35 0 0 1 1.38-2.93 6.94 6.94 0 0 1 4.07-1h1.46v-0.69a2 2 0 0 0-0.42-1.32 1.67 1.67 0 0 0-1.34-0.5 1.91 1.91 0 0 0-1.27 0.39 1.33 1.33 0 0 0-0.45 1.06h-3.2a3.25 3.25 0 0 1 0.64-1.92 4.32 4.32 0 0 1 1.82-1.39 6.65 6.65 0 0 1 2.62-0.5 5.22 5.22 0 0 1 3.51 1.11 3.9 3.9 0 0 1 1.3 3.12v5.18a5.6 5.6 0 0 0 0.47 2.57v0.19zm-2.64-2.22a2.75 2.75 0 0 0 1.3-0.32 2 2 0 0 0 0.88-0.84v-2.1h-1.19c-1.6 0-2.45 0.56-2.55 1.66v0.19a1.27 1.27 0 0 0 0.42 1 1.62 1.62 0 0 0 1.13 0.41z"
      />
      <path d="m289.74 62.1 2-3.57h3.41l-3.4 5.85 3.54 6.1h-3.42l-2.13-3.76-2.12 3.76h-3.44l3.55-6.1-3.39-5.85h3.42z" />
    </g>
    <g class="a" transform="matrix(.26136 0 0 .26136 -3.3836 -5.0422)" style="isolation:isolate">
      <path
        d="m264.24 90.05a7.23 7.23 0 0 1-1.24 4.43 4 4 0 0 1-3.39 1.66 3.71 3.71 0 0 1-2.92-1.26v5.63h-3.19v-16.51h3l0.11 1.17a3.73 3.73 0 0 1 3-1.39 4.06 4.06 0 0 1 3.39 1.6 7.41 7.41 0 0 1 1.22 4.51zm-3.19-0.23a4.72 4.72 0 0 0-0.59-2.57 1.94 1.94 0 0 0-1.72-0.91 2.09 2.09 0 0 0-2.06 1.15v4.89a2.12 2.12 0 0 0 2.09 1.18c1.52 0 2.28-1.24 2.28-3.74z"
      />
      <path
        d="m272.93 87a8.38 8.38 0 0 0-1.15-0.09 2.33 2.33 0 0 0-2.37 1.23v7.82h-3.19v-11.96h3l0.09 1.42a3 3 0 0 1 2.69-1.67 3.55 3.55 0 0 1 1 0.14z"
      />
      <path
        d="m274.44 80.88a1.54 1.54 0 0 1 0.49-1.18 1.77 1.77 0 0 1 1.3-0.47 1.83 1.83 0 0 1 1.31 0.47 1.69 1.69 0 0 1 0 2.37 1.81 1.81 0 0 1-1.3 0.46 1.79 1.79 0 0 1-1.29-0.46 1.57 1.57 0 0 1-0.51-1.19zm3.39 15h-3.2v-11.88h3.2z"
      />
      <path
        d="m285.43 93.56a2.12 2.12 0 0 0 1.44-0.48 1.71 1.71 0 0 0 0.57-1.29h3a4 4 0 0 1-0.66 2.22 4.31 4.31 0 0 1-1.78 1.57 5.63 5.63 0 0 1-2.5 0.56 5.19 5.19 0 0 1-4-1.63 6.44 6.44 0 0 1-1.5-4.51v-0.2a6.38 6.38 0 0 1 1.46-4.41 5.16 5.16 0 0 1 4-1.64 5 5 0 0 1 3.6 1.27 4.52 4.52 0 0 1 1.37 3.4h-3a2.22 2.22 0 0 0-0.57-1.52 2.15 2.15 0 0 0-3.15 0.23 4.84 4.84 0 0 0-0.56 2.64v0.33a4.76 4.76 0 0 0 0.56 2.66 1.93 1.93 0 0 0 1.72 0.8z"
      />
      <path
        d="m297.75 96.14a5.89 5.89 0 0 1-4.28-1.61 5.75 5.75 0 0 1-1.65-4.3v-0.31a7.29 7.29 0 0 1 0.7-3.22 5.09 5.09 0 0 1 2-2.18 5.46 5.46 0 0 1 2.91-0.77 5 5 0 0 1 3.86 1.54 6.31 6.31 0 0 1 1.41 4.39v1.32h-7.61a3 3 0 0 0 0.93 1.88 2.83 2.83 0 0 0 2 0.7 3.43 3.43 0 0 0 2.88-1.33l1.51 1.75a4.77 4.77 0 0 1-1.94 1.59 6.37 6.37 0 0 1-2.72 0.55zm-0.36-9.82a2 2 0 0 0-1.54 0.65 3.25 3.25 0 0 0-0.76 1.84h4.44v-0.26a2.4 2.4 0 0 0-0.53-1.65 2.09 2.09 0 0 0-1.61-0.58z"
      />
    </g>
    <g class="a" transform="matrix(.26136 0 0 .26136 -3.3836 -5.0422)" style="isolation:isolate">
      <path
        d="m18.1 121.75 0.1 1.34a4.2 4.2 0 0 1 3.43-1.56 3.19 3.19 0 0 1 3.17 1.82 4.12 4.12 0 0 1 3.59-1.82 3.6 3.6 0 0 1 2.9 1.13 5.22 5.22 0 0 1 1 3.41v7.63h-3.29v-7.62a2.33 2.33 0 0 0-0.39-1.49 1.8 1.8 0 0 0-1.41-0.47 2 2 0 0 0-2 1.37v8.21h-3.13v-7.61a2.26 2.26 0 0 0-0.41-1.5 1.79 1.79 0 0 0-1.39-0.47 2.08 2.08 0 0 0-2 1.13v8.45h-3.16v-11.95z"
      />
      <path
        d="m34.66 118.66a1.57 1.57 0 0 1 0.48-1.18 2.06 2.06 0 0 1 2.62 0 1.69 1.69 0 0 1 0 2.37 1.81 1.81 0 0 1-1.3 0.46 1.79 1.79 0 0 1-1.29-0.46 1.57 1.57 0 0 1-0.51-1.19zm3.39 15h-3.2v-11.91h3.2z"
      />
      <path
        d="m43.62 121.75 0.1 1.38a4.16 4.16 0 0 1 3.43-1.6 3.48 3.48 0 0 1 2.85 1.11 5.25 5.25 0 0 1 1 3.34v7.72h-3.26v-7.64a2.11 2.11 0 0 0-0.44-1.48 2 2 0 0 0-1.47-0.46 2.2 2.2 0 0 0-2 1.15v8.43h-3.21v-11.95z"
      />
    </g>
    <g class="a" transform="matrix(.26136 0 0 .26136 -3.3836 -5.0422)" style="isolation:isolate">
      <path
        d="m25.86 153.27a7.11 7.11 0 0 1-1.25 4.42 4 4 0 0 1-3.38 1.67 3.72 3.72 0 0 1-2.93-1.26v5.63h-3.19v-16.54h3l0.11 1.17a3.73 3.73 0 0 1 3-1.39 4 4 0 0 1 3.44 1.63 7.34 7.34 0 0 1 1.22 4.51zm-3.19-0.27a4.63 4.63 0 0 0-0.59-2.57 1.9 1.9 0 0 0-1.71-0.91 2.1 2.1 0 0 0-2.07 1.15v4.89a2.13 2.13 0 0 0 2.09 1.18c1.52 0.04 2.28-1.2 2.28-3.74z"
      />
      <path
        d="m34.55 150.18a8.36 8.36 0 0 0-1.14-0.09 2.35 2.35 0 0 0-2.41 1.23v7.82h-3.16v-11.95h3l0.09 1.42a3 3 0 0 1 2.67-1.61 3.55 3.55 0 0 1 1 0.14z"
      />
      <path
        d="m36.07 144.1a1.55 1.55 0 0 1 0.48-1.18 1.79 1.79 0 0 1 1.31-0.47 1.82 1.82 0 0 1 1.3 0.47 1.69 1.69 0 0 1 0 2.37 2.05 2.05 0 0 1-2.59 0 1.56 1.56 0 0 1-0.5-1.19zm3.39 15h-3.21v-11.91h3.21z"
      />
      <path
        d="m47.05 156.78a2.12 2.12 0 0 0 1.44-0.48 1.69 1.69 0 0 0 0.57-1.29h3a4 4 0 0 1-0.66 2.22 4.38 4.38 0 0 1-1.78 1.57 5.63 5.63 0 0 1-2.5 0.56 5.19 5.19 0 0 1-4-1.63 6.44 6.44 0 0 1-1.48-4.5v-0.23a6.38 6.38 0 0 1 1.47-4.41 5.13 5.13 0 0 1 4-1.64 5 5 0 0 1 3.59 1.27 4.52 4.52 0 0 1 1.37 3.4h-3a2.18 2.18 0 0 0-0.57-1.52 2.14 2.14 0 0 0-3.14 0.23 4.72 4.72 0 0 0-0.57 2.64v0.33a4.85 4.85 0 0 0 0.56 2.66 2 2 0 0 0 1.7 0.82z"
      />
      <path
        d="m59.38 159.36a5.84 5.84 0 0 1-4.28-1.62 5.71 5.71 0 0 1-1.65-4.29v-0.31a7.28 7.28 0 0 1 0.69-3.22 5.15 5.15 0 0 1 2-2.18 5.46 5.46 0 0 1 2.86-0.74 5 5 0 0 1 3.86 1.54 6.29 6.29 0 0 1 1.41 4.39v1.3h-7.59a3 3 0 0 0 0.93 1.88 2.84 2.84 0 0 0 2 0.7 3.45 3.45 0 0 0 2.88-1.33l1.51 1.72a4.7 4.7 0 0 1-1.94 1.59 6.36 6.36 0 0 1-2.68 0.57zm-0.38-9.82a2 2 0 0 0-1.54 0.64 3.39 3.39 0 0 0-0.76 1.84h4.44v-0.25a2.35 2.35 0 0 0-0.57-1.65 2.05 2.05 0 0 0-1.57-0.58z"
      />
    </g>
  </g>
  <path class="c" d="m8.3786 46.155 60.898-44.545" fill="none" stroke="#0af" stroke-width="2.091px" />
  <path d="m62.871 1.1684h6.406v6.406" fill="none" stroke="#0af" stroke-linecap="round" stroke-width="2.091px" />
  <g transform="matrix(.98784 0 0 .98784 -64.442 -100.51)" stroke-width=".26458">
    <rect class="e" x="101.52" y="112.49" width="4.8604" height="3.3655" rx="1.4949" fill="#0043c4" />
    <circle class="f" cx="104.54" cy="127.05" r="12.359" fill="#dff1f5" />
    <path
      d="m104 114.69v12.578l8.8768 8.8874s7.0802-5.5854 2.6458-14.766c-3.6036-7.4533-11.523-6.6992-11.523-6.6992z"
      fill="#0af"
    />
  </g>
  <circle
    cx="38.807"
    cy="24.995"
    r="9.7071"
    fill="none"
    stroke="#0043c4"
    stroke-linecap="round"
    stroke-miterlimit="10"
    stroke-width=".73966px"
  />
  <g transform="matrix(.98784 0 0 .98784 -64.442 -100.51)" stroke-width=".26458">
    <path d="m104.54 115.21v4.1248l-5.2917 17.539-6.8236-9.8293s4.4212-12.467 12.115-11.835z" fill="#dff1f5" />
    <path class="b" d="m104 114.87v8.0619h2.0532v-7.7999z" fill="#0af" />
    <path
      d="m93.748 127.05 0.94721 5.3948 4.4768 4.4344 5.8526 1.6351 7.2469-2.9739-2.9104-2.9104-6.35 1.0848-8.2603-7.6729z"
      fill="#dff1f5"
    />
  </g>
  <g
    transform="matrix(.98784 0 0 .98784 -64.442 -100.51)"
    fill="none"
    stroke="#0043c4"
    stroke-linecap="round"
    stroke-width=".74877px"
  >
    <path
      d="m104.54 117.22a10.104 10.104 0 0 1 1.9129 0.18786 9.8346 9.8346 0 1 1-1.9129-0.18786z"
      stroke-dasharray="1.98173"
    />
    <path class="g" d="m112.54 134.85-1.9076 0.0159v-1.8521" stroke-miterlimit="10" />
    <path class="g" d="m104 121.93v5.1144l4.8868 4.8868" stroke-miterlimit="10" />
  </g>
  <g transform="matrix(.98784 0 0 .98784 -64.442 -100.51)" stroke-width=".26458">
    <path d="m73.545 155.36a7.1146 7.1146 0 1 1 7.1146-7.1252 7.1226 7.1226 0 0 1-7.1146 7.1252z" fill="#dff1f5" />
    <path
      d="m73.545 142.06a6.1886 6.1886 0 1 1-6.178 6.178 6.1886 6.1886 0 0 1 6.1886-6.1886m0-1.8521a8.0407 8.0407 0 1 0 8.0301 8.0407 8.0486 8.0486 0 0 0-8.0407-8.0407z"
      fill="#0af"
    />
    <path
      d="m73.875 151.63v0.60589h-0.86254v-0.635a3.8603 3.8603 0 0 1-2.2066-1.0134l0.67998-0.84138a3.2623 3.2623 0 0 0 1.524 0.81492v-1.8521c-1.1642-0.30162-1.95-0.71967-1.95-1.8362 0-1.0213 0.79375-1.8071 1.95-1.95v-0.5715h0.86519v0.58738a3.519 3.519 0 0 1 1.987 0.88106l-0.64294 0.87048a3.1221 3.1221 0 0 0-1.3441-0.71173v1.7806c1.2965 0.29368 2.1564 0.73818 2.1564 1.8918 0 1.0901-0.78581 1.8838-2.1564 1.9791zm-0.86254-4.0984v-1.5716a0.89429 0.89429 0 0 0-0.75671 0.81492c0 0.37835 0.24606 0.57679 0.75671 0.75671zm1.8362 2.2331c0-0.43392-0.30162-0.635-0.97367-0.83344v1.6907c0.635-0.082 0.97367-0.43921 0.97367-0.85725z"
      fill="#0af"
    />
  </g>
</svg>
