<svg version="1.1" viewBox="0 0 76 54" xmlns="http://www.w3.org/2000/svg" preserveAspectRatio="xMidYMid meet">
  <g transform="translate(-51.536 -121.87)">
    <g transform="matrix(.99541 0 0 .99541 1.7767 .67476)" stroke-width=".2417">
      <path
        class="a"
        d="m92.522 121.87h-38.544a2.4388 2.4388 0 0 0-2.4412 2.4364v26.549a2.4412 2.4412 0 0 0 2.434 2.446h7.5194v10.502l10.342-10.502h20.69a2.446 2.446 0 0 0 2.4412-2.446v-26.541a2.4436 2.4436 0 0 0-2.4412-2.4436z"
        fill="#0af"
      />
      <path
        class="b"
        d="m70.333 126.97c0.40122-0.0604 0.77828-0.0991 1.1384-0.12811 0.36014-0.029 0.75896-0.0435 1.194-0.0435 0.37947 0 0.74686 0 1.1094 0.0435 0.36256 0.0435 0.75654 0.0676 1.1916 0.12811l6.3931 20.424a15.227 15.227 0 0 1-2.2744 0.17159 12.453 12.453 0 0 1-2.098-0.17159l-1.1433-4.0848h-6.7677l-1.165 4.0872a11.87 11.87 0 0 1-1.9626 0.17161 12.44 12.44 0 0 1-2.0738-0.17161zm4.544 12.897-2.3542-8.5805-2.4799 8.5805z"
        fill="#0043c4"
      />
      <path
        class="c"
        d="m122.35 132.03h-38.552a2.4412 2.4412 0 0 0-2.4412 2.4412v26.541a2.4436 2.4436 0 0 0 2.4412 2.4436h20.695l10.338 10.504v-10.502h7.5194a2.4436 2.4436 0 0 0 2.4388-2.4436v-26.544a2.4412 2.4412 0 0 0-2.4388-2.4412z"
        fill="#dff1f5"
      />
      <path
        class="a"
        d="m114.31 149.48-3.072-2.156a3.4515 3.4515 0 0 0-1.6702-0.52691h-4.631v-6.2311h6.1006c0.50758 0 0.58009-0.2417 0.16194-0.52692l-3.0745-2.1536a3.4056 3.4056 0 0 0-1.6678-0.52448h-10.821c-0.50516 0-0.58009 0.24169-0.16436 0.52448l3.089 2.1536a3.3669 3.3669 0 0 0 1.6629 0.52692h1.5203v3.5385l-3.7488-3.7392c-0.3553-0.35531-0.57767-0.2417-0.4834 0.2417l0.6526 3.7029a3.4467 3.4467 0 0 0 0.80971 1.5493l0.92814 0.92815h-7.384c-0.50758 0-0.58251 0.24169-0.1692 0.52448l3.0793 2.156a3.4539 3.4539 0 0 0 1.6653 0.52207h4.631v6.9224c0 0.50276 0.2417 0.57769 0.52449 0.16195l2.156-3.0769a3.4201 3.4201 0 0 0 0.52208-1.6653v-0.50275l6.0813 6.0789c0.35772 0.35771 0.57768 0.24169 0.48341-0.25622l-0.6526-3.7005a3.4419 3.4419 0 0 0-0.80487-1.5469l-2.417-2.417h6.526c0.51483 0.012 0.58492-0.22238 0.16677-0.50758z"
        fill="#0af"
      />
      <path class="a" d="m78.305 162.33-2.84-1.3245 2.0714-4.4111 2.84 1.327z" fill="#0af" />
      <path
        class="b"
        d="m91.724 153.29a9.9098 9.9098 0 1 1-4.7785-13.158 9.9098 9.9098 0 0 1 4.7785 13.158zm-1.6919-0.78554a8.0439 8.0439 0 1 0-10.681 3.8914 8.0415 8.0415 0 0 0 10.691-3.8818z"
        fill="#0043c4"
      />
      <path
        class="b"
        d="m91.724 153.29a9.9098 9.9098 0 1 1-4.7785-13.158 9.9098 9.9098 0 0 1 4.7785 13.158zm-1.0925-0.51967a8.7013 8.7013 0 1 0-11.558 4.196 8.7013 8.7013 0 0 0 11.558-4.196z"
        fill="#0043c4"
      />
      <path
        class="d"
        d="m90.042 152.51a8.0439 8.0439 0 1 1-3.8818-10.693 8.0439 8.0439 0 0 1 3.8818 10.693z"
        fill="#dff1f5"
        opacity=".5"
        style="isolation:isolate"
      />
      <path
        class="e"
        d="m75.66 152.89a8.0415 8.0415 0 0 0 1.3753 1.8684l13.736-4.9863a8.0874 8.0874 0 0 0-0.14502-2.3155z"
        fill="#0af"
        opacity=".3"
      />
      <path
        class="e"
        d="m90.136 145.91a8.0173 8.0173 0 0 0-1.965-2.7603q-3.4974 1.2544-6.9925 2.5137l-6.3834 2.3083a8.0608 8.0608 0 0 0 0.24171 3.4201z"
        fill="#0af"
        opacity=".3"
      />
      <path
        class="b"
        d="m75.424 159.41-6.3133 13.516a1.7741 1.7741 0 0 0 0.85564 2.359l0.94023 0.43749a1.7741 1.7741 0 0 0 2.359-0.85564l6.3133-13.516z"
        fill="#0043c4"
      />
      <path
        class="b"
        d="m79.559 161.34c-1.704 4.1815-5.2643 7.459-9.4047 9.3467l-1.0442 2.2382a1.7741 1.7741 0 0 0 0.85564 2.359l0.93781 0.43749a1.7741 1.7741 0 0 0 2.359-0.85564l6.3157-13.516z"
        fill="#0043c4"
      />
    </g>
  </g>
</svg>
