<svg version="1.1" viewBox="0 0 76 54" xmlns="http://www.w3.org/2000/svg" preserveAspectRatio="xMidYMid meet">
  <path
    d="m27.831 6.5105h-22.833a1.447 1.447 0 0 0-1.447 1.442v15.713a1.4494 1.4494 0 0 0 1.4445 1.4494h4.4528v6.2155l6.1235-6.2155h12.259a1.4494 1.4494 0 0 0 1.4445-1.4494v-15.71a1.447 1.447 0 0 0-1.4445-1.4445z"
    fill="#0af"
    stroke-width=".24862"
  />
  <path
    d="m14.684 9.5262c0.24862-0.034805 0.45994-0.057184 0.67624-0.074586 0.2163-0.017402 0.45-0.024862 0.70608-0.024862 0.25608 0 0.44254 0 0.65884 0.024862 0.2163 0.024862 0.44751 0.042264 0.70359 0.074586l3.7865 12.098a9.0224 9.0224 0 0 1-1.345 0.10193 7.1702 7.1702 0 0 1-1.2431-0.10193l-0.68122-2.4191h-3.9978l-0.69116 2.4191a6.7401 6.7401 0 0 1-1.161 0.10193 7.2472 7.2472 0 0 1-1.2282-0.10193zm2.695 7.6401-1.3972-5.0843-1.4644 5.0843z"
    fill="#0043c4"
    stroke-width=".24862"
  />
  <path
    d="m49.644 12.527h-24.174a1.5326 1.5326 0 0 0-1.5405 1.5273v16.651a1.5352 1.5352 0 0 0 1.53 1.5352h12.982l6.4859 6.5833v-6.5833h4.7163a1.5352 1.5352 0 0 0 1.5326-1.5326v-16.653a1.5326 1.5326 0 0 0-1.53-1.5326z"
    fill="#dff1f5"
    stroke-width=".26333"
  />
  <path
    d="m44.604 23.474-1.9302-1.3509a2.1383 2.1383 0 0 0-1.0533-0.3318h-2.8967v-3.9079h3.8262c0.316 0 0.3634-0.1501 0.1027-0.3318l-1.9302-1.3483a2.1383 2.1383 0 0 0-1.0533-0.3318h-6.7835c-0.31863 0-0.3634 0.14747-0.1027 0.3318l1.9329 1.3483a2.1277 2.1277 0 0 0 1.0533 0.3318h0.95327v2.2278l-2.3463-2.3489c-0.2212-0.2212-0.36077-0.1501-0.30547 0.16063l0.4108 2.3226a2.1251 2.1251 0 0 0 0.50823 0.9717l0.57933 0.58197h-4.6347c-0.316 0-0.3634 0.14747-0.10533 0.3318l1.9329 1.3509a2.133 2.133 0 0 0 1.0533 0.32653h2.8967v4.345c0 0.31337 0.14747 0.36077 0.32917 0.10006l1.3509-1.9302a2.162 2.162 0 0 0 0.32917-1.0533v-0.316l3.8131 3.8131c0.22647 0.22383 0.3634 0.1501 0.3081-0.16063l-0.4108-2.3226a2.1356 2.1356 0 0 0-0.5056-0.96907l-1.5168-1.5168h4.0896c0.32127 0 0.36603-0.14483 0.10533-0.3239z"
    fill="#0af"
    stroke-width=".26333"
  />
  <g transform="matrix(.24862 0 0 .24862 -4.4756 -.5623)" fill="#0043c4" style="isolation:isolate">
    <g fill="#0043c4">
      <path
        d="m146.13 43.75a5.45 5.45 0 0 1 3.94 1.44 5.25 5.25 0 0 1 0 7.33 5.45 5.45 0 0 1-3.94 1.48 5.36 5.36 0 0 1-3.9-1.44 4.88 4.88 0 0 1-1.49-3.65 4.94 4.94 0 0 1 1.49-3.67 5.33 5.33 0 0 1 3.9-1.49zm4-5.3h-8l-1.13-33.79h10.32z"
        fill="#0043c4"
      />
    </g>
  </g>
  <g stroke-width=".27255">
    <rect x="21.705" y="21.697" width="6.8682" height="4.5788" rx="1.5263" fill="#0043c4" />
    <circle cx="24.863" cy="39.241" r="14.505" fill="#dff1f5" />
    <path
      d="m24.234 24.738v14.764l10.43 10.43s8.3127-6.5575 3.0989-17.331c-4.2354-8.7488-13.529-7.863-13.529-7.863z"
      fill="#0af"
    />
  </g>
  <circle
    cx="24.853"
    cy="39.241"
    r="11.534"
    fill="none"
    stroke="#0043c4"
    stroke-linecap="round"
    stroke-miterlimit="10"
    stroke-width=".76314px"
  />
  <g stroke-width=".27255">
    <path d="m24.869 25.349v4.8459l-6.2223 20.586-7.9966-11.537s5.192-14.636 14.219-13.895z" fill="#dff1f5" />
    <path d="m24.234 24.948v9.4629h2.4093v-9.1522z" fill="#0af" />
    <path
      d="m12.204 39.243 1.112 6.3286 5.2547 5.2057 6.8682 1.9215 8.5062-3.4859-3.4287-3.4259-7.4433 1.2701-9.6973-9.0077z"
      fill="#dff1f5"
    />
  </g>
  <g fill="none" stroke-linecap="round">
    <g stroke="#0043c4" stroke-width=".76314px">
      <path
        d="m24.863 27.706a12.207 12.207 0 0 1 2.2485 0.21804 11.551 11.551 0 1 1-2.2485-0.21804z"
        stroke-dasharray="1.98416"
      />
      <path d="m34.255 48.406-2.2403 0.01636-0.01636-2.1613" stroke-miterlimit="10" />
      <path d="m24.234 33.465v5.9961l5.7235 5.7371" stroke-miterlimit="10" />
    </g>
    <g stroke="#0af">
      <path d="m61.749 5.7728 4.1336-4.1457 4.1336 4.1457" stroke-width="1.9384px" />
      <path d="m65.444 33.177 0.43856-30.239" stroke-width="1.9384px" />
      <g stroke-width="1.5023px">
        <path d="m65.662 43.857v9.0935" />
        <path d="m62.001 44.783v6.3846" />
        <path d="m69.324 43.857v6.3846" />
      </g>
    </g>
  </g>
  <g stroke-width=".2423">
    <path d="m65.444 40.751a6.1592 6.1592 0 1 1 6.1544-6.1592 6.1641 6.1641 0 0 1-6.1544 6.1592z" fill="#dff1f5" />
    <path
      d="m65.444 29.276a5.3112 5.3112 0 1 1-5.3112 5.3088 5.3088 5.3088 0 0 1 5.3112-5.3088m0-1.6961a7.0073 7.0073 0 1 0 7.0049 7.0049 7.0146 7.0146 0 0 0-7.0049-7.0049z"
      fill="#0af"
    />
    <path
      d="m65.728 37.492v0.51852h-0.73901v-0.54275a3.3316 3.3316 0 0 1-1.8924-0.86985l0.58394-0.7269a2.7913 2.7913 0 0 0 1.3084 0.69782v-1.5846c-1.0007-0.25926-1.6743-0.61544-1.6743-1.5749 0-0.87712 0.67359-1.5507 1.6743-1.6743v-0.4846h0.73901v0.50398a3.0312 3.0312 0 0 1 1.6961 0.75355l-0.55244 0.7487a2.6653 2.6653 0 0 0-1.1533-0.61059v1.5289c1.1122 0.2423 1.8512 0.6324 1.8512 1.6234 0.0097 0.93043-0.6639 1.6113-1.8415 1.6937zm-0.73901-3.5182v-1.3472a0.76324 0.76324 0 0 0-0.64936 0.69782c-0.0097 0.32468 0.2108 0.49671 0.64936 0.64936zm1.5749 1.9166c0-0.37314-0.25926-0.54275-0.83593-0.7269v1.4538c0.55244-0.06057 0.83593-0.36829 0.83593-0.7269z"
      fill="#0af"
    />
  </g>
</svg>
